<?xml version="1.0" encoding="UTF-8"?>
<svg width="15px" height="15px" viewBox="0 0 15 15" version="1.1" xmlns="http://www.w3.org/2000/svg">
    <!-- Generator: Sketch 59.1 (86144) - https://sketch.com -->
    <title>15_text_format_bold</title>
    <desc>Created with Sketch.</desc>
    <g id="15_text_format_bold" stroke="none" stroke-width="1" fill="none" fill-rule="evenodd">
        <path d="M7.91308594,12 C9.86816406,12 11.0424805,11.0161133 11.0424805,9.40380859 C11.0424805,8.21044922 10.2172852,7.328125 8.97949219,7.20117188 L8.97949219,7.09326172 C9.88085938,6.94091797 10.5854492,6.08398438 10.5854492,5.12548828 C10.5854492,3.71630859 9.55078125,2.84033203 7.83056641,2.84033203 L4.14892578,2.84033203 L4.14892578,12 L7.91308594,12 Z M5.57080078,4.04638672 L7.50048828,4.04638672 C8.55419922,4.04638672 9.16992188,4.54150391 9.16992188,5.38574219 C9.16992188,6.25537109 8.51611328,6.71875 7.25927734,6.71875 L5.57080078,6.71875 L5.57080078,4.04638672 Z M5.57080078,10.7939453 L5.57080078,7.84228516 L7.54492188,7.84228516 C8.88427734,7.84228516 9.58886719,8.34375 9.58886719,9.30224609 C9.58886719,10.2734375 8.90966797,10.7939453 7.62744141,10.7939453 L5.57080078,10.7939453 Z" id="B" fill="#000000" fill-rule="nonzero"></path>
    </g>
</svg>
