<?xml version="1.0" encoding="UTF-8"?>
<svg width="15px" height="15px" viewBox="0 0 15 15" version="1.1" xmlns="http://www.w3.org/2000/svg" xmlns:xlink="http://www.w3.org/1999/xlink">
    <!-- Generator: Sketch 59.1 (86144) - https://sketch.com -->
    <title>15_text-format-code</title>
    <desc>Created with Sketch.</desc>
    <g id="15_text-format-code" stroke="none" stroke-width="1" fill="none" fill-rule="evenodd">
        <g id="Group" transform="translate(2.000000, 4.000000)" fill="#585858" fill-rule="nonzero">
            <g id="Group-5" transform="translate(2.000000, 3.500000) scale(-1, 1) translate(-2.000000, -3.500000) ">
                <path d="M3.85355339,3.14644661 L0.853553391,0.146446609 C0.658291245,-0.0488155365 0.341708755,-0.0488155365 0.146446609,0.146446609 C-0.0488155365,0.341708755 -0.0488155365,0.658291245 0.146446609,0.853553391 L3.14644661,3.85355339 C3.34170876,4.04881554 3.65829124,4.04881554 3.85355339,3.85355339 C4.04881554,3.65829124 4.04881554,3.34170876 3.85355339,3.14644661 Z" id="Line-19"></path>
                <path d="M3.14644661,3.14644661 L0.146446609,6.14644661 C-0.0488155365,6.34170876 -0.0488155365,6.65829124 0.146446609,6.85355339 C0.341708755,7.04881554 0.658291245,7.04881554 0.853553391,6.85355339 L3.85355339,3.85355339 C4.04881554,3.65829124 4.04881554,3.34170876 3.85355339,3.14644661 C3.65829124,2.95118446 3.34170876,2.95118446 3.14644661,3.14644661 Z" id="Line-20"></path>
            </g>
            <g id="Group-5" transform="translate(7.000000, 0.000000)">
                <path d="M3.85355339,3.14644661 L0.853553391,0.146446609 C0.658291245,-0.0488155365 0.341708755,-0.0488155365 0.146446609,0.146446609 C-0.0488155365,0.341708755 -0.0488155365,0.658291245 0.146446609,0.853553391 L3.14644661,3.85355339 C3.34170876,4.04881554 3.65829124,4.04881554 3.85355339,3.85355339 C4.04881554,3.65829124 4.04881554,3.34170876 3.85355339,3.14644661 Z" id="Line-19"></path>
                <path d="M3.14644661,3.14644661 L0.146446609,6.14644661 C-0.0488155365,6.34170876 -0.0488155365,6.65829124 0.146446609,6.85355339 C0.341708755,7.04881554 0.658291245,7.04881554 0.853553391,6.85355339 L3.85355339,3.85355339 C4.04881554,3.65829124 4.04881554,3.34170876 3.85355339,3.14644661 C3.65829124,2.95118446 3.34170876,2.95118446 3.14644661,3.14644661 Z" id="Line-20"></path>
            </g>
        </g>
    </g>
</svg>