<?xml version="1.0" encoding="UTF-8"?>
<svg width="15px" height="15px" viewBox="0 0 15 15" version="1.1" xmlns="http://www.w3.org/2000/svg" xmlns:xlink="http://www.w3.org/1999/xlink">
    <!-- Generator: Sketch 59.1 (86144) - https://sketch.com -->
    <title>15_text-format-strikethrough</title>
    <desc>Created with Sketch.</desc>
    <g id="15_text-format-strikethrough" stroke="none" stroke-width="1" fill="none" fill-rule="evenodd">
        <g id="S" transform="translate(3.000000, 3.000000)" fill="#000000" fill-rule="nonzero">
            <path d="M1.88003289,6.63157895 L3.05476974,6.63157895 C3.21898026,7.44631579 3.99582237,7.97052632 5.12003289,7.97052632 C6.32003289,7.97052632 7.05898026,7.39578947 7.05898026,6.49894737 C7.05898026,5.81052632 6.62319079,5.41263158 5.656875,5.16631579 L4.16003289,4.78105263 C2.86529605,4.44631579 2.12003289,3.65684211 2.12003289,2.50105263 C2.12003289,1.03578947 3.376875,0 5.13266447,0 C6.83792763,0 7.99371711,0.953684211 8.12634868,2.26736842 L6.95792763,2.26736842 C6.80003289,1.50947368 6.11792763,1.02947368 5.11371711,1.02947368 C4.02740132,1.02947368 3.30108553,1.60421053 3.30108553,2.44421053 C3.30108553,3.05052632 3.72424342,3.46736842 4.51371711,3.66315789 L5.98529605,4.04842105 C7.49476974,4.44 8.23371711,5.14736842 8.23371711,6.40421053 C8.23371711,7.97052632 6.98950658,9 5.00003289,9 C3.17476974,9 2.00003289,8.02105263 1.88003289,6.63157895 Z"></path>
            <polygon id="Decoration" points="-4.54747351e-13 5.00832639 -4.54747351e-13 4 10 4 10 5.00832639"></polygon>
        </g>
    </g>
</svg>