<?xml version="1.0" encoding="UTF-8"?>
<svg width="14px" height="14px" viewBox="0 0 14 14" version="1.1" xmlns="http://www.w3.org/2000/svg">
    <!-- Generator: Sketch 53.1 (72631) - https://sketchapp.com -->
    <title>arrows</title>
    <desc>Created with Sketch.</desc>
    <g id="arrows" stroke="none" stroke-width="1" fill="none" fill-rule="evenodd">
        <path d="M6.90000295,11.2087783 L9.67321111,8.21578838 C9.91719946,7.95246353 10.3284581,7.93678818 10.5917829,8.18077652 C10.8551078,8.42476487 10.8707831,8.83602348 10.6267948,9.09934833 L7.37679478,12.6069167 C7.11955481,12.8845434 6.68045108,12.8845434 6.42321111,12.6069167 L3.17321111,9.09934833 C2.92922277,8.83602348 2.94489811,8.42476487 3.20822297,8.18077652 C3.47154783,7.93678818 3.88280644,7.95246353 4.12679478,8.21578838 L6.90000295,11.2087783 Z M6.90000295,2.60635842 L4.12679478,5.59934833 C3.88280644,5.86267319 3.47154783,5.87834854 3.20822297,5.63436019 C2.94489811,5.39037185 2.92922277,4.97911324 3.17321111,4.71578838 L6.42321111,1.20822002 C6.68045108,0.930593325 7.11955481,0.930593325 7.37679478,1.20822002 L10.6267948,4.71578838 C10.8707831,4.97911324 10.8551078,5.39037185 10.5917829,5.63436019 C10.3284581,5.87834854 9.91719946,5.86267319 9.67321111,5.59934833 L6.90000295,2.60635842 Z" id="Arrows" fill="#FFFFFF" fill-rule="nonzero"></path>
    </g>
</svg>
