<?xml version="1.0" encoding="UTF-8"?>
<svg width="17px" height="17px" viewBox="0 0 17 17" version="1.1" xmlns="http://www.w3.org/2000/svg">
    <title>code</title>
    <g id="code" stroke="none" stroke-width="1" fill="none" fill-rule="evenodd">
        <path d="M9.82680679,5.01694537 C10.1144261,5.07858138 10.2896182,5.29176985 10.2423216,5.50791955 L10.2274074,5.55778518 L7.89427429,11.6825881 C7.80577605,11.9149084 7.48293705,12.0494319 7.17319321,11.9830546 C6.88557393,11.9214186 6.71038176,11.7082301 6.7576784,11.4920804 L6.77259261,11.4422148 L9.10572571,5.31741193 C9.19422395,5.08509159 9.51706295,4.95056813 9.82680679,5.01694537 Z M5.80473785,5.20502525 C6.0450605,5.45736403 6.06354685,5.85442577 5.86019693,6.12902961 L5.80473785,6.19497475 L3.61,8.5 L5.80473785,10.8050253 C6.0450605,11.057364 6.06354685,11.4544258 5.86019693,11.7290296 L5.80473785,11.7949747 C5.56441521,12.0473135 5.18626118,12.0667242 4.9247337,11.8532068 L4.86192881,11.7949747 L2.19526215,8.99497475 C1.9549395,8.74263597 1.93645315,8.34557423 2.13980307,8.07097039 L2.19526215,8.00502525 L4.86192881,5.20502525 C5.12227834,4.93165825 5.54438833,4.93165825 5.80473785,5.20502525 Z M12.0752663,5.14679323 L12.1380712,5.20502525 L14.8047379,8.00502525 C15.0450605,8.25736403 15.0635469,8.65442577 14.8601969,8.92902961 L14.8047379,8.99497475 L12.1380712,11.7949747 C11.8777217,12.0683418 11.4556117,12.0683418 11.1952621,11.7949747 C10.9549395,11.542636 10.9364531,11.1455742 11.1398031,10.8709704 L11.1952621,10.8050253 L13.39,8.5 L11.1952621,6.19497475 C10.9549395,5.94263597 10.9364531,5.54557423 11.1398031,5.27097039 L11.1952621,5.20502525 C11.4155579,4.97371471 11.7516703,4.93812847 12.007602,5.09826654 L12.0752663,5.14679323 Z" id="Shape" fill="#000000" fill-rule="nonzero"></path>
    </g>
</svg>
