<?xml version="1.0" encoding="UTF-8"?>
<svg width="17px" height="17px" viewBox="0 0 17 17" version="1.1" xmlns="http://www.w3.org/2000/svg">
    <!-- Generator: Sketch 59.1 (86144) - https://sketch.com -->
    <title>download</title>
    <desc>Created with Sketch.</desc>
    <g id="download" stroke="none" stroke-width="1" fill="none" fill-rule="evenodd">
        <g id="cloud-computing" transform="translate(0.000000, 1.000000)" fill="#000000" fill-rule="nonzero">
            <path d="M10.8028929,11.7136071 L9.41071429,13.1057857 L9.41071429,7.58928571 C9.41071429,7.25414286 9.13871429,6.98214286 8.80357143,6.98214286 C8.46842857,6.98214286 8.19642857,7.25414286 8.19642857,7.58928571 L8.19642857,13.1057857 L6.80425,11.7136071 C6.56716071,11.4765179 6.18283929,11.4765179 5.94575,11.7136071 C5.70866071,11.9506964 5.70866071,12.3350179 5.94575,12.5721071 L8.37401786,15.000375 C8.40225,15.0289107 8.43351786,15.0541071 8.46721429,15.0765714 C8.48148214,15.0862857 8.49726786,15.0926607 8.51214286,15.1011607 C8.531875,15.1120893 8.55069643,15.1239286 8.57164286,15.1324286 C8.591375,15.140625 8.61201786,15.1451786 8.63235714,15.15125 C8.64996429,15.1564107 8.66666071,15.1633929 8.684875,15.1667321 C8.72403571,15.1743214 8.76380357,15.1785714 8.80357143,15.1785714 C8.84333929,15.1785714 8.88310714,15.1743214 8.92257143,15.1664286 C8.94078571,15.1627857 8.95748214,15.1561071 8.97508929,15.1509464 C8.99542857,15.144875 9.01607143,15.1403214 9.03580357,15.132125 C9.05675,15.123625 9.07557143,15.1117857 9.09530357,15.1008571 C9.11048214,15.0926607 9.12596429,15.0859821 9.14023214,15.0762679 C9.173625,15.0538036 9.20489286,15.0286071 9.23342857,15.0000714 L11.6616964,12.5718036 C11.8987857,12.3347143 11.8987857,11.9503929 11.6616964,11.7133036 C11.4246071,11.4762143 11.0399821,11.4765179 10.8028929,11.7136071 Z" id="Path"></path>
            <path d="M14.5213393,4.85289286 C14.47975,4.847125 13.7754643,4.75119643 13.0994107,4.8535 C13.0839286,4.85592857 13.0684464,4.85714286 13.0532679,4.85714286 C12.9057321,4.85714286 12.7764107,4.74967857 12.7536429,4.59910714 C12.7284464,4.43335714 12.8422857,4.27853571 13.0080357,4.25333929 C13.4728036,4.18260714 13.9375714,4.19383929 14.2475179,4.21569643 C14.0438214,1.86241071 12.09125,0 9.74008929,0 C8.31421429,0 6.88105357,0.722196429 6.01071429,1.86058929 C6.60389286,2.36208929 6.98214286,3.11039286 6.98214286,3.94642857 C6.98214286,4.11430357 6.84644643,4.25 6.67857143,4.25 C6.51069643,4.25 6.375,4.11430357 6.375,3.94642857 C6.375,3.19903571 5.986125,2.54180357 5.40083929,2.16264286 C5.33192857,2.11801786 5.26058929,2.07855357 5.18773214,2.04242857 C5.16678571,2.03210714 5.14553571,2.02148214 5.12398214,2.01176786 C5.04141071,1.974125 4.95701786,1.94073214 4.8705,1.91432143 C4.859875,1.91128571 4.84894643,1.90916071 4.83832143,1.906125 C4.75969643,1.88335714 4.67985714,1.86605357 4.59880357,1.85239286 C4.575125,1.84844643 4.55175,1.84480357 4.52807143,1.84146429 C4.43639286,1.829625 4.34380357,1.82142857 4.25,1.82142857 C3.07851786,1.82142857 2.125,2.77494643 2.125,3.94642857 C2.125,3.97132143 2.12682143,3.99591071 2.12864286,4.0205 L2.13228571,4.08425 L2.12955357,4.13282143 C2.12742857,4.17228571 2.125,4.21144643 2.125,4.25 L2.125,4.44125 L1.952875,4.52351786 C0.821160714,5.066 0,6.375 0,7.63603571 C0,9.45169643 1.476875,10.9285714 3.29223214,10.9285714 L7.58928571,10.9285714 L7.58928571,7.58928571 C7.58928571,6.91869643 8.13298214,6.375 8.80357143,6.375 C9.47416071,6.375 10.0178571,6.91869643 10.0178571,7.58928571 L10.0178571,10.9285714 L10.7321607,10.9285714 C10.7500714,10.9285714 10.767375,10.9270536 10.7849821,10.9258393 L10.8450893,10.9225 L10.9273571,10.9258393 C10.9446607,10.9270536 10.9619643,10.9285714 10.979875,10.9285714 L13.9557857,10.9285714 C15.6342321,10.9285714 17,9.56280357 17,7.88435714 C17,6.423875 15.9344643,5.12185714 14.5213393,4.85289286 Z" id="Path"></path>
        </g>
    </g>
</svg>