<?xml version="1.0" encoding="UTF-8"?>
<svg width="17px" height="17px" viewBox="0 0 17 17" version="1.1" xmlns="http://www.w3.org/2000/svg" xmlns:xlink="http://www.w3.org/1999/xlink">
    <!-- Generator: Sketch 59.1 (86144) - https://sketch.com -->
    <title>edit</title>
    <desc>Created with Sketch.</desc>
    <g id="edit" stroke="none" stroke-width="1" fill="none" fill-rule="evenodd">
        <path d="M14,4 C14.5522847,4 15,4.44771525 15,5 L15,14 C15,14.5522847 14.5522847,15 14,15 L3,15 C2.44771525,15 2,14.5522847 2,14 L2,5 C2,4.44771525 2.44771525,4 3,4 L14,4 Z M3,5 L3,14 L14,14 L14,5 L3,5 Z" id="Rectangle" fill="#313131" fill-rule="nonzero"></path>
        <path d="M7.97884807,10.9346755 L15.7288481,2.68467546 C16.1069839,2.28214379 16.0872071,1.64928774 15.6846755,1.27115193 C15.2821438,0.893016112 14.6492877,0.912792863 14.2711519,1.31532454 L6.52115193,9.56532454 C6.14301611,9.96785621 6.16279286,10.6007123 6.56532454,10.9788481 C6.96785621,11.3569839 7.60071226,11.3372071 7.97884807,10.9346755 Z" id="Line-29" fill="#393939" fill-rule="nonzero"></path>
    </g>
</svg>