<?xml version="1.0" encoding="UTF-8"?>
<svg width="17px" height="17px" viewBox="0 0 17 17" version="1.1" xmlns="http://www.w3.org/2000/svg">
    <!-- Generator: Sketch 53.1 (72631) - https://sketchapp.com -->
    <title>envelop</title>
    <desc>Created with Sketch.</desc>
    <g id="envelop" stroke="none" stroke-width="1" fill="none" fill-rule="evenodd">
        <path d="M1.77247753,14 L15.2505805,14 L10.9949483,9.73440536 L10.0871055,10.6359297 C9.99343964,10.7289436 9.86679217,10.7811438 9.73478886,10.7811438 L7.47396721,10.7811438 C7.34426236,10.7811438 7.21963318,10.7307409 7.1263928,10.6405767 L6.09418611,9.64242491 L1.77247753,14 Z M1.01080077,14 L1,13.9892881 L1,14 L1.01080077,14 Z M1,13.3587944 L5.37526284,8.94722056 L1,4.71630761 L1,13.3587944 Z M16,13.335304 L16,4.76418823 L11.7045219,9.02977026 L16,13.335304 Z M15.3503661,4 L1.69779435,4 L7.67617869,9.78114382 L9.52870415,9.78114382 L15.3503661,4 Z M1,3 L16,3 C16.5522847,3 17,3.44771525 17,4 L17,14 C17,14.5522847 16.5522847,15 16,15 L1,15 C0.44771525,15 6.76353751e-17,14.5522847 0,14 L0,4 C-6.76353751e-17,3.44771525 0.44771525,3 1,3 Z" id="Combined-Shape" fill="#585858" fill-rule="nonzero"></path>
    </g>
</svg>