<?xml version="1.0" encoding="UTF-8"?>
<svg width="17px" height="17px" viewBox="0 0 17 17" version="1.1" xmlns="http://www.w3.org/2000/svg" xmlns:xlink="http://www.w3.org/1999/xlink">
    <!-- Generator: Sketch 59.1 (86144) - https://sketch.com -->
    <title>eye</title>
    <desc>Created with Sketch.</desc>
    <g id="eye" stroke="none" stroke-width="1" fill="none" fill-rule="evenodd">
        <g id="c" transform="translate(1.000000, 4.000000)" fill="#000000" fill-rule="nonzero">
            <path d="M9.58578617,4.50011602 C9.58578617,3.25018693 8.6524153,2.23625113 7.5001069,2.23625113 C6.34779851,2.23625113 5.41421383,3.24983886 5.41421383,4.50011602 C5.41421383,5.75016114 6.34769161,6.7638649 7.5001069,6.7638649 C8.65209459,6.7638649 9.58578617,5.75027717 9.58578617,4.50011602 M13.7212253,4.49327059 C12.2978106,6.53518113 10.0409795,7.85472476 7.50021381,7.85472476 C4.95912739,7.85472476 2.70251008,6.53518113 1.27909546,4.49327059 C2.70240318,2.45147609 4.95912739,1.13193245 7.5001069,1.13193245 C10.0410864,1.13193245 12.2977037,2.45147609 13.7212253,4.49327059 M15,4.49709939 C13.4340836,1.79582313 10.6609105,0 7.5001069,0 C4.33930328,0 1.56591644,1.79582313 0,4.49709939 C1.56591644,7.20185639 4.33930328,9 7.5001069,9 C10.6609105,9 13.4340836,7.20185639 15,4.49709939" id="Shape"></path>
        </g>
    </g>
</svg>