<?xml version="1.0" encoding="UTF-8"?>
<svg width="17px" height="17px" viewBox="0 0 17 17" version="1.1" xmlns="http://www.w3.org/2000/svg">
    <!-- Generator: Sketch 59.1 (86144) - https://sketch.com -->
    <title>filter</title>
    <desc>Created with Sketch.</desc>
    <g id="filter" stroke="none" stroke-width="1" fill="none" fill-rule="evenodd">
        <path d="M8.5,2 C12.0898509,2 15,4.91014913 15,8.5 C15,12.0898509 12.0898509,15 8.5,15 C4.91014913,15 2,12.0898509 2,8.5 C2,4.91014913 4.91014913,2 8.5,2 Z M8.5,3 C5.46243388,3 3,5.46243388 3,8.5 C3,11.5375661 5.46243388,14 8.5,14 C11.5375661,14 14,11.5375661 14,8.5 C14,5.46243388 11.5375661,3 8.5,3 Z" id="Oval" fill="#979797" fill-rule="nonzero"></path>
        <polygon id="Line-22" fill="#979797" fill-rule="nonzero" points="5 6 5 7 12 7 12 6"></polygon>
        <polygon id="Line-23" fill="#979797" fill-rule="nonzero" points="6 8 6 9 11 9 11 8"></polygon>
        <polygon id="Line-24" fill="#979797" fill-rule="nonzero" points="7 10 7 11 10 11 10 10"></polygon>
    </g>
</svg>