<?xml version="1.0" encoding="UTF-8"?>
<svg width="17px" height="17px" viewBox="0 0 17 17" version="1.1" xmlns="http://www.w3.org/2000/svg" xmlns:xlink="http://www.w3.org/1999/xlink">
    <!-- Generator: Sketch 59.1 (86144) - https://sketch.com -->
    <title>flag</title>
    <desc>Created with Sketch.</desc>
    <g id="flag" stroke="none" stroke-width="1" fill="none" fill-rule="evenodd">
        <g transform="translate(4.000000, 2.000000)" fill="#000000" fill-rule="nonzero" id="Path">
            <path d="M9.85704545,0.681633333 C9.81090909,0.664083333 8.70704545,0.24895 7.39909091,0.24895 C6.61863636,0.24895 5.92863636,0.3978 5.34818182,0.691383333 C4.83386364,0.9516 4.13613636,1.08333333 3.27431818,1.08333333 C2.06795455,1.08333333 0.878409091,0.820733333 0.454545455,0.716516667 L0.454545455,0.216666667 C0.454545455,0.09685 0.352954545,0 0.227272727,0 C0.101590909,0 0,0.09685 0,0.216666667 L0,0.866666667 C0,0.8697 0.00159090909,0.8723 0.00181818182,0.875333333 C0.00181818182,0.877933333 0,0.8801 0,0.8827 L0,7.15 L0,7.3827 L0,12.7833333 C0,12.90315 0.101590909,13 0.227272727,13 C0.352954545,13 0.454545455,12.90315 0.454545455,12.7833333 L0.454545455,7.66415 C0.971136364,7.78635 2.10068182,8.01666667 3.27431818,8.01666667 C4.21113636,8.01666667 4.98045455,7.8676 5.56113636,7.57423333 C6.07545455,7.31401667 6.69363636,7.18206667 7.39909091,7.18206667 C8.61659091,7.18206667 9.67795455,7.57986667 9.68840909,7.58376667 C9.75863636,7.61063333 9.83772727,7.6024 9.90022727,7.56166667 C9.9625,7.5218 10,7.45463333 10,7.3827 L10,0.8827 C10,0.794083333 9.94340909,0.714566667 9.85704545,0.681633333 Z"></path>
        </g>
    </g>
</svg>