<?xml version="1.0" encoding="UTF-8"?>
<svg width="17px" height="17px" viewBox="0 0 17 17" version="1.1" xmlns="http://www.w3.org/2000/svg">
    <title>font</title>
    <g id="font" stroke="none" stroke-width="1" fill="none" fill-rule="evenodd">
        <g transform="translate(1.000000, 2.000000)" fill="#000000" fill-rule="nonzero" id="Shape">
            <path d="M9.19968016,2.77808 C9.48384016,2.07511 10.5055002,2.07279 10.7902002,2.77808 L13.9081002,10.5 L14.2299002,10.5 C14.6552002,10.5 15.0000002,10.8358 15.0000002,11.25 C15.0000002,11.6642 14.6552002,12 14.2299002,12 L12.1122002,12 C11.6870002,12 11.3422002,11.6642 11.3422002,11.25 C11.3422002,10.8358 11.6870002,10.5 12.1122002,10.5 L12.2529002,10.5 L11.6520002,9.01172 L8.33711016,9.01172 L7.73625016,10.5 L7.87688016,10.5 C8.30217016,10.5 8.64694016,10.8358 8.64694016,11.25 C8.64694016,11.6642 8.30217016,12 7.87688016,12 L5.75919016,12 C5.33390016,12 4.98912016,11.6642 4.98912016,11.25 C4.98912016,10.8358 5.33390016,10.5 5.75919016,10.5 L6.08106016,10.5 L9.19968016,2.77808 Z M3.42492016,0.404301 C3.74940016,-0.134788 4.56760016,-0.134746 4.89211016,0.404301 L4.95378016,0.52808 L4.96130016,0.548588 L6.88948016,5.75684 C6.97450016,5.98656 6.93951016,6.24253 6.79547016,6.44239 C6.65130016,6.64227 6.41609016,6.76171 6.16528016,6.76172 L2.50145016,6.76172 L1.48697016,9.27466 C1.33128016,9.66003 0.884031156,9.84956 0.488291156,9.698 C0.0926073562,9.54636 -0.101991844,9.11077 0.0536240562,8.72534 L3.36326016,0.52808 L3.42492016,0.404301 Z M8.94249016,7.51172 L11.0466002,7.51172 L9.99456016,4.9065 L8.94249016,7.51172 Z M3.10682016,5.26172 L5.06959016,5.26172 L4.13032016,2.72608 L3.10682016,5.26172 Z"></path>
        </g>
    </g>
</svg>
