<?xml version="1.0" encoding="UTF-8"?>
<svg width="17px" height="17px" viewBox="0 0 17 17" version="1.1" xmlns="http://www.w3.org/2000/svg" xmlns:xlink="http://www.w3.org/1999/xlink">
    <!-- Generator: Sketch 59.1 (86144) - https://sketch.com -->
    <title>garbage</title>
    <desc>Created with Sketch.</desc>
    <g id="garbage" stroke="none" stroke-width="1" fill="none" fill-rule="evenodd">
        <g transform="translate(2.000000, 1.000000)" fill="#000000" fill-rule="nonzero">
            <path d="M6.5,11 C6.776,11 7,10.9106 7,10.8 L7,4.2 C7,4.0894 6.776,4 6.5,4 C6.224,4 6,4.0894 6,4.2 L6,10.8 C6,10.9106 6.224,11 6.5,11 Z" id="Path"></path>
            <path d="M4.5,11 C4.776,11 5,10.9106 5,10.8 L5,4.2 C5,4.0894 4.776,4 4.5,4 C4.224,4 4,4.0894 4,4.2 L4,10.8 C4,10.9106 4.224,11 4.5,11 Z" id="Path"></path>
            <path d="M8.5,11 C8.776,11 9,10.9106 9,10.8 L9,4.2 C9,4.0894 8.776,4 8.5,4 C8.224,4 8,4.0894 8,4.2 L8,10.8 C8,10.9106 8.224,11 8.5,11 Z" id="Path"></path>
            <path d="M12.7291667,1.52542373 L8.92558333,1.52542373 C8.89579167,1.20762712 8.79152083,0.671694915 8.4345625,0.327711864 C8.2086875,0.110338983 7.92214583,0 7.5830625,0 L4.875,0 C4.53591667,0 4.249375,0.110338983 4.0235,0.327711864 C3.66654167,0.671694915 3.56227083,1.20762712 3.53247917,1.52542373 L0.270833333,1.52542373 C0.121333333,1.52542373 0,1.6390678 0,1.77966102 C0,1.92025424 0.121333333,2.03389831 0.270833333,2.03389831 L0.823604167,2.03389831 L1.34225,12.7341525 C1.35227083,13.1719492 1.64260417,14 2.6715,14 L10.3285,14 C11.3573958,14 11.6477292,13.1719492 11.6574792,12.7394915 L12.1763958,2.03389831 L12.7291667,2.03389831 C12.8786667,2.03389831 13,1.92025424 13,1.77966102 C13,1.6390678 12.8786667,1.52542373 12.7291667,1.52542373 Z M4.41241667,0.681610169 C4.53375,0.565169492 4.68514583,0.508474576 4.875,0.508474576 L7.5830625,0.508474576 C7.77291667,0.508474576 7.9243125,0.565169492 8.04564583,0.681610169 C8.26366667,0.890847458 8.35114583,1.25898305 8.38147917,1.52542373 L4.07685417,1.52542373 C4.1071875,1.25898305 4.19466667,0.890847458 4.41241667,0.681610169 Z M11.1160833,12.2940616 C11.1144583,12.3697351 11.0770833,13.0338983 10.3285,13.0338983 L2.6715,13.0338983 C1.93104167,13.0338983 1.886625,12.3685106 1.88364583,12.2889187 L1.36554167,2.03389831 L11.6341875,2.03389831 L11.1160833,12.2940616 Z" id="Shape"></path>
        </g>
    </g>
</svg>