<?xml version="1.0" encoding="UTF-8"?>
<svg width="17px" height="17px" viewBox="0 0 17 17" version="1.1" xmlns="http://www.w3.org/2000/svg">
    <!-- Generator: Sketch 59.1 (86144) - https://sketch.com -->
    <title>help</title>
    <desc>Created with Sketch.</desc>
    <g id="help" stroke="none" stroke-width="1" fill="none" fill-rule="evenodd">
        <path d="M5.13671875,5.80175781 L6.55175781,5.80175781 C6.61328125,4.92675781 7.22167969,4.37304688 8.16503906,4.37304688 C9.1015625,4.37304688 9.70996094,4.91992188 9.70996094,5.671875 C9.70996094,6.31627604 9.45390191,6.69866319 8.74725839,7.15250868 L8.58886719,7.25097656 C7.71087646,7.77648926 7.289505,8.35006714 7.26842642,9.2308116 L7.27636719,9.93066406 L8.69140625,9.93066406 L8.69140625,9.52050781 C8.69140625,8.83007812 8.94433594,8.46777344 9.82617188,7.94824219 C10.7285156,7.40820312 11.2617188,6.66308594 11.2617188,5.61035156 C11.2617188,4.12695312 10.0449219,3.05371094 8.24023438,3.05371094 C6.2578125,3.05371094 5.19824219,4.22949219 5.13671875,5.80175781 Z M8.06933594,13.1572266 C7.44042969,13.1572266 7.00976562,12.7402344 7.00976562,12.1181641 C7.00976562,11.4824219 7.44042969,11.0654297 8.06933594,11.0654297 C8.69824219,11.0654297 9.12207031,11.4824219 9.12207031,12.1181641 C9.12207031,12.7402344 8.69824219,13.1572266 8.06933594,13.1572266 Z" id="?" fill="#000000" fill-rule="nonzero"></path>
    </g>
</svg>