<?xml version="1.0" encoding="UTF-8"?>
<svg width="17px" height="17px" viewBox="0 0 17 17" version="1.1" xmlns="http://www.w3.org/2000/svg">
    <title>link</title>
    <g id="link" stroke="none" stroke-width="1" fill="none" fill-rule="evenodd">
        <g id="link-svgrepo-com" transform="translate(3.000000, 3.000000)" fill="#000000" fill-rule="nonzero">
            <path d="M7.67940812,1.17086512 C8.35768569,0.530944219 9.34975648,0.517504853 9.8989892,1.03569372 C10.4492149,1.55485588 10.4344142,2.49314047 9.7557111,3.13349691 L8.60958088,4.21487252 C8.47136244,4.34531081 8.47178802,4.55636751 8.61052661,4.68627249 C8.74931249,4.81617747 8.97387609,4.81577749 9.11209453,4.6853392 L10.2582247,3.60396359 C11.1620116,2.75124384 11.2754992,1.38982812 10.4015028,0.565222601 C9.52646614,-0.260360202 8.08115423,-0.152759504 7.17689447,0.700398441 L4.88461985,2.86316745 C3.98083768,3.71588719 3.86736899,5.0773207 4.74135121,5.90190399 C4.87957911,6.03234228 5.10413797,6.03274226 5.24287657,5.90283728 C5.38166245,5.7729323 5.38208803,5.5618756 5.24386958,5.43143731 C4.69362021,4.91230627 4.7084398,3.97399501 5.38714768,3.33363413 L7.67940812,1.17086512 Z" id="Path"></path>
            <path d="M6.25864578,5.0980838 C6.12042736,4.96766326 5.8958638,4.96725439 5.75707793,5.09716829 C5.61833936,5.22708664 5.61791378,5.43813895 5.7561322,5.56853283 C6.30635786,6.08770846 6.29155718,7.02597552 5.61285413,7.66634546 L3.32058455,9.82913282 C2.64234017,10.4690583 1.65023168,10.4825244 1.10101796,9.96432647 C0.550759205,9.44515084 0.565583521,8.50683934 1.24428658,7.8664694 L2.39043555,6.78509794 C2.52866816,6.65465962 2.52823313,6.4436473 2.38946618,6.31369785 C2.25069923,6.18379284 2.02614513,6.18419282 1.88791725,6.31463114 L0.741768271,7.3960026 C-0.162020394,8.24876256 -0.275489067,9.61016532 0.598494921,10.4347933 C1.47352205,11.2603545 2.91885268,11.1527596 3.82310286,10.2995996 L6.11536771,8.13681226 C7.01915448,7.28409674 7.13264207,5.92269398 6.25864578,5.0980838 Z" id="Path"></path>
        </g>
    </g>
</svg>
