<?xml version="1.0" encoding="UTF-8"?>
<svg width="17px" height="17px" viewBox="0 0 17 17" version="1.1" xmlns="http://www.w3.org/2000/svg" xmlns:xlink="http://www.w3.org/1999/xlink">
    <title>reload</title>
    <g id="reload" stroke="none" stroke-width="1" fill="none" fill-rule="evenodd">
        <path d="M7.64960658,1.98375597 C7.84659847,1.79023902 8.16316842,1.79305602 8.35668537,1.99004791 L10.6520794,4.32665993 C10.8455964,4.52365182 10.8427794,4.84022178 10.6457875,5.03373872 C10.4487956,5.22725566 10.1322257,5.22443866 9.93870872,5.02744677 L7.64331463,2.69083475 C7.44979769,2.49384286 7.45261469,2.17727291 7.64960658,1.98375597 Z" id="Line" fill="#000000" fill-rule="nonzero"></path>
        <path d="M7.65985541,4.31058145 C7.83976371,4.14359774 8.10971934,4.13435729 8.29942613,4.27651516 L8.3664719,4.33690876 L10.661866,6.80996717 C10.8497227,7.01236402 10.8379355,7.328727 10.6355387,7.51658367 C10.4556304,7.68356737 10.1856747,7.69280782 9.99596795,7.55064996 L9.92892218,7.49025635 L7.6335281,5.01719794 C7.44567142,4.8148011 7.45745856,4.49843812 7.65985541,4.31058145 Z" id="Line" fill="#000000" fill-rule="nonzero" transform="translate(9.147697, 5.913583) scale(-1, 1) translate(-9.147697, -5.913583) "></path>
        <path d="M8.25,4 C11.1494949,4 13.5,6.35050506 13.5,9.25 C13.5,12.0770076 11.2655511,14.3821316 8.46640462,14.495621 L8.25,14.5 L8.25,13.5 C10.5972102,13.5 12.5,11.5972102 12.5,9.25 C12.5,6.90278981 10.5972102,5 8.25,5 C5.97182541,5 4.11231326,6.79250701 4.00490093,9.04408366 L4,9.25 L3,9.25 C3,6.35050506 5.35050506,4 8.25,4 Z" id="Oval" fill="#000000" fill-rule="nonzero" transform="translate(8.250000, 9.250000) rotate(-180.000000) translate(-8.250000, -9.250000) "></path>
        <path d="M7.98640863,4.00018476 L8.55203155,3.98875508 L8.85515776,3.98765401 L9.1002955,3.99186748 L9.28845287,4.00148082 C9.53621423,4.02059169 9.75653441,4.04787986 9.9505319,4.08147415 C10.2054237,4.12561343 10.3780665,4.17293211 10.475765,4.21072048 C10.7333135,4.31033657 10.861343,4.59987571 10.7617269,4.85742424 C10.6731793,5.08635627 10.434569,5.2129523 10.2017531,5.16829487 L10.0367524,5.12004367 L9.88463859,5.08615042 C9.85295708,5.07990004 9.81806706,5.07341834 9.77990267,5.06680946 C9.61727871,5.03864808 9.42822458,5.01523242 9.21154713,4.99851918 L9.05099493,4.99075783 L8.69569917,4.98763345 L8.20606672,4.99498626 C8.14432598,4.99639597 8.08016053,4.99800504 8.01359137,4.99981524 C7.73755103,5.00732155 7.50769107,4.7896317 7.50018476,4.51359137 C7.49267845,4.23755103 7.7103683,4.00769107 7.98640863,4.00018476 Z" id="Path-4" fill="#000000" fill-rule="nonzero"></path>
    </g>
</svg>