<?xml version="1.0" encoding="UTF-8"?>
<svg width="34px" height="34px" viewBox="0 0 34 34" version="1.1" xmlns="http://www.w3.org/2000/svg">
    <!-- Generator: Sketch 57.1 (83088) - https://sketch.com -->
    <title>settings</title>
    <desc>Created with Sketch.</desc>
    <g id="settings" stroke="none" stroke-width="1" fill="none" fill-rule="evenodd">
        <path d="M28.5287695,24.8530362 C28.5287695,24.7073039 28.4775872,24.5614182 28.3756058,24.4156859 C27.5588347,23.4381603 26.9027362,22.5996246 26.4066972,21.9000785 C26.712948,21.302208 26.946333,20.7479347 27.106316,20.237948 L30.4971418,19.7129437 C30.6287753,19.6980793 30.7454678,19.6217652 30.8474492,19.4835416 C30.9494307,19.3443986 31,19.2024973 31,19.0566883 L31,15.0094353 C31,14.8492216 30.9494307,14.7068606 30.8474492,14.5831183 C30.7454678,14.459376 30.6214197,14.3825256 30.4756115,14.3537929 L27.1502959,13.8506254 C26.9895468,13.3546603 26.7418338,12.7564067 26.4064673,12.0567074 C26.6249114,11.7356672 26.9534587,11.2980103 27.3910365,10.7441201 C27.8284611,10.1898467 28.1352483,9.79624669 28.309789,9.56286036 C28.412077,9.41705137 28.4629528,9.27836809 28.4629528,9.14727025 C28.4629528,8.7534404 27.4127967,7.58673862 25.3133273,5.64701166 C25.1675957,5.53054836 25.014432,5.47224009 24.853453,5.47224009 C24.6788356,5.47224009 24.5330274,5.52273306 24.4157985,5.62525141 L21.8343882,7.5721807 C21.2366742,7.26600481 20.6897594,7.04005068 20.1938737,6.89378197 L19.690709,3.54699442 C19.676381,3.40118543 19.603362,3.27338228 19.4721116,3.16412131 C19.3407846,3.05478372 19.1949765,3 19.0343806,3 L14.9658493,3 C14.6304828,3 14.4117322,3.17500144 14.3096741,3.52492769 C14.1345204,4.19589423 13.9669521,5.31907552 13.8065094,6.89378197 C13.1795265,7.09789923 12.6180539,7.33128556 12.1222448,7.59378771 L9.60665118,5.62517479 C9.46084299,5.5228863 9.30775588,5.47216346 9.14723661,5.47216346 C8.86979496,5.47216346 8.29384111,5.90231148 7.41891533,6.76291399 C6.54383632,7.62321002 5.94558599,8.27218645 5.62500718,8.70976666 C5.52279587,8.82661307 5.47199669,8.97242206 5.47199669,9.1474235 C5.47199669,9.27852133 5.52271925,9.42433032 5.62500718,9.58477385 C6.44154838,10.5621461 7.09772356,11.4006819 7.59368595,12.1003812 C7.28751173,12.6986348 7.05427992,13.2525251 6.89399052,13.7628948 L3.50316469,14.2875927 C3.37176109,14.3021506 3.2552218,14.3786179 3.15301049,14.5169181 C3.05102904,14.6557546 3,14.7977326 3,14.9434649 L3,18.9904881 C3,19.1510082 3.05102904,19.2930628 3.15301049,19.4168051 C3.2552218,19.5410837 3.37904,19.6102721 3.52515468,19.6247534 L6.85016378,20.1497577 C7.02516425,20.7037246 7.28061592,21.3019016 7.61598242,21.9435224 C7.38259737,22.2646393 7.04002857,22.7096517 6.58789292,23.2780999 C6.13545079,23.8471611 5.83663211,24.2336353 5.69090053,24.4375994 C5.58884246,24.5834084 5.5377368,24.7223981 5.5377368,24.8529596 C5.5377368,25.2473258 6.58789292,26.4136445 8.68789866,28.3535247 C8.83370686,28.4699114 8.98664073,28.5278365 9.14731323,28.5278365 C9.33687154,28.5278365 9.48267974,28.4772669 9.58466119,28.3749785 L12.1659183,26.4283556 C12.7636322,26.7346082 13.310547,26.9603324 13.8065861,27.106218 L14.3097507,30.4533121 C14.3241553,30.5990444 14.397251,30.7270008 14.5283481,30.8361085 C14.6595985,30.9454461 14.8054066,31 14.9659259,31 L19.0344572,31 C19.3700536,31 19.5886509,30.8251518 19.6907856,30.4750723 C19.8657861,29.7893946 20.0333544,28.6593175 20.1939503,27.0841513 C20.7771064,26.9098395 21.3385025,26.6830425 21.878215,26.4063655 L24.3938852,28.3749785 C24.5396934,28.4772669 24.6927805,28.5278365 24.8532997,28.5278365 C25.1304349,28.5278365 25.7030941,28.094164 26.5707409,27.225976 C27.4380813,26.3588608 28.0399328,25.7056702 28.3755292,25.2683198 C28.4775872,25.1665677 28.5287695,25.0281909 28.5287695,24.8530362 Z M20.535122,20.5354441 C19.5587648,21.5116779 18.3802539,22 17.0001368,22 C15.6196776,22 14.4411668,21.5116095 13.4648095,20.5354441 C12.4883155,19.5587314 12,18.380136 12,16.9999316 C12,15.6197956 12.4883155,14.4412686 13.4648095,13.4647612 C14.4411668,12.4881853 15.6197461,12 17.0001368,12 C18.3802539,12 19.5587648,12.4881169 20.535122,13.4647612 C21.5118214,14.4412686 22,15.6197956 22,16.9999316 C22,18.380136 21.5118898,19.5587314 20.535122,20.5354441 Z" id="Shape" fill="#000000" fill-rule="nonzero"></path>
    </g>
</svg>
