<?xml version="1.0" encoding="UTF-8"?>
<svg width="17px" height="17px" viewBox="0 0 17 17" version="1.1" xmlns="http://www.w3.org/2000/svg">
    <!-- Generator: Sketch 59.1 (86144) - https://sketch.com -->
    <title>star</title>
    <desc>Created with Sketch.</desc>
    <g id="star" stroke="none" stroke-width="1" fill="none" fill-rule="evenodd">
        <path d="M14.4732549,6.18926696 L10.6744954,6.18926696 C10.4473268,6.19048887 10.2449321,6.04900273 10.1723192,5.83821536 L9.00217629,2.35146361 C8.92870831,2.14124102 8.72690108,2 8.5,2 C8.2730989,2 8.07129167,2.14124102 7.9978237,2.35146361 L6.82768085,5.83821536 C6.75506793,6.04900273 6.55267323,6.19048887 6.32550455,6.18926696 L2.5267451,6.18926696 C2.30103839,6.18430732 2.09833177,6.3238381 2.02667455,6.53348481 C1.95501733,6.74313152 2.03110756,6.97404085 2.21438665,7.1031305 L5.29712439,9.27202705 C5.47926563,9.39869489 5.55616511,9.62660729 5.48694222,9.83460369 L4.31199385,13.3368845 C4.26149831,13.4931131 4.29083537,13.6635903 4.39082745,13.7949855 C4.49081954,13.9263807 4.64925601,14.0026484 4.8165729,14 C4.92814818,13.9994204 5.03667845,13.9642416 5.12652861,13.8994612 L8.18764153,11.7460938 C8.37445705,11.6152816 8.62554293,11.6152816 8.81235845,11.7460938 L11.8734714,13.8994612 C11.9633215,13.9642416 12.0718518,13.9994204 12.1834271,14 C12.350744,14.0026484 12.5091804,13.9263807 12.6091725,13.7949855 C12.7091646,13.6635903 12.7385017,13.4931131 12.6880061,13.3368845 L11.5130578,9.83460369 C11.4438349,9.62660729 11.5207343,9.39869489 11.7028756,9.27202705 L14.7856133,7.1031305 C14.9688925,6.97404085 15.0449827,6.74313152 14.9733255,6.53348481 C14.9016682,6.3238381 14.6989616,6.18430732 14.4732549,6.18926696 L14.4732549,6.18926696 Z" id="Star" fill="#000000" fill-rule="nonzero"></path>
    </g>
</svg>