<?xml version="1.0" encoding="UTF-8"?>
<svg width="17px" height="17px" viewBox="0 0 17 17" version="1.1" xmlns="http://www.w3.org/2000/svg" xmlns:xlink="http://www.w3.org/1999/xlink">
    <!-- Generator: Sketch 53.1 (72631) - https://sketchapp.com -->
    <title>toggle-sidebar</title>
    <desc>Created with Sketch.</desc>
    <g id="toggle-sidebar" stroke="none" stroke-width="1" fill="none" fill-rule="evenodd">
        <path d="M2,4 L2,14 L15,14 L15,4 L2,4 Z M2,3 L15,3 C15.5522847,3 16,3.44771525 16,4 L16,14 C16,14.5522847 15.5522847,15 15,15 L2,15 C1.44771525,15 1,14.5522847 1,14 L1,4 C1,3.44771525 1.44771525,3 2,3 Z M3.5,6 L3.5,5 L5.5,5 L5.5,6 L3.5,6 Z M3.5,8 L3.5,7 L5.5,7 L5.5,8 L3.5,8 Z M3.5,10 L3.5,9 L5.5,9 L5.5,10 L3.5,10 Z M7,4 L8,4 L8,14 L7,14 L7,4 Z" id="Combined-Shape" fill="#565656" fill-rule="nonzero"></path>
    </g>
</svg>