<?xml version="1.0" encoding="UTF-8"?>
<svg width="17px" height="17px" viewBox="0 0 17 17" version="1.1" xmlns="http://www.w3.org/2000/svg" xmlns:xlink="http://www.w3.org/1999/xlink">
    <!-- Generator: Sketch 59.1 (86144) - https://sketch.com -->
    <title>toggle-sidebar</title>
    <desc>Created with Sketch.</desc>
    <g id="toggle-sidebar" stroke="none" stroke-width="1" fill="none" fill-rule="evenodd">
        <path d="M15,2 C15.5522847,2 16,2.44771525 16,3 L16,13 C16,13.5522847 15.5522847,14 15,14 L2,14 C1.44771525,14 1,13.5522847 1,13 L1,3 C1,2.44771525 1.44771525,2 2,2 L15,2 Z M15,3 L8,3 L8,13 L7,13 L7,3 L2,3 L2,13 L15,13 L15,3 Z M5.5,8 L5.5,9 L3.5,9 L3.5,8 L5.5,8 Z M5.5,6 L5.5,7 L3.5,7 L3.5,6 L5.5,6 Z M5.5,4 L5.5,5 L3.5,5 L3.5,4 L5.5,4 Z" id="Combined-Shape" fill="#565656" fill-rule="nonzero"></path>
    </g>
</svg>