<?xml version="1.0" encoding="UTF-8"?>
<svg width="17px" height="17px" viewBox="0 0 17 17" version="1.1" xmlns="http://www.w3.org/2000/svg">
    <!-- Generator: Sketch 59.1 (86144) - https://sketch.com -->
    <title>zoom_to_fit</title>
    <desc>Created with Sketch.</desc>
    <g id="zoom_to_fit" stroke="none" stroke-width="1" fill="none" fill-rule="evenodd">
        <path d="M3.5,2.75 L6.5,2.75 C6.91421356,2.75 7.25,3.08578644 7.25,3.5 C7.25,3.87969577 6.96784612,4.19349096 6.60177056,4.24315338 L6.5,4.25 L4.25,4.25 L4.25,6.5 C4.25,6.87969577 3.96784612,7.19349096 3.60177056,7.24315338 L3.5,7.25 C3.12030423,7.25 2.80650904,6.96784612 2.75684662,6.60177056 L2.75,6.5 L2.75,3.5 C2.75,3.12030423 3.03215388,2.80650904 3.39822944,2.75684662 L3.5,2.75 L6.5,2.75 L3.5,2.75 Z" id="Combined-Shape" fill="#393939" fill-rule="nonzero"></path>
        <path d="M3.5,9.75 L6.5,9.75 C6.91421356,9.75 7.25,10.0857864 7.25,10.5 C7.25,10.8796958 6.96784612,11.193491 6.60177056,11.2431534 L6.5,11.25 L4.25,11.25 L4.25,13.5 C4.25,13.8796958 3.96784612,14.193491 3.60177056,14.2431534 L3.5,14.25 C3.12030423,14.25 2.80650904,13.9678461 2.75684662,13.6017706 L2.75,13.5 L2.75,10.5 C2.75,10.1203042 3.03215388,9.80650904 3.39822944,9.75684662 L3.5,9.75 L6.5,9.75 L3.5,9.75 Z" id="Combined-Shape" fill="#393939" fill-rule="nonzero" transform="translate(5.000000, 12.000000) rotate(-90.000000) translate(-5.000000, -12.000000) "></path>
        <path d="M10.5,9.75 L13.5,9.75 C13.9142136,9.75 14.25,10.0857864 14.25,10.5 C14.25,10.8796958 13.9678461,11.193491 13.6017706,11.2431534 L13.5,11.25 L11.25,11.25 L11.25,13.5 C11.25,13.8796958 10.9678461,14.193491 10.6017706,14.2431534 L10.5,14.25 C10.1203042,14.25 9.80650904,13.9678461 9.75684662,13.6017706 L9.75,13.5 L9.75,10.5 C9.75,10.1203042 10.0321539,9.80650904 10.3982294,9.75684662 L10.5,9.75 L13.5,9.75 L10.5,9.75 Z" id="Combined-Shape" fill="#393939" fill-rule="nonzero" transform="translate(12.000000, 12.000000) rotate(-180.000000) translate(-12.000000, -12.000000) "></path>
        <path d="M10.5,2.75 L13.5,2.75 C13.9142136,2.75 14.25,3.08578644 14.25,3.5 C14.25,3.87969577 13.9678461,4.19349096 13.6017706,4.24315338 L13.5,4.25 L11.25,4.25 L11.25,6.5 C11.25,6.87969577 10.9678461,7.19349096 10.6017706,7.24315338 L10.5,7.25 C10.1203042,7.25 9.80650904,6.96784612 9.75684662,6.60177056 L9.75,6.5 L9.75,3.5 C9.75,3.12030423 10.0321539,2.80650904 10.3982294,2.75684662 L10.5,2.75 L13.5,2.75 L10.5,2.75 Z" id="Combined-Shape" fill="#393939" fill-rule="nonzero" transform="translate(12.000000, 5.000000) rotate(-270.000000) translate(-12.000000, -5.000000) "></path>
    </g>
</svg>
