<?xml version="1.0" encoding="UTF-8"?>
<svg width="20px" height="24px" viewBox="0 0 20 24" version="1.1" xmlns="http://www.w3.org/2000/svg" xmlns:xlink="http://www.w3.org/1999/xlink">
    <!-- Generator: Sketch 57 (83077) - https://sketch.com -->
    <title>apple</title>
    <desc>Created with Sketch.</desc>
    <g id="Website" stroke="none" stroke-width="1" fill="none" fill-rule="evenodd">
        <g id="Artboard" transform="translate(-472.000000, -398.000000)" fill="white" fill-rule="nonzero">
            <g id="Group-2" transform="translate(112.000000, 378.000000)">
                <path d="M379.58083,38.7032866 C379.22175,39.5417798 378.796717,40.3136083 378.304265,41.0232165 C377.633006,41.9905946 377.083394,42.660204 376.659827,43.0320446 C376.003224,43.6423966 375.299722,43.9549797 374.546387,43.9727569 C374.005569,43.9727569 373.353364,43.8172061 372.594167,43.5016601 C371.832478,43.1875955 371.132493,43.0320446 370.492452,43.0320446 C369.821193,43.0320446 369.101275,43.1875955 368.331233,43.5016601 C367.560018,43.8172061 366.938737,43.9816456 366.463726,43.9979414 C365.741316,44.0290515 365.021252,43.7075798 364.302506,43.0320446 C363.843764,42.6276124 363.269969,41.9343 362.582588,40.9521075 C361.845083,39.9032503 361.238751,38.6869908 360.76374,37.300366 C360.25502,35.8026335 360,34.352307 360,32.9482013 C360,31.3398054 360.343837,29.9525881 361.032537,28.7901047 C361.573795,27.8563551 362.293859,27.1197848 363.195075,26.5790604 C364.096292,26.038336 365.070057,25.7627888 366.118716,25.7451597 C366.692511,25.7451597 367.444966,25.9245617 368.380038,26.2771436 C369.312473,26.6309107 369.911183,26.8103127 370.173677,26.8103127 C370.369925,26.8103127 371.035029,26.6005412 372.162538,26.1823317 C373.228785,25.7944915 374.128682,25.6339038 374.865895,25.6971611 C376.86355,25.8601192 378.364356,26.6560951 379.362451,28.0901259 C377.575846,29.184315 376.692071,30.7168613 376.709659,32.6828759 C376.72578,34.2142371 377.275392,35.4885689 378.355562,36.5003902 C378.845083,36.9700056 379.391763,37.3329576 380,37.5907276 C379.868093,37.9773826 379.728858,38.3477418 379.58083,38.7032866 L379.58083,38.7032866 Z M374.999267,20.4801336 C374.999267,21.6804085 374.56544,22.8011005 373.700718,23.8384025 C372.657189,25.0715504 371.394988,25.7841215 370.026235,25.6716804 C370.008794,25.5276848 369.998681,25.3761338 369.998681,25.2168794 C369.998681,24.0646179 370.494944,22.83147 371.376227,21.8232042 C371.81621,21.3127011 372.375788,20.888225 373.054375,20.549613 C373.731496,20.2160527 374.371977,20.0315842 374.974351,20 C374.991939,20.1604544 374.999267,20.3209236 374.999267,20.4801188 L374.999267,20.4801336 Z" id="apple"></path>
            </g>
        </g>
    </g>
</svg>
