<?xml version="1.0" encoding="UTF-8"?>
<svg width="26px" height="24px" viewBox="0 0 26 24" version="1.1" xmlns="http://www.w3.org/2000/svg" xmlns:xlink="http://www.w3.org/1999/xlink">
    <!-- Generator: Sketch 57 (83077) - https://sketch.com -->
    <title>cluster</title>
    <desc>Created with Sketch.</desc>
    <g id="Website" stroke="none" stroke-width="1" fill="none" fill-rule="evenodd">
        <g id="Artboard" transform="translate(-959.000000, -1471.000000)">
            <g id="icons/300/cluster" transform="translate(952.000000, 1463.000000)">
                <polygon id="bg" fill="#FFFFFF" opacity="0" points="0 0 0 40 11.0429481 40 22.0858963 40 33.1288296 40 40 40 40 0"></polygon>
                <path d="M28.6667378,8.33330519 L32.5185896,14.9999719 L28.6667378,21.6666385 L24.8154489,21.6666385 L23.8521896,19.9999422 L27.7037896,19.9999719 L30.5926637,14.9999719 L27.7037896,9.99994222 L21.9260119,9.99994222 L19.0375081,14.9999719 L21.9264267,19.9999422 L25.7773452,26.6666237 L22.8884859,31.6666681 L17.1107081,31.6666681 L14.2226193,26.6666237 L17.1126341,21.6666681 L19.0370341,21.6658978 L20.000397,23.3332904 L18.0744711,23.3332904 L16.1477156,26.6666237 L18.0736415,29.999957 L21.9257896,30.0000015 L23.8522489,26.6666237 L17.1115822,14.9999719 L20.9634933,8.33330519 L28.6667378,8.33330519 Z M16.1482193,9.99997037 L17.1116119,11.666637 L11.3336119,11.666637 L9.40816,14.9999407 L11.3336859,18.3333037 L15.1849748,18.3333037 L16.1483526,16.6667111 L17.1111081,18.3330222 L16.1481452,19.9999704 L10.370723,19.9999704 L7.48140444,14.9999407 L10.3705748,10.000237 L16.1482193,9.99997037 Z" id="cluster" fill="#F8ECDF"></path>
            </g>
        </g>
    </g>
</svg>