<?xml version="1.0" encoding="UTF-8"?>
<svg width="28px" height="24px" viewBox="0 0 28 24" version="1.1" xmlns="http://www.w3.org/2000/svg" xmlns:xlink="http://www.w3.org/1999/xlink">
    <!-- Generator: Sketch 57 (83077) - https://sketch.com -->
    <title>dashboard</title>
    <desc>Created with Sketch.</desc>
    <g id="Website" stroke="none" stroke-width="1" fill="none" fill-rule="evenodd">
        <g id="Artboard" transform="translate(-222.000000, -1471.000000)">
            <g id="icons/300/dashboard" transform="translate(216.000000, 1463.000000)">
                <polygon id="bg" fill="#FFFFFF" opacity="0" points="0 0 0 40 11.0429481 40 22.0858963 40 33.1288296 40 40 40 40 0"></polygon>
                <path d="M31.5555556,16.6666237 L33.4814815,19.999957 L26.7402963,31.6666681 L13.2588148,31.6666681 L10.3697333,26.6666385 L9.40696296,25.0000015 L12.2963259,20.000283 L14.2224296,19.9999719 L11.3351259,24.99612 L14.2201333,30.0000459 L25.777837,30.0000459 L31.5556444,20.0000015 L30.592563,18.3333348 L31.5555556,16.6666237 Z M22.8878711,14.9993052 L17.1114859,25.0000015 L15.1851748,25.000683 L14.2217822,23.3332904 L15.1856193,21.6666681 L16.1485526,23.3332904 L20.9617822,14.9996163 L22.8878711,14.9993052 Z M26.7407467,8.33333185 L29.6296356,13.3333319 L30.5925985,14.9999985 L26.74168,21.6666948 L24.8165985,21.6666948 L22.8863615,18.3333022 L23.8493393,16.6659244 L25.777517,19.9996874 L28.6666133,14.9998948 L25.7778726,9.99999852 L14.2201689,9.99999852 L12.2942578,13.3333319 L8.44239111,20.000043 L9.40741333,21.6666652 L8.44445037,23.3333319 L6.51852444,19.9999985 L11.3323467,11.6683689 L13.2592652,8.33333185 L26.7407467,8.33333185 Z" id="dashboard" fill="#F8ECDF"></path>
            </g>
        </g>
    </g>
</svg>