<svg width="162" height="27" viewBox="0 0 162 27" fill="none" xmlns="http://www.w3.org/2000/svg">
<path fill-rule="evenodd" clip-rule="evenodd" d="M6.62 6.74927L17.212 24.7506L15.889 27H13.241L6.62 15.7499L5.29601 18.0003L10.593 27H5.29601L0 18.0003L6.62 6.74927ZM10.593 0L21.185 18.0003L18.537 22.5002L7.944 4.49984L10.593 0ZM141.561 9.00041C141.672 9.00041 141.746 9.07776 141.746 9.19328V10.633C141.746 10.7486 141.672 10.8259 141.561 10.8259H139.589V16.1745H141.561C141.672 16.1745 141.746 16.2508 141.746 16.3674V17.8071C141.746 17.9226 141.672 18 141.561 18H135.609C135.496 18 135.423 17.9226 135.423 17.8071V16.3674C135.423 16.2508 135.496 16.1745 135.609 16.1745H137.58V10.8259H135.609C135.496 10.8259 135.423 10.7486 135.423 10.633V9.19328C135.423 9.07776 135.496 9.00041 135.609 9.00041H141.561ZM161.813 9.00041C161.926 9.00041 162 9.07776 162 9.19328V10.633C162 10.7486 161.926 10.8259 161.813 10.8259H159.564V17.8071C159.564 17.9226 159.488 18 159.376 18H157.741C157.629 18 157.554 17.9226 157.554 17.8071V10.8259H155.303C155.192 10.8259 155.117 10.7486 155.117 10.633V9.19328C155.117 9.07776 155.192 9.00041 155.303 9.00041H161.813ZM37.8415 9.00021C40.8138 9.00021 42.4121 11.0062 42.4121 13.5C42.4121 15.9938 40.8138 17.9998 37.8415 17.9998H35.1866C35.0738 17.9998 35 17.9224 35 17.8069V9.19307C35 9.07756 35.0738 9.00021 35.1866 9.00021H37.8415ZM61.5659 9C61.6776 9 61.7515 9.07735 61.7515 9.19286V10.6326C61.7515 10.7492 61.6776 10.8255 61.5659 10.8255H57.9461V12.5551H61.2606C61.3723 12.5551 61.4472 12.6324 61.4472 12.7479V14.1877C61.4472 14.3042 61.3723 14.3806 61.2606 14.3806H57.9461V16.1741H61.5779C61.6896 16.1741 61.7644 16.2514 61.7644 16.367V17.8067C61.7644 17.9222 61.6896 17.9996 61.5779 17.9996H56.1243C56.0115 17.9996 55.9377 17.9222 55.9377 17.8067V9.19286C55.9377 9.07735 56.0115 9 56.1243 9H61.5659ZM81.1657 9C81.2775 9 81.3523 9.07735 81.3523 9.19286V10.6326C81.3523 10.7492 81.2775 10.8255 81.1657 10.8255H77.547V12.5551H80.8614C80.9732 12.5551 81.048 12.6324 81.048 12.7479V14.1877C81.048 14.3042 80.9732 14.3806 80.8614 14.3806H77.547V16.1741H81.1787C81.2905 16.1741 81.3653 16.2514 81.3653 16.367V17.8067C81.3653 17.9222 81.2905 17.9996 81.1787 17.9996H75.7251C75.6124 17.9996 75.5376 17.9222 75.5376 17.8067V9.19286C75.5376 9.07735 75.6124 9 75.7251 9H81.1657ZM98.3905 9.00031C101.134 9.00031 101.954 10.01 101.954 12.0346C101.954 14.0653 101.134 15.075 98.3905 15.075H97.1473V17.807C97.1473 17.9225 97.0725 17.9999 96.9608 17.9999H95.3255C95.2137 17.9999 95.1389 17.9225 95.1389 17.807V9.19317C95.1389 9.07766 95.2137 9.00031 95.3255 9.00031H98.3905ZM117.146 9C117.258 9 117.334 9.07735 117.334 9.19286V12.1436L119.677 9.10313C119.74 9.02578 119.814 9 119.901 9H121.847C122.009 9 122.04 9.11654 121.947 9.23206L119.012 12.8439L122.165 17.7686C122.251 17.8965 122.202 17.9996 122.053 17.9996H120.143C120.043 17.9996 119.982 17.9738 119.92 17.8841L117.718 14.4383L117.334 14.921V17.8067C117.334 17.9222 117.258 17.9996 117.146 17.9996H115.511C115.399 17.9996 115.324 17.9222 115.324 17.8067V9.19286C115.324 9.07735 115.399 9 115.511 9H117.146ZM37.8415 10.8257H37.0084V16.1743H37.8415C39.5267 16.1743 40.3728 15.21 40.3728 13.5C40.3728 11.79 39.5267 10.8257 37.8415 10.8257ZM98.5342 10.8258H97.1473V13.2495H98.5342C99.5229 13.2495 100.033 13.0308 100.033 12.0346C100.033 11.0506 99.5229 10.8258 98.5342 10.8258Z" fill="black"/>
</svg>
