<?xml version="1.0" encoding="UTF-8"?>
<svg width="902px" height="150px" viewBox="0 0 902 150" version="1.1" xmlns="http://www.w3.org/2000/svg" xmlns:xlink="http://www.w3.org/1999/xlink">
    <title>deepkit-logo-text</title>
    <g id="deepkit-logo-text" stroke="none" stroke-width="1" fill="none" fill-rule="evenodd">
        <path d="M223.529569,51.0000336 C239.772823,51.0000336 248.505845,61.6970352 248.505845,74.9997927 C248.505845,88.3029985 239.772823,99 223.529569,99 L209.019438,99 C208.407708,99 208,98.5885295 208,97.9713236 L208,52.0282618 C208,51.4115042 208.407708,51.0000336 209.019438,51.0000336 L223.529569,51.0000336 Z M900.980896,51.0000336 C901.592181,51.0000336 902,51.4115042 902,52.0282618 L902,59.708485 C902,60.3256908 901.592181,60.7371613 900.980896,60.7371613 L888.679453,60.7371613 L888.679453,97.9713236 C888.679453,98.5885295 888.271744,99 887.660015,99 L878.722972,99 C878.111243,99 877.703423,98.5885295 877.703423,97.9713236 L877.703423,60.7371613 L865.402091,60.7371613 C864.790362,60.7371613 864.382543,60.3256908 864.382543,59.708485 L864.382543,52.0282618 C864.382543,51.4115042 864.790362,51.0000336 865.402091,51.0000336 L900.980896,51.0000336 Z M353.167899,51.0000112 C353.779628,51.0000112 354.187447,51.4114818 354.187447,52.0282393 L354.187447,59.7084626 C354.187447,60.3256684 353.779628,60.7371389 353.167899,60.7371389 L333.390654,60.7371389 L333.390654,69.9599285 L351.502858,69.9599285 C352.114587,69.9599285 352.521962,70.3712869 352.521962,70.9884928 L352.521962,78.6682677 C352.521962,79.2854736 352.114587,79.6969441 351.502858,79.6969441 L333.390654,79.6969441 L333.390654,89.2628499 L353.235535,89.2628499 C353.847265,89.2628499 354.255084,89.6743204 354.255084,90.2915262 L354.255084,97.9713012 C354.255084,98.588507 353.847265,98.9999776 353.235535,98.9999776 L323.434062,98.9999776 C322.822333,98.9999776 322.414625,98.588507 322.414625,97.9713012 L322.414625,52.0282393 C322.414625,51.4114818 322.822333,51.0000112 323.434062,51.0000112 L353.167899,51.0000112 Z M460.276724,51.0000112 C460.888454,51.0000112 461.296273,51.4114818 461.296273,52.0282393 L461.296273,59.7084626 C461.296273,60.3256684 460.888454,60.7371389 460.276724,60.7371389 L440.49948,60.7371389 L440.49948,69.9599285 L458.611684,69.9599285 C459.223413,69.9599285 459.630788,70.3712869 459.630788,70.9884928 L459.630788,78.6682677 C459.630788,79.2854736 459.223413,79.6969441 458.611684,79.6969441 L440.49948,79.6969441 L440.49948,89.2628499 L460.344361,89.2628499 C460.95609,89.2628499 461.36391,89.6743204 461.36391,90.2915262 L461.36391,97.9713012 C461.36391,98.588507 460.95609,98.9999776 460.344361,98.9999776 L430.542888,98.9999776 C429.931159,98.9999776 429.52345,98.588507 429.52345,97.9713012 L429.52345,52.0282393 C429.52345,51.4114818 429.931159,51.0000112 430.542888,51.0000112 L460.276724,51.0000112 Z M554.404353,51.0000672 C569.390274,51.0000672 573.875732,56.3826891 573.875732,67.1825583 C573.875732,78.0170529 569.390274,83.400123 554.404353,83.400123 L547.60825,83.400123 L547.60825,97.9713573 C547.60825,98.5885631 547.200431,98.9999216 546.588813,98.9999216 L537.651769,98.9999216 C537.04004,98.9999216 536.632221,98.5885631 536.632221,97.9713573 L536.632221,52.0282954 C536.632221,51.4115378 537.04004,51.0000672 537.651769,51.0000672 L554.404353,51.0000672 Z M656.892813,51.0001121 C657.504542,51.0001121 657.912361,51.4114705 657.912361,52.0282281 L657.912361,67.7656318 L670.723023,51.5485153 C671.063206,51.1370448 671.470581,51.0001121 671.946482,51.0001121 L682.582773,51.0001121 C683.466048,51.0001121 683.636195,51.6172058 683.126421,52.2339634 L667.087077,71.5028197 L684.316005,97.7655547 C684.791462,98.451451 684.519471,98.9999664 683.704276,98.9999664 L673.271784,98.9999664 C672.728247,98.9999664 672.388064,98.8629216 672.048436,98.3827606 L660.018984,80.0055358 L657.912361,82.5771147 L657.912361,97.97129 C657.912361,98.5884958 657.504542,98.9999664 656.892813,98.9999664 L647.955325,98.9999664 C647.34404,98.9999664 646.936221,98.5884958 646.936221,97.97129 L646.936221,52.0282281 C646.936221,51.4114705 647.34404,51.0001121 647.955325,51.0001121 L656.892813,51.0001121 Z M790.303772,51 C790.915501,51 791.32332,51.4114705 791.32332,52.0282281 L791.32332,59.7084514 C791.32332,60.3256572 790.915501,60.7371277 790.303772,60.7371277 L779.531652,60.7371277 L779.531652,89.2628387 L790.303772,89.2628387 C790.915501,89.2628387 791.32332,89.6743092 791.32332,90.291515 L791.32332,97.97129 C791.32332,98.5884958 790.915501,98.9999664 790.303772,98.9999664 L757.783502,98.9999664 C757.172217,98.9999664 756.764398,98.5884958 756.764398,97.97129 L756.764398,90.291515 C756.764398,89.6743092 757.172217,89.2628387 757.783502,89.2628387 L768.555622,89.2628387 L768.555622,60.7371277 L757.783502,60.7371277 C757.172217,60.7371277 756.764398,60.3256572 756.764398,59.7084514 L756.764398,52.0282281 C756.764398,51.4114705 757.172217,51 757.783502,51 L790.303772,51 Z M223.529569,60.7371613 L218.97603,60.7371613 L218.97603,89.2628723 L223.529569,89.2628723 C232.738603,89.2628723 237.35978,84.1201628 237.35978,74.9997927 C237.35978,65.8798708 232.738603,60.7371613 223.529569,60.7371613 Z M555.186118,60.7370829 L547.60825,60.7370829 L547.60825,73.6629953 L555.186118,73.6629953 C560.589059,73.6629953 563.375603,72.4969379 563.375603,67.1825583 C563.375603,61.9368691 560.589059,60.7370829 555.186118,60.7370829 Z" id="deepkit" fill="#F9EDDF"></path>
        <path d="M36.25,37.5 L94.25,137.5 L87,150 L72.5,150 L36.25,87.5 L29,100 L58,150 L29,150 L1.27897692e-13,100 L36.25,37.5 Z M58,1.42108547e-14 L116,100 L101.5,125 L43.5,25 L58,1.42108547e-14 Z" id="diamond" fill="#F9EDDF"></path>
    </g>
</svg>
