<svg width="854" height="178" viewBox="0 0 854 178" fill="none" xmlns="http://www.w3.org/2000/svg">
<rect x="1.5" y="58" width="152" height="119" rx="6" fill="#0F0F0F" fill-opacity="0.94"/>
<rect x="1" y="57.5" width="153" height="120" rx="6.5" stroke="#303030" stroke-opacity="0.5"/>
<path d="M43.8047 114V102.625H50.3672V103.883H45.2969V107.461H50.0156V108.727H45.2969V114H43.8047ZM52.3594 114V107.953C52.3594 107.776 52.349 107.523 52.3281 107.195C52.3125 106.867 52.2969 106.583 52.2812 106.344L52.2578 105.984H53.7812L53.7969 107.234C54.2812 106.276 54.9948 105.797 55.9375 105.797C56.2344 105.797 56.5052 105.828 56.75 105.891L56.7422 107.164C56.4349 107.081 56.1406 107.039 55.8594 107.039C55.2448 107.039 54.75 107.255 54.375 107.688C54 108.115 53.8125 108.732 53.8125 109.539V114H52.3594ZM62.1719 114.172C60.875 114.172 59.8594 113.786 59.125 113.016C58.3958 112.245 58.0312 111.24 58.0312 110C58.0312 108.74 58.3984 107.721 59.1328 106.945C59.8724 106.169 60.8906 105.781 62.1875 105.781C63.4792 105.781 64.4844 106.169 65.2031 106.945C65.9219 107.716 66.2812 108.734 66.2812 110C66.2812 111.24 65.9167 112.245 65.1875 113.016C64.4583 113.786 63.4531 114.172 62.1719 114.172ZM62.1719 113C63.0156 113 63.6589 112.727 64.1016 112.18C64.5495 111.633 64.7734 110.906 64.7734 110C64.7734 109.078 64.5469 108.341 64.0938 107.789C63.6458 107.232 63.0026 106.953 62.1641 106.953C61.3203 106.953 60.6719 107.232 60.2188 107.789C59.7656 108.341 59.5391 109.078 59.5391 110C59.5391 110.906 59.763 111.633 60.2109 112.18C60.6641 112.727 61.3177 113 62.1719 113ZM68.4531 114V108.203C68.4531 107.849 68.4453 107.487 68.4297 107.117C68.4193 106.747 68.4062 106.466 68.3906 106.273L68.3672 105.984H69.8516L69.8672 107.242C70.1432 106.784 70.5286 106.427 71.0234 106.172C71.5234 105.911 72.0495 105.781 72.6016 105.781C73.612 105.781 74.3568 106.089 74.8359 106.703C75.3151 107.312 75.5547 108.24 75.5547 109.484V114H74.1172V109.492C74.1172 108.622 73.987 107.982 73.7266 107.57C73.4661 107.159 73.0078 106.953 72.3516 106.953C71.7474 106.953 71.1979 107.159 70.7031 107.57C70.2083 107.977 69.9401 108.445 69.8984 108.977V114H68.4531ZM82.2891 114H81.625C80.4896 113.99 79.7109 113.786 79.2891 113.391C78.8724 112.995 78.6641 112.273 78.6641 111.227V106.945H77.125V105.984H78.6953V103.922L80.1016 103.508V105.984H82.2734V106.945H80.1016V111.305C80.1016 111.591 80.1198 111.823 80.1562 112C80.1979 112.177 80.2604 112.328 80.3438 112.453C80.4271 112.573 80.5599 112.661 80.7422 112.719C80.9245 112.776 81.1302 112.818 81.3594 112.844C81.5885 112.865 81.8984 112.875 82.2891 112.875V114ZM85.3828 109.211H89.9844C89.9323 108.477 89.7188 107.911 89.3438 107.516C88.9688 107.12 88.4688 106.922 87.8438 106.922C87.1875 106.922 86.638 107.125 86.1953 107.531C85.7578 107.938 85.487 108.497 85.3828 109.211ZM88.0234 114.172C86.7474 114.172 85.7344 113.794 84.9844 113.039C84.2344 112.279 83.8594 111.271 83.8594 110.016C83.8594 108.781 84.2188 107.768 84.9375 106.977C85.6615 106.18 86.6172 105.781 87.8047 105.781C88.5547 105.781 89.1953 105.956 89.7266 106.305C90.263 106.654 90.6589 107.128 90.9141 107.727C91.1745 108.326 91.3047 109.021 91.3047 109.812C91.3047 109.911 91.2969 110.039 91.2812 110.195H85.3438C85.3594 111.091 85.6172 111.784 86.1172 112.273C86.6172 112.758 87.2786 113 88.1016 113C89.0599 113 89.9089 112.703 90.6484 112.109L91.0781 113.172C90.2188 113.839 89.2005 114.172 88.0234 114.172ZM93.5625 114V108.203C93.5625 107.849 93.5547 107.487 93.5391 107.117C93.5286 106.747 93.5156 106.466 93.5 106.273L93.4766 105.984H94.9609L94.9766 107.242C95.2526 106.784 95.638 106.427 96.1328 106.172C96.6328 105.911 97.1589 105.781 97.7109 105.781C98.7214 105.781 99.4661 106.089 99.9453 106.703C100.424 107.312 100.664 108.24 100.664 109.484V114H99.2266V109.492C99.2266 108.622 99.0964 107.982 98.8359 107.57C98.5755 107.159 98.1172 106.953 97.4609 106.953C96.8568 106.953 96.3073 107.159 95.8125 107.57C95.3177 107.977 95.0495 108.445 95.0078 108.977V114H93.5625ZM106.562 113C107.349 113 107.956 112.721 108.383 112.164C108.81 111.607 109.023 110.859 109.023 109.922C109.023 109.042 108.807 108.328 108.375 107.781C107.943 107.229 107.346 106.953 106.586 106.953C105.826 106.953 105.234 107.232 104.812 107.789C104.391 108.341 104.18 109.073 104.18 109.984C104.18 110.891 104.385 111.62 104.797 112.172C105.208 112.724 105.797 113 106.562 113ZM106.352 114.172C105.279 114.172 104.398 113.794 103.711 113.039C103.029 112.279 102.688 111.271 102.688 110.016C102.688 109.193 102.833 108.466 103.125 107.836C103.417 107.201 103.846 106.701 104.414 106.336C104.987 105.966 105.659 105.781 106.43 105.781C107.044 105.781 107.581 105.919 108.039 106.195C108.497 106.471 108.815 106.802 108.992 107.188V102.391H110.438V111.922C110.443 112.401 110.461 113.094 110.492 114H109.031L109 112.641C108.839 113.057 108.526 113.417 108.062 113.719C107.604 114.021 107.034 114.172 106.352 114.172ZM17.2197 129.477H19.0723C19.7331 129.477 20.2458 129.347 20.6104 129.087C20.9749 128.823 21.1572 128.383 21.1572 127.768C21.1572 127.517 21.1299 127.3 21.0752 127.118C21.0251 126.931 20.9499 126.776 20.8496 126.653C20.7539 126.53 20.624 126.432 20.46 126.359C20.3005 126.282 20.1204 126.227 19.9199 126.195C19.7194 126.163 19.4824 126.147 19.209 126.147C19.1999 126.147 19.1908 126.147 19.1816 126.147C19.1771 126.147 19.1702 126.147 19.1611 126.147C19.152 126.147 19.1429 126.147 19.1338 126.147H17.2197V129.477ZM15.9209 135V125.047H19.1064C19.5166 125.047 19.8835 125.07 20.207 125.115C20.5306 125.156 20.8405 125.236 21.1367 125.354C21.4375 125.473 21.6859 125.63 21.8818 125.826C22.0778 126.018 22.2327 126.271 22.3467 126.585C22.4652 126.899 22.5244 127.269 22.5244 127.692C22.5244 128.317 22.3649 128.839 22.0459 129.258C21.7269 129.677 21.2415 129.955 20.5898 130.092C20.9635 130.21 21.2575 130.418 21.4717 130.714C21.6904 131.006 21.9115 131.432 22.1348 131.992L23.3037 135H21.9092L20.8154 132.074C20.6605 131.655 20.5169 131.347 20.3848 131.151C20.2572 130.955 20.0885 130.812 19.8789 130.721C19.6693 130.625 19.3799 130.577 19.0107 130.577H17.2266V135H15.9209ZM25.874 130.81H29.9004C29.8548 130.167 29.668 129.673 29.3398 129.326C29.0117 128.98 28.5742 128.807 28.0273 128.807C27.4531 128.807 26.9723 128.984 26.585 129.34C26.2021 129.695 25.9652 130.185 25.874 130.81ZM28.1846 135.15C27.068 135.15 26.1816 134.82 25.5254 134.159C24.8691 133.494 24.541 132.612 24.541 131.514C24.541 130.434 24.8555 129.547 25.4844 128.854C26.1178 128.157 26.9541 127.809 27.9932 127.809C28.6494 127.809 29.21 127.961 29.6748 128.267C30.1442 128.572 30.4906 128.987 30.7139 129.511C30.9417 130.035 31.0557 130.643 31.0557 131.336C31.0557 131.423 31.0488 131.534 31.0352 131.671H25.8398C25.8535 132.455 26.0791 133.061 26.5166 133.489C26.9541 133.913 27.5329 134.125 28.2529 134.125C29.0915 134.125 29.8343 133.865 30.4814 133.346L30.8574 134.275C30.1055 134.859 29.2145 135.15 28.1846 135.15ZM36.0254 134.125C36.7227 134.125 37.2536 133.883 37.6182 133.4C37.9873 132.913 38.1719 132.259 38.1719 131.438C38.1719 130.664 37.985 130.037 37.6113 129.559C37.2376 129.076 36.7044 128.834 36.0117 128.834C35.2826 128.834 34.7266 129.076 34.3438 129.559C33.9655 130.042 33.7764 130.675 33.7764 131.459C33.7764 132.247 33.9678 132.89 34.3506 133.387C34.7334 133.879 35.2917 134.125 36.0254 134.125ZM35.8477 135.15C35.3236 135.15 34.8473 135.052 34.4189 134.856C33.9951 134.66 33.6442 134.396 33.3662 134.063C33.0928 133.726 32.8809 133.339 32.7305 132.901C32.5846 132.459 32.5117 131.99 32.5117 131.493C32.5117 130.81 32.6439 130.192 32.9082 129.641C33.1771 129.085 33.5667 128.64 34.0771 128.308C34.5876 127.975 35.1777 127.809 35.8477 127.809C36.3444 127.809 36.7956 127.929 37.2012 128.171C37.6113 128.412 37.9212 128.722 38.1309 129.101V127.986H39.375V135H38.1172V133.804C37.9167 134.223 37.6182 134.553 37.2217 134.795C36.8252 135.032 36.3672 135.15 35.8477 135.15ZM44.7959 135.15C43.7113 135.15 42.8431 134.813 42.1914 134.139C41.5443 133.46 41.2207 132.591 41.2207 131.534C41.2207 130.427 41.5511 129.529 42.2119 128.841C42.8727 128.153 43.7432 127.809 44.8232 127.809C45.8031 127.809 46.5755 128.087 47.1406 128.643L46.6963 129.477C46.2087 129.053 45.6139 128.841 44.9121 128.841C44.1966 128.841 43.6178 129.076 43.1758 129.545C42.7383 130.01 42.5195 130.671 42.5195 131.527C42.5195 132.32 42.7314 132.951 43.1553 133.421C43.5837 133.89 44.1624 134.125 44.8916 134.125C45.598 134.125 46.236 133.906 46.8057 133.469L47.2021 134.378C46.5368 134.893 45.7347 135.15 44.7959 135.15ZM52.6162 135H52.0352C51.0417 134.991 50.3604 134.813 49.9912 134.467C49.6266 134.12 49.4443 133.489 49.4443 132.573V128.827H48.0977V127.986H49.4717V126.182L50.7021 125.819V127.986H52.6025V128.827H50.7021V132.642C50.7021 132.892 50.7181 133.095 50.75 133.25C50.7865 133.405 50.8411 133.537 50.9141 133.646C50.987 133.751 51.1032 133.829 51.2627 133.879C51.4222 133.929 51.6022 133.965 51.8027 133.988C52.0033 134.007 52.2744 134.016 52.6162 134.016V135ZM54.1543 135L57.7773 125.047H58.9463L55.2959 135H54.1543ZM62.5146 131.274H66.0283C65.4495 129.638 64.8662 128.018 64.2783 126.414C63.6859 128.041 63.098 129.661 62.5146 131.274ZM59.7324 135L63.5947 125.047H64.9893L68.8721 135H67.4434L66.418 132.341H62.1592L61.1543 135H59.7324ZM70.3008 135V129.928C70.3008 129.618 70.2939 129.301 70.2803 128.978C70.2712 128.654 70.2598 128.408 70.2461 128.239L70.2256 127.986H71.5244L71.5381 129.087C71.7796 128.686 72.1169 128.374 72.5498 128.15C72.9873 127.923 73.4476 127.809 73.9307 127.809C74.8148 127.809 75.4665 128.077 75.8857 128.615C76.305 129.148 76.5146 129.96 76.5146 131.049V135H75.2568V131.056C75.2568 130.295 75.1429 129.734 74.915 129.374C74.6872 129.014 74.2861 128.834 73.7119 128.834C73.1833 128.834 72.7025 129.014 72.2695 129.374C71.8366 129.729 71.6019 130.14 71.5654 130.604V135H70.3008ZM81.6553 133.92C82.3662 133.92 82.9062 133.69 83.2754 133.229C83.6445 132.765 83.8291 132.143 83.8291 131.363C83.8291 130.593 83.6445 129.98 83.2754 129.524C82.9108 129.064 82.4004 128.834 81.7441 128.834C81.0742 128.834 80.5479 129.076 80.165 129.559C79.7822 130.042 79.5908 130.675 79.5908 131.459C79.5908 132.238 79.7708 132.844 80.1309 133.277C80.4909 133.706 80.999 133.92 81.6553 133.92ZM81.498 137.857C80.5775 137.857 79.7139 137.659 78.9072 137.263L79.1055 136.176C79.8802 136.618 80.6618 136.839 81.4502 136.839C82.1976 136.839 82.7764 136.638 83.1865 136.237C83.5967 135.836 83.8018 135.23 83.8018 134.419V133.688C83.6058 134.038 83.321 134.33 82.9473 134.562C82.5781 134.79 82.1224 134.904 81.5801 134.904C80.6094 134.904 79.8164 134.597 79.2012 133.981C78.5905 133.362 78.2852 132.525 78.2852 131.473C78.2852 130.757 78.4082 130.126 78.6543 129.579C78.9049 129.032 79.2809 128.602 79.7822 128.287C80.2835 127.968 80.8805 127.809 81.5732 127.809C82.1064 127.809 82.5599 127.923 82.9336 128.15C83.3073 128.378 83.5967 128.67 83.8018 129.025L83.8223 127.986H85.1211C85.071 128.743 85.0459 129.372 85.0459 129.873V134.043C85.0459 134.599 84.9775 135.105 84.8408 135.561C84.7041 136.016 84.4945 136.417 84.2119 136.764C83.9339 137.11 83.5648 137.379 83.1045 137.57C82.6442 137.762 82.1087 137.857 81.498 137.857ZM90.0566 135.157C89.1589 135.157 88.4844 134.902 88.0332 134.392C87.582 133.877 87.3564 133.186 87.3564 132.32V127.986H88.6074V132.32C88.6074 132.922 88.7487 133.375 89.0312 133.681C89.3184 133.981 89.7308 134.132 90.2686 134.132C90.8838 134.132 91.3646 133.956 91.7109 133.605C92.0573 133.255 92.2305 132.801 92.2305 132.245V127.986H93.4883V133.264C93.4883 133.888 93.5088 134.467 93.5498 135H92.2715L92.2373 133.872C92.0413 134.232 91.7633 134.537 91.4033 134.788C91.0433 135.034 90.5944 135.157 90.0566 135.157ZM95.9082 135V124.842H97.166V135H95.9082ZM102.498 134.125C103.195 134.125 103.726 133.883 104.091 133.4C104.46 132.913 104.645 132.259 104.645 131.438C104.645 130.664 104.458 130.037 104.084 129.559C103.71 129.076 103.177 128.834 102.484 128.834C101.755 128.834 101.199 129.076 100.816 129.559C100.438 130.042 100.249 130.675 100.249 131.459C100.249 132.247 100.44 132.89 100.823 133.387C101.206 133.879 101.764 134.125 102.498 134.125ZM102.32 135.15C101.796 135.15 101.32 135.052 100.892 134.856C100.468 134.66 100.117 134.396 99.8389 134.063C99.5654 133.726 99.3535 133.339 99.2031 132.901C99.0573 132.459 98.9844 131.99 98.9844 131.493C98.9844 130.81 99.1165 130.192 99.3809 129.641C99.6497 129.085 100.039 128.64 100.55 128.308C101.06 127.975 101.65 127.809 102.32 127.809C102.817 127.809 103.268 127.929 103.674 128.171C104.084 128.412 104.394 128.722 104.604 129.101V127.986H105.848V135H104.59V133.804C104.389 134.223 104.091 134.553 103.694 134.795C103.298 135.032 102.84 135.15 102.32 135.15ZM108.227 135V129.709C108.227 129.554 108.217 129.333 108.199 129.046C108.186 128.759 108.172 128.51 108.158 128.301L108.138 127.986H109.471L109.484 129.08C109.908 128.242 110.533 127.822 111.357 127.822C111.617 127.822 111.854 127.85 112.068 127.904L112.062 129.019C111.793 128.946 111.535 128.909 111.289 128.909C110.751 128.909 110.318 129.098 109.99 129.477C109.662 129.85 109.498 130.39 109.498 131.097V135H108.227ZM113.354 135L116.977 125.047H118.146L114.495 135H113.354ZM120.743 130.81H124.77C124.724 130.167 124.537 129.673 124.209 129.326C123.881 128.98 123.443 128.807 122.896 128.807C122.322 128.807 121.841 128.984 121.454 129.34C121.071 129.695 120.834 130.185 120.743 130.81ZM123.054 135.15C121.937 135.15 121.051 134.82 120.395 134.159C119.738 133.494 119.41 132.612 119.41 131.514C119.41 130.434 119.725 129.547 120.354 128.854C120.987 128.157 121.823 127.809 122.862 127.809C123.519 127.809 124.079 127.961 124.544 128.267C125.013 128.572 125.36 128.987 125.583 129.511C125.811 130.035 125.925 130.643 125.925 131.336C125.925 131.423 125.918 131.534 125.904 131.671H120.709C120.723 132.455 120.948 133.061 121.386 133.489C121.823 133.913 122.402 134.125 123.122 134.125C123.961 134.125 124.703 133.865 125.351 133.346L125.727 134.275C124.975 134.859 124.084 135.15 123.054 135.15ZM131.503 135H130.922C129.928 134.991 129.247 134.813 128.878 134.467C128.513 134.12 128.331 133.489 128.331 132.573V128.827H126.984V127.986H128.358V126.182L129.589 125.819V127.986H131.489V128.827H129.589V132.642C129.589 132.892 129.605 133.095 129.637 133.25C129.673 133.405 129.728 133.537 129.801 133.646C129.874 133.751 129.99 133.829 130.149 133.879C130.309 133.929 130.489 133.965 130.689 133.988C130.89 134.007 131.161 134.016 131.503 134.016V135ZM136.452 135.15C135.368 135.15 134.499 134.813 133.848 134.139C133.201 133.46 132.877 132.591 132.877 131.534C132.877 130.427 133.207 129.529 133.868 128.841C134.529 128.153 135.399 127.809 136.479 127.809C137.459 127.809 138.232 128.087 138.797 128.643L138.353 129.477C137.865 129.053 137.27 128.841 136.568 128.841C135.853 128.841 135.274 129.076 134.832 129.545C134.395 130.01 134.176 130.671 134.176 131.527C134.176 132.32 134.388 132.951 134.812 133.421C135.24 133.89 135.819 134.125 136.548 134.125C137.254 134.125 137.892 133.906 138.462 133.469L138.858 134.378C138.193 134.893 137.391 135.15 136.452 135.15Z" fill="#B4B4B4"/>
<rect x="178.5" y="58" width="152" height="119" rx="6" fill="#0F0F0F" fill-opacity="0.94"/>
<rect x="178" y="57.5" width="153" height="120" rx="6.5" stroke="#303030" stroke-opacity="0.5"/>
<path d="M220.305 114V103.883H216.672V102.625H225.453V103.883H221.797V114H220.305ZM226.945 114V107.953C226.945 107.776 226.935 107.523 226.914 107.195C226.898 106.867 226.883 106.583 226.867 106.344L226.844 105.984H228.367L228.383 107.234C228.867 106.276 229.581 105.797 230.523 105.797C230.82 105.797 231.091 105.828 231.336 105.891L231.328 107.164C231.021 107.081 230.727 107.039 230.445 107.039C229.831 107.039 229.336 107.255 228.961 107.688C228.586 108.115 228.398 108.732 228.398 109.539V114H226.945ZM236.633 113C237.43 113 238.036 112.724 238.453 112.172C238.875 111.615 239.086 110.867 239.086 109.93C239.086 109.044 238.872 108.328 238.445 107.781C238.018 107.229 237.409 106.953 236.617 106.953C235.784 106.953 235.148 107.229 234.711 107.781C234.279 108.333 234.062 109.057 234.062 109.953C234.062 110.854 234.281 111.589 234.719 112.156C235.156 112.719 235.794 113 236.633 113ZM236.43 114.172C235.831 114.172 235.286 114.06 234.797 113.836C234.312 113.612 233.911 113.31 233.594 112.93C233.281 112.544 233.039 112.102 232.867 111.602C232.701 111.096 232.617 110.56 232.617 109.992C232.617 109.211 232.768 108.505 233.07 107.875C233.378 107.24 233.823 106.732 234.406 106.352C234.99 105.971 235.664 105.781 236.43 105.781C236.997 105.781 237.513 105.919 237.977 106.195C238.445 106.471 238.799 106.826 239.039 107.258V105.984H240.461V114H239.023V112.633C238.794 113.112 238.453 113.49 238 113.766C237.547 114.036 237.023 114.172 236.43 114.172ZM243.164 114V108.203C243.164 107.849 243.156 107.487 243.141 107.117C243.13 106.747 243.117 106.466 243.102 106.273L243.078 105.984H244.562L244.578 107.242C244.854 106.784 245.24 106.427 245.734 106.172C246.234 105.911 246.76 105.781 247.312 105.781C248.323 105.781 249.068 106.089 249.547 106.703C250.026 107.312 250.266 108.24 250.266 109.484V114H248.828V109.492C248.828 108.622 248.698 107.982 248.438 107.57C248.177 107.159 247.719 106.953 247.062 106.953C246.458 106.953 245.909 107.159 245.414 107.57C244.919 107.977 244.651 108.445 244.609 108.977V114H243.164ZM255.547 114.172C254.854 114.172 254.242 114.068 253.711 113.859C253.185 113.651 252.776 113.432 252.484 113.203L252.883 112.133C253.18 112.352 253.557 112.549 254.016 112.727C254.479 112.904 254.951 112.992 255.43 112.992C256.492 112.992 257.023 112.602 257.023 111.82C257.023 111.492 256.904 111.247 256.664 111.086C256.424 110.924 255.958 110.727 255.266 110.492L254.578 110.258C254.312 110.164 254.086 110.076 253.898 109.992C253.716 109.909 253.531 109.805 253.344 109.68C253.156 109.549 253.005 109.411 252.891 109.266C252.776 109.115 252.682 108.935 252.609 108.727C252.542 108.513 252.508 108.273 252.508 108.008C252.508 107.628 252.586 107.292 252.742 107C252.904 106.703 253.122 106.471 253.398 106.305C253.674 106.133 253.979 106.005 254.312 105.922C254.646 105.833 255.005 105.789 255.391 105.789C256.448 105.789 257.339 106.021 258.062 106.484L257.664 107.516C256.961 107.141 256.258 106.953 255.555 106.953C255.039 106.953 254.641 107.042 254.359 107.219C254.078 107.396 253.938 107.646 253.938 107.969C253.938 108.26 254.021 108.477 254.188 108.617C254.359 108.753 254.698 108.911 255.203 109.094C255.656 109.245 255.924 109.336 256.008 109.367C256.336 109.482 256.599 109.581 256.797 109.664C256.995 109.747 257.206 109.859 257.43 110C257.659 110.135 257.833 110.279 257.953 110.43C258.078 110.581 258.18 110.771 258.258 111C258.341 111.224 258.383 111.479 258.383 111.766C258.383 112.193 258.302 112.568 258.141 112.891C257.979 113.208 257.76 113.458 257.484 113.641C257.208 113.818 256.909 113.951 256.586 114.039C256.263 114.128 255.917 114.172 255.547 114.172ZM264.367 113.008C265.122 113.008 265.703 112.729 266.109 112.172C266.521 111.615 266.727 110.88 266.727 109.969C266.727 109.062 266.521 108.336 266.109 107.789C265.703 107.237 265.125 106.961 264.375 106.961C263.604 106.961 263 107.247 262.562 107.82C262.13 108.388 261.914 109.138 261.914 110.07C261.914 110.956 262.128 111.667 262.555 112.203C262.982 112.74 263.586 113.008 264.367 113.008ZM260.523 117.344V108.312C260.523 107.964 260.495 107.188 260.438 105.984H261.945L261.953 107.422C262.104 106.979 262.432 106.596 262.938 106.273C263.443 105.951 264.01 105.789 264.641 105.789C265.724 105.789 266.591 106.174 267.242 106.945C267.893 107.716 268.219 108.708 268.219 109.922C268.219 111.156 267.888 112.174 267.227 112.977C266.57 113.779 265.698 114.18 264.609 114.18C263.974 114.18 263.409 114.031 262.914 113.734C262.419 113.438 262.099 113.094 261.953 112.703V117.344H260.523ZM273.945 114.172C272.648 114.172 271.633 113.786 270.898 113.016C270.169 112.245 269.805 111.24 269.805 110C269.805 108.74 270.172 107.721 270.906 106.945C271.646 106.169 272.664 105.781 273.961 105.781C275.253 105.781 276.258 106.169 276.977 106.945C277.695 107.716 278.055 108.734 278.055 110C278.055 111.24 277.69 112.245 276.961 113.016C276.232 113.786 275.227 114.172 273.945 114.172ZM273.945 113C274.789 113 275.432 112.727 275.875 112.18C276.323 111.633 276.547 110.906 276.547 110C276.547 109.078 276.32 108.341 275.867 107.789C275.419 107.232 274.776 106.953 273.938 106.953C273.094 106.953 272.445 107.232 271.992 107.789C271.539 108.341 271.312 109.078 271.312 110C271.312 110.906 271.536 111.633 271.984 112.18C272.438 112.727 273.091 113 273.945 113ZM280.242 114V107.953C280.242 107.776 280.232 107.523 280.211 107.195C280.195 106.867 280.18 106.583 280.164 106.344L280.141 105.984H281.664L281.68 107.234C282.164 106.276 282.878 105.797 283.82 105.797C284.117 105.797 284.388 105.828 284.633 105.891L284.625 107.164C284.318 107.081 284.023 107.039 283.742 107.039C283.128 107.039 282.633 107.255 282.258 107.688C281.883 108.115 281.695 108.732 281.695 109.539V114H280.242ZM290.625 114H289.961C288.826 113.99 288.047 113.786 287.625 113.391C287.208 112.995 287 112.273 287 111.227V106.945H285.461V105.984H287.031V103.922L288.438 103.508V105.984H290.609V106.945H288.438V111.305C288.438 111.591 288.456 111.823 288.492 112C288.534 112.177 288.596 112.328 288.68 112.453C288.763 112.573 288.896 112.661 289.078 112.719C289.26 112.776 289.466 112.818 289.695 112.844C289.924 112.865 290.234 112.875 290.625 112.875V114ZM221.051 135V125.047H222.363V129.347H227.647V125.047H228.946V135H227.654V130.447H222.363V135H221.051ZM233.581 135V126.147H230.402V125.047H238.086V126.147H234.887V135H233.581ZM241.415 135V126.147H238.236V125.047H245.92V126.147H242.721V135H241.415ZM248.688 129.388H250.5C251.288 129.388 251.872 129.269 252.25 129.032C252.628 128.795 252.817 128.378 252.817 127.781C252.817 127.558 252.795 127.362 252.749 127.193C252.703 127.02 252.631 126.874 252.53 126.756C252.435 126.633 252.321 126.533 252.188 126.455C252.061 126.373 251.901 126.312 251.71 126.271C251.523 126.225 251.325 126.193 251.115 126.175C250.91 126.157 250.671 126.147 250.397 126.147C250.388 126.147 250.379 126.147 250.37 126.147C250.361 126.147 250.352 126.147 250.343 126.147C250.338 126.147 250.331 126.147 250.322 126.147C250.313 126.147 250.304 126.147 250.295 126.147C250.29 126.147 250.284 126.147 250.274 126.147H248.688V129.388ZM247.383 135V125.047H250.247C250.748 125.047 251.184 125.067 251.553 125.108C251.926 125.149 252.284 125.229 252.626 125.348C252.968 125.466 253.243 125.626 253.453 125.826C253.667 126.022 253.836 126.284 253.959 126.612C254.087 126.94 254.15 127.328 254.15 127.774C254.15 128.276 254.068 128.704 253.904 129.06C253.74 129.415 253.496 129.695 253.173 129.9C252.854 130.105 252.478 130.256 252.045 130.352C251.612 130.443 251.104 130.488 250.521 130.488H248.688V135H247.383ZM255.47 135L259.093 125.047H260.262L256.611 135H255.47ZM263.516 129.477H265.368C266.029 129.477 266.542 129.347 266.906 129.087C267.271 128.823 267.453 128.383 267.453 127.768C267.453 127.517 267.426 127.3 267.371 127.118C267.321 126.931 267.246 126.776 267.146 126.653C267.05 126.53 266.92 126.432 266.756 126.359C266.596 126.282 266.416 126.227 266.216 126.195C266.015 126.163 265.778 126.147 265.505 126.147C265.496 126.147 265.487 126.147 265.478 126.147C265.473 126.147 265.466 126.147 265.457 126.147C265.448 126.147 265.439 126.147 265.43 126.147H263.516V129.477ZM262.217 135V125.047H265.402C265.812 125.047 266.179 125.07 266.503 125.115C266.826 125.156 267.136 125.236 267.433 125.354C267.733 125.473 267.982 125.63 268.178 125.826C268.374 126.018 268.529 126.271 268.643 126.585C268.761 126.899 268.82 127.269 268.82 127.692C268.82 128.317 268.661 128.839 268.342 129.258C268.023 129.677 267.537 129.955 266.886 130.092C267.259 130.21 267.553 130.418 267.768 130.714C267.986 131.006 268.207 131.432 268.431 131.992L269.6 135H268.205L267.111 132.074C266.956 131.655 266.813 131.347 266.681 131.151C266.553 130.955 266.384 130.812 266.175 130.721C265.965 130.625 265.676 130.577 265.307 130.577H263.522V135H262.217ZM272.833 129.388H274.645C275.433 129.388 276.016 129.269 276.395 129.032C276.773 128.795 276.962 128.378 276.962 127.781C276.962 127.558 276.939 127.362 276.894 127.193C276.848 127.02 276.775 126.874 276.675 126.756C276.579 126.633 276.465 126.533 276.333 126.455C276.205 126.373 276.046 126.312 275.854 126.271C275.668 126.225 275.469 126.193 275.26 126.175C275.055 126.157 274.815 126.147 274.542 126.147C274.533 126.147 274.524 126.147 274.515 126.147C274.506 126.147 274.496 126.147 274.487 126.147C274.483 126.147 274.476 126.147 274.467 126.147C274.458 126.147 274.449 126.147 274.439 126.147C274.435 126.147 274.428 126.147 274.419 126.147H272.833V129.388ZM271.527 135V125.047H274.392C274.893 125.047 275.328 125.067 275.697 125.108C276.071 125.149 276.429 125.229 276.771 125.348C277.112 125.466 277.388 125.626 277.598 125.826C277.812 126.022 277.98 126.284 278.104 126.612C278.231 126.94 278.295 127.328 278.295 127.774C278.295 128.276 278.213 128.704 278.049 129.06C277.885 129.415 277.641 129.695 277.317 129.9C276.998 130.105 276.622 130.256 276.189 130.352C275.757 130.443 275.248 130.488 274.665 130.488H272.833V135H271.527ZM284.393 135.15C283.732 135.15 283.107 135.041 282.52 134.822C281.932 134.599 281.412 134.282 280.961 133.872C280.51 133.457 280.152 132.926 279.888 132.279C279.623 131.632 279.491 130.908 279.491 130.105C279.491 129.331 279.614 128.615 279.86 127.959C280.111 127.298 280.453 126.744 280.886 126.298C281.319 125.847 281.831 125.496 282.424 125.245C283.021 124.994 283.661 124.869 284.345 124.869C285.598 124.869 286.642 125.211 287.476 125.895L286.956 126.783C286.222 126.241 285.384 125.97 284.44 125.97C283.729 125.97 283.101 126.152 282.554 126.517C282.007 126.877 281.588 127.369 281.296 127.993C281.009 128.618 280.865 129.317 280.865 130.092C280.865 131.299 281.198 132.261 281.863 132.977C282.533 133.692 283.397 134.05 284.454 134.05C285.457 134.05 286.396 133.722 287.271 133.065L287.708 134.104C286.756 134.802 285.65 135.15 284.393 135.15Z" fill="#B4B4B4"/>
<rect x="527.5" y="58" width="152" height="119" rx="6" fill="#0F0F0F" fill-opacity="0.94"/>
<rect x="527" y="57.5" width="153" height="120" rx="6.5" stroke="#303030" stroke-opacity="0.5"/>
<path d="M572.945 107.438H574.922C576.599 107.438 577.438 106.818 577.438 105.578C577.438 104.938 577.208 104.495 576.75 104.25C576.292 104.005 575.599 103.883 574.672 103.883H572.945V107.438ZM572.953 112.727H575.25C576.13 112.727 576.802 112.555 577.266 112.211C577.734 111.867 577.969 111.372 577.969 110.727C577.969 109.966 577.745 109.435 577.297 109.133C576.854 108.826 576.104 108.672 575.047 108.672H572.953V112.727ZM571.453 114V102.625H574.461C574.799 102.625 575.112 102.635 575.398 102.656C575.69 102.672 575.995 102.706 576.312 102.758C576.63 102.805 576.914 102.87 577.164 102.953C577.419 103.036 577.664 103.151 577.898 103.297C578.138 103.438 578.336 103.604 578.492 103.797C578.648 103.984 578.773 104.216 578.867 104.492C578.961 104.763 579.008 105.065 579.008 105.398C579.008 106.029 578.849 106.565 578.531 107.008C578.219 107.451 577.753 107.758 577.133 107.93C577.898 108.06 578.492 108.375 578.914 108.875C579.341 109.375 579.555 110.005 579.555 110.766C579.555 111.703 579.203 112.477 578.5 113.086C577.797 113.695 576.794 114 575.492 114H571.453ZM585.273 113C586.07 113 586.677 112.724 587.094 112.172C587.516 111.615 587.727 110.867 587.727 109.93C587.727 109.044 587.513 108.328 587.086 107.781C586.659 107.229 586.049 106.953 585.258 106.953C584.424 106.953 583.789 107.229 583.352 107.781C582.919 108.333 582.703 109.057 582.703 109.953C582.703 110.854 582.922 111.589 583.359 112.156C583.797 112.719 584.435 113 585.273 113ZM585.07 114.172C584.471 114.172 583.927 114.06 583.438 113.836C582.953 113.612 582.552 113.31 582.234 112.93C581.922 112.544 581.68 112.102 581.508 111.602C581.341 111.096 581.258 110.56 581.258 109.992C581.258 109.211 581.409 108.505 581.711 107.875C582.018 107.24 582.464 106.732 583.047 106.352C583.63 105.971 584.305 105.781 585.07 105.781C585.638 105.781 586.154 105.919 586.617 106.195C587.086 106.471 587.44 106.826 587.68 107.258V105.984H589.102V114H587.664V112.633C587.435 113.112 587.094 113.49 586.641 113.766C586.188 114.036 585.664 114.172 585.07 114.172ZM595.297 114.172C594.057 114.172 593.065 113.786 592.32 113.016C591.581 112.24 591.211 111.247 591.211 110.039C591.211 108.773 591.589 107.747 592.344 106.961C593.099 106.174 594.094 105.781 595.328 105.781C596.448 105.781 597.331 106.099 597.977 106.734L597.469 107.688C596.911 107.203 596.232 106.961 595.43 106.961C594.612 106.961 593.951 107.229 593.445 107.766C592.945 108.297 592.695 109.052 592.695 110.031C592.695 110.938 592.938 111.659 593.422 112.195C593.911 112.732 594.573 113 595.406 113C596.214 113 596.943 112.75 597.594 112.25L598.047 113.289C597.286 113.878 596.37 114.172 595.297 114.172ZM600.094 114V102.391H601.531V109.414L605.008 105.984H606.977L602.914 109.805L607.258 114H605.352L601.531 110.211V114H600.094ZM609.734 109.211H614.336C614.284 108.477 614.07 107.911 613.695 107.516C613.32 107.12 612.82 106.922 612.195 106.922C611.539 106.922 610.99 107.125 610.547 107.531C610.109 107.938 609.839 108.497 609.734 109.211ZM612.375 114.172C611.099 114.172 610.086 113.794 609.336 113.039C608.586 112.279 608.211 111.271 608.211 110.016C608.211 108.781 608.57 107.768 609.289 106.977C610.013 106.18 610.969 105.781 612.156 105.781C612.906 105.781 613.547 105.956 614.078 106.305C614.615 106.654 615.01 107.128 615.266 107.727C615.526 108.326 615.656 109.021 615.656 109.812C615.656 109.911 615.648 110.039 615.633 110.195H609.695C609.711 111.091 609.969 111.784 610.469 112.273C610.969 112.758 611.63 113 612.453 113C613.411 113 614.26 112.703 615 112.109L615.43 113.172C614.57 113.839 613.552 114.172 612.375 114.172ZM617.914 114V108.203C617.914 107.849 617.906 107.487 617.891 107.117C617.88 106.747 617.867 106.466 617.852 106.273L617.828 105.984H619.312L619.328 107.242C619.604 106.784 619.99 106.427 620.484 106.172C620.984 105.911 621.51 105.781 622.062 105.781C623.073 105.781 623.818 106.089 624.297 106.703C624.776 107.312 625.016 108.24 625.016 109.484V114H623.578V109.492C623.578 108.622 623.448 107.982 623.188 107.57C622.927 107.159 622.469 106.953 621.812 106.953C621.208 106.953 620.659 107.159 620.164 107.57C619.669 107.977 619.401 108.445 619.359 108.977V114H617.914ZM630.914 113C631.701 113 632.307 112.721 632.734 112.164C633.161 111.607 633.375 110.859 633.375 109.922C633.375 109.042 633.159 108.328 632.727 107.781C632.294 107.229 631.698 106.953 630.938 106.953C630.177 106.953 629.586 107.232 629.164 107.789C628.742 108.341 628.531 109.073 628.531 109.984C628.531 110.891 628.737 111.62 629.148 112.172C629.56 112.724 630.148 113 630.914 113ZM630.703 114.172C629.63 114.172 628.75 113.794 628.062 113.039C627.38 112.279 627.039 111.271 627.039 110.016C627.039 109.193 627.185 108.466 627.477 107.836C627.768 107.201 628.198 106.701 628.766 106.336C629.339 105.966 630.01 105.781 630.781 105.781C631.396 105.781 631.932 105.919 632.391 106.195C632.849 106.471 633.167 106.802 633.344 107.188V102.391H634.789V111.922C634.794 112.401 634.812 113.094 634.844 114H633.383L633.352 112.641C633.19 113.057 632.878 113.417 632.414 113.719C631.956 114.021 631.385 114.172 630.703 114.172ZM558.908 129.258H560.638C562.105 129.258 562.839 128.715 562.839 127.631C562.839 127.07 562.638 126.683 562.237 126.469C561.836 126.255 561.23 126.147 560.419 126.147H558.908V129.258ZM558.915 133.886H560.925C561.695 133.886 562.283 133.735 562.688 133.435C563.099 133.134 563.304 132.701 563.304 132.136C563.304 131.47 563.108 131.006 562.716 130.741C562.328 130.472 561.672 130.338 560.747 130.338H558.915V133.886ZM557.603 135V125.047H560.234C560.531 125.047 560.804 125.056 561.055 125.074C561.31 125.088 561.576 125.118 561.854 125.163C562.132 125.204 562.381 125.261 562.6 125.334C562.823 125.407 563.037 125.507 563.242 125.635C563.452 125.758 563.625 125.904 563.762 126.072C563.898 126.236 564.008 126.439 564.09 126.681C564.172 126.918 564.213 127.182 564.213 127.474C564.213 128.025 564.074 128.494 563.796 128.882C563.522 129.269 563.115 129.538 562.572 129.688C563.242 129.802 563.762 130.078 564.131 130.516C564.505 130.953 564.691 131.505 564.691 132.17C564.691 132.99 564.384 133.667 563.769 134.2C563.153 134.733 562.276 135 561.137 135H557.603ZM569.285 135.157C568.387 135.157 567.713 134.902 567.262 134.392C566.811 133.877 566.585 133.186 566.585 132.32V127.986H567.836V132.32C567.836 132.922 567.977 133.375 568.26 133.681C568.547 133.981 568.959 134.132 569.497 134.132C570.112 134.132 570.593 133.956 570.939 133.605C571.286 133.255 571.459 132.801 571.459 132.245V127.986H572.717V133.264C572.717 133.888 572.737 134.467 572.778 135H571.5L571.466 133.872C571.27 134.232 570.992 134.537 570.632 134.788C570.272 135.034 569.823 135.157 569.285 135.157ZM577.468 135.15C576.862 135.15 576.326 135.059 575.861 134.877C575.401 134.695 575.043 134.503 574.788 134.303L575.137 133.366C575.396 133.558 575.727 133.731 576.128 133.886C576.534 134.041 576.946 134.118 577.365 134.118C578.295 134.118 578.76 133.776 578.76 133.093C578.76 132.806 578.655 132.591 578.445 132.45C578.236 132.309 577.828 132.136 577.222 131.931L576.62 131.726C576.388 131.644 576.189 131.566 576.025 131.493C575.866 131.42 575.704 131.329 575.54 131.22C575.376 131.106 575.244 130.985 575.144 130.857C575.043 130.725 574.961 130.568 574.897 130.386C574.838 130.199 574.809 129.989 574.809 129.757C574.809 129.424 574.877 129.13 575.014 128.875C575.155 128.615 575.346 128.412 575.588 128.267C575.829 128.116 576.096 128.005 576.388 127.932C576.679 127.854 576.994 127.815 577.331 127.815C578.256 127.815 579.035 128.018 579.669 128.424L579.32 129.326C578.705 128.998 578.09 128.834 577.475 128.834C577.023 128.834 576.675 128.911 576.429 129.066C576.183 129.221 576.06 129.44 576.06 129.723C576.06 129.978 576.132 130.167 576.278 130.29C576.429 130.409 576.725 130.548 577.167 130.707C577.563 130.839 577.798 130.919 577.871 130.946C578.158 131.047 578.388 131.133 578.562 131.206C578.735 131.279 578.919 131.377 579.115 131.5C579.316 131.618 579.468 131.744 579.573 131.876C579.683 132.008 579.771 132.174 579.84 132.375C579.913 132.571 579.949 132.794 579.949 133.045C579.949 133.419 579.879 133.747 579.737 134.029C579.596 134.307 579.405 134.526 579.163 134.686C578.922 134.84 578.66 134.957 578.377 135.034C578.094 135.112 577.791 135.15 577.468 135.15ZM581.795 126.216V125.047H583.039V126.216H581.795ZM581.788 135V127.986H583.039V135H581.788ZM585.377 135V129.928C585.377 129.618 585.37 129.301 585.356 128.978C585.347 128.654 585.336 128.408 585.322 128.239L585.302 127.986H586.601L586.614 129.087C586.856 128.686 587.193 128.374 587.626 128.15C588.063 127.923 588.524 127.809 589.007 127.809C589.891 127.809 590.543 128.077 590.962 128.615C591.381 129.148 591.591 129.96 591.591 131.049V135H590.333V131.056C590.333 130.295 590.219 129.734 589.991 129.374C589.763 129.014 589.362 128.834 588.788 128.834C588.259 128.834 587.779 129.014 587.346 129.374C586.913 129.729 586.678 130.14 586.642 130.604V135H585.377ZM594.694 130.81H598.721C598.675 130.167 598.488 129.673 598.16 129.326C597.832 128.98 597.395 128.807 596.848 128.807C596.273 128.807 595.793 128.984 595.405 129.34C595.022 129.695 594.785 130.185 594.694 130.81ZM597.005 135.15C595.888 135.15 595.002 134.82 594.346 134.159C593.689 133.494 593.361 132.612 593.361 131.514C593.361 130.434 593.676 129.547 594.305 128.854C594.938 128.157 595.774 127.809 596.813 127.809C597.47 127.809 598.03 127.961 598.495 128.267C598.965 128.572 599.311 128.987 599.534 129.511C599.762 130.035 599.876 130.643 599.876 131.336C599.876 131.423 599.869 131.534 599.855 131.671H594.66C594.674 132.455 594.899 133.061 595.337 133.489C595.774 133.913 596.353 134.125 597.073 134.125C597.912 134.125 598.655 133.865 599.302 133.346L599.678 134.275C598.926 134.859 598.035 135.15 597.005 135.15ZM604.183 135.15C603.576 135.15 603.041 135.059 602.576 134.877C602.116 134.695 601.758 134.503 601.503 134.303L601.852 133.366C602.111 133.558 602.442 133.731 602.843 133.886C603.248 134.041 603.661 134.118 604.08 134.118C605.01 134.118 605.475 133.776 605.475 133.093C605.475 132.806 605.37 132.591 605.16 132.45C604.951 132.309 604.543 132.136 603.937 131.931L603.335 131.726C603.103 131.644 602.904 131.566 602.74 131.493C602.581 131.42 602.419 131.329 602.255 131.22C602.091 131.106 601.959 130.985 601.858 130.857C601.758 130.725 601.676 130.568 601.612 130.386C601.553 130.199 601.523 129.989 601.523 129.757C601.523 129.424 601.592 129.13 601.729 128.875C601.87 128.615 602.061 128.412 602.303 128.267C602.544 128.116 602.811 128.005 603.103 127.932C603.394 127.854 603.709 127.815 604.046 127.815C604.971 127.815 605.75 128.018 606.384 128.424L606.035 129.326C605.42 128.998 604.805 128.834 604.189 128.834C603.738 128.834 603.39 128.911 603.144 129.066C602.897 129.221 602.774 129.44 602.774 129.723C602.774 129.978 602.847 130.167 602.993 130.29C603.144 130.409 603.44 130.548 603.882 130.707C604.278 130.839 604.513 130.919 604.586 130.946C604.873 131.047 605.103 131.133 605.276 131.206C605.45 131.279 605.634 131.377 605.83 131.5C606.031 131.618 606.183 131.744 606.288 131.876C606.397 132.008 606.486 132.174 606.555 132.375C606.628 132.571 606.664 132.794 606.664 133.045C606.664 133.419 606.593 133.747 606.452 134.029C606.311 134.307 606.119 134.526 605.878 134.686C605.636 134.84 605.374 134.957 605.092 135.034C604.809 135.112 604.506 135.15 604.183 135.15ZM610.868 135.15C610.262 135.15 609.727 135.059 609.262 134.877C608.801 134.695 608.444 134.503 608.188 134.303L608.537 133.366C608.797 133.558 609.127 133.731 609.528 133.886C609.934 134.041 610.346 134.118 610.766 134.118C611.695 134.118 612.16 133.776 612.16 133.093C612.16 132.806 612.055 132.591 611.846 132.45C611.636 132.309 611.228 132.136 610.622 131.931L610.021 131.726C609.788 131.644 609.59 131.566 609.426 131.493C609.266 131.42 609.104 131.329 608.94 131.22C608.776 131.106 608.644 130.985 608.544 130.857C608.444 130.725 608.362 130.568 608.298 130.386C608.239 130.199 608.209 129.989 608.209 129.757C608.209 129.424 608.277 129.13 608.414 128.875C608.555 128.615 608.747 128.412 608.988 128.267C609.23 128.116 609.496 128.005 609.788 127.932C610.08 127.854 610.394 127.815 610.731 127.815C611.657 127.815 612.436 128.018 613.069 128.424L612.721 129.326C612.105 128.998 611.49 128.834 610.875 128.834C610.424 128.834 610.075 128.911 609.829 129.066C609.583 129.221 609.46 129.44 609.46 129.723C609.46 129.978 609.533 130.167 609.679 130.29C609.829 130.409 610.125 130.548 610.567 130.707C610.964 130.839 611.199 130.919 611.271 130.946C611.559 131.047 611.789 131.133 611.962 131.206C612.135 131.279 612.32 131.377 612.516 131.5C612.716 131.618 612.869 131.744 612.974 131.876C613.083 132.008 613.172 132.174 613.24 132.375C613.313 132.571 613.35 132.794 613.35 133.045C613.35 133.419 613.279 133.747 613.138 134.029C612.996 134.307 612.805 134.526 612.563 134.686C612.322 134.84 612.06 134.957 611.777 135.034C611.495 135.112 611.192 135.15 610.868 135.15ZM619.297 135V124.842H620.555V135H619.297ZM625.996 135.15C624.861 135.15 623.973 134.813 623.33 134.139C622.692 133.464 622.373 132.585 622.373 131.5C622.373 130.397 622.694 129.506 623.337 128.827C623.984 128.148 624.875 127.809 626.01 127.809C627.14 127.809 628.02 128.148 628.648 128.827C629.277 129.502 629.592 130.393 629.592 131.5C629.592 132.585 629.273 133.464 628.635 134.139C627.997 134.813 627.117 135.15 625.996 135.15ZM625.996 134.125C626.734 134.125 627.297 133.886 627.685 133.407C628.076 132.929 628.272 132.293 628.272 131.5C628.272 130.693 628.074 130.049 627.678 129.565C627.286 129.078 626.723 128.834 625.989 128.834C625.251 128.834 624.684 129.078 624.287 129.565C623.891 130.049 623.692 130.693 623.692 131.5C623.692 132.293 623.888 132.929 624.28 133.407C624.677 133.886 625.249 134.125 625.996 134.125ZM634.343 133.92C635.054 133.92 635.594 133.69 635.963 133.229C636.332 132.765 636.517 132.143 636.517 131.363C636.517 130.593 636.332 129.98 635.963 129.524C635.598 129.064 635.088 128.834 634.432 128.834C633.762 128.834 633.235 129.076 632.853 129.559C632.47 130.042 632.278 130.675 632.278 131.459C632.278 132.238 632.458 132.844 632.818 133.277C633.178 133.706 633.687 133.92 634.343 133.92ZM634.186 137.857C633.265 137.857 632.401 137.659 631.595 137.263L631.793 136.176C632.568 136.618 633.349 136.839 634.138 136.839C634.885 136.839 635.464 136.638 635.874 136.237C636.284 135.836 636.489 135.23 636.489 134.419V133.688C636.293 134.038 636.008 134.33 635.635 134.562C635.266 134.79 634.81 134.904 634.268 134.904C633.297 134.904 632.504 134.597 631.889 133.981C631.278 133.362 630.973 132.525 630.973 131.473C630.973 130.757 631.096 130.126 631.342 129.579C631.592 129.032 631.968 128.602 632.47 128.287C632.971 127.968 633.568 127.809 634.261 127.809C634.794 127.809 635.247 127.923 635.621 128.15C635.995 128.378 636.284 128.67 636.489 129.025L636.51 127.986H637.809C637.758 128.743 637.733 129.372 637.733 129.873V134.043C637.733 134.599 637.665 135.105 637.528 135.561C637.392 136.016 637.182 136.417 636.899 136.764C636.621 137.11 636.252 137.379 635.792 137.57C635.332 137.762 634.796 137.857 634.186 137.857ZM640.133 126.216V125.047H641.377V126.216H640.133ZM640.126 135V127.986H641.377V135H640.126ZM646.771 135.15C645.686 135.15 644.818 134.813 644.166 134.139C643.519 133.46 643.195 132.591 643.195 131.534C643.195 130.427 643.526 129.529 644.187 128.841C644.847 128.153 645.718 127.809 646.798 127.809C647.778 127.809 648.55 128.087 649.115 128.643L648.671 129.477C648.183 129.053 647.589 128.841 646.887 128.841C646.171 128.841 645.592 129.076 645.15 129.545C644.713 130.01 644.494 130.671 644.494 131.527C644.494 132.32 644.706 132.951 645.13 133.421C645.558 133.89 646.137 134.125 646.866 134.125C647.573 134.125 648.211 133.906 648.78 133.469L649.177 134.378C648.511 134.893 647.709 135.15 646.771 135.15Z" fill="#B4B4B4"/>
<rect x="355.5" y="58" width="152" height="119" rx="6" fill="#0F0F0F" fill-opacity="0.94"/>
<rect x="355" y="57.5" width="153" height="120" rx="6.5" stroke="#303030" stroke-opacity="0.5"/>
<path d="M377.039 125V113.625H378.852C378.982 113.927 379.568 115.266 380.609 117.641C381.651 120.01 382.44 121.82 382.977 123.07C383.513 121.815 384.305 120.003 385.352 117.633C386.404 115.263 386.997 113.927 387.133 113.625H388.906V125H387.484V116.055C386.974 117.232 386.229 118.911 385.25 121.094C384.276 123.271 383.695 124.573 383.508 125H382.438L379.062 117.398L378.477 115.992V125H377.039ZM391.844 114.961V113.625H393.266V114.961H391.844ZM391.836 125V116.984H393.266V125H391.836ZM399.43 125.172C398.19 125.172 397.198 124.786 396.453 124.016C395.714 123.24 395.344 122.247 395.344 121.039C395.344 119.773 395.721 118.747 396.477 117.961C397.232 117.174 398.227 116.781 399.461 116.781C400.581 116.781 401.464 117.099 402.109 117.734L401.602 118.688C401.044 118.203 400.365 117.961 399.562 117.961C398.745 117.961 398.083 118.229 397.578 118.766C397.078 119.297 396.828 120.052 396.828 121.031C396.828 121.938 397.07 122.659 397.555 123.195C398.044 123.732 398.706 124 399.539 124C400.346 124 401.076 123.75 401.727 123.25L402.18 124.289C401.419 124.878 400.503 125.172 399.43 125.172ZM404.266 125V118.953C404.266 118.776 404.255 118.523 404.234 118.195C404.219 117.867 404.203 117.583 404.188 117.344L404.164 116.984H405.688L405.703 118.234C406.188 117.276 406.901 116.797 407.844 116.797C408.141 116.797 408.411 116.828 408.656 116.891L408.648 118.164C408.341 118.081 408.047 118.039 407.766 118.039C407.151 118.039 406.656 118.255 406.281 118.688C405.906 119.115 405.719 119.732 405.719 120.539V125H404.266ZM414.078 125.172C412.781 125.172 411.766 124.786 411.031 124.016C410.302 123.245 409.938 122.24 409.938 121C409.938 119.74 410.305 118.721 411.039 117.945C411.779 117.169 412.797 116.781 414.094 116.781C415.385 116.781 416.391 117.169 417.109 117.945C417.828 118.716 418.188 119.734 418.188 121C418.188 122.24 417.823 123.245 417.094 124.016C416.365 124.786 415.359 125.172 414.078 125.172ZM414.078 124C414.922 124 415.565 123.727 416.008 123.18C416.456 122.633 416.68 121.906 416.68 121C416.68 120.078 416.453 119.341 416 118.789C415.552 118.232 414.909 117.953 414.07 117.953C413.227 117.953 412.578 118.232 412.125 118.789C411.672 119.341 411.445 120.078 411.445 121C411.445 121.906 411.669 122.633 412.117 123.18C412.57 123.727 413.224 124 414.078 124ZM419.453 121.195V120.086H423.797V121.195H419.453ZM428.977 123.914C429.289 123.914 429.57 123.885 429.82 123.828C430.076 123.771 430.297 123.69 430.484 123.586C430.672 123.477 430.828 123.344 430.953 123.188C431.083 123.026 431.18 122.844 431.242 122.641C431.305 122.432 431.336 122.203 431.336 121.953C431.336 121.682 431.307 121.456 431.25 121.273C431.193 121.086 431.083 120.909 430.922 120.742C430.76 120.576 430.539 120.427 430.258 120.297C429.982 120.161 429.615 120.023 429.156 119.883C429.109 119.867 428.995 119.836 428.812 119.789C428.635 119.737 428.518 119.701 428.461 119.68C427.372 119.367 426.578 118.971 426.078 118.492C425.583 118.013 425.336 117.323 425.336 116.422C425.336 115.781 425.503 115.232 425.836 114.773C426.169 114.315 426.615 113.977 427.172 113.758C427.734 113.534 428.38 113.422 429.109 113.422C430.646 113.422 431.815 113.818 432.617 114.609L431.875 115.617C431.609 115.357 431.25 115.135 430.797 114.953C430.344 114.771 429.841 114.68 429.289 114.68C428.57 114.68 427.995 114.823 427.562 115.109C427.135 115.396 426.922 115.818 426.922 116.375C426.922 116.75 426.971 117.047 427.07 117.266C427.174 117.484 427.359 117.674 427.625 117.836C427.896 117.997 428.302 118.164 428.844 118.336C428.854 118.341 428.951 118.37 429.133 118.422C429.32 118.474 429.445 118.508 429.508 118.523C430.174 118.721 430.721 118.927 431.148 119.141C431.581 119.354 431.927 119.602 432.188 119.883C432.448 120.159 432.63 120.464 432.734 120.797C432.839 121.13 432.891 121.531 432.891 122C432.891 122.526 432.789 122.995 432.586 123.406C432.388 123.812 432.112 124.143 431.758 124.398C431.404 124.654 430.997 124.846 430.539 124.977C430.081 125.107 429.581 125.172 429.039 125.172C428.19 125.172 427.43 125.034 426.758 124.758C426.091 124.477 425.604 124.188 425.297 123.891L425.961 122.812C426.294 123.078 426.732 123.328 427.273 123.562C427.815 123.797 428.383 123.914 428.977 123.914ZM436.086 120.211H440.688C440.635 119.477 440.422 118.911 440.047 118.516C439.672 118.12 439.172 117.922 438.547 117.922C437.891 117.922 437.341 118.125 436.898 118.531C436.461 118.938 436.19 119.497 436.086 120.211ZM438.727 125.172C437.451 125.172 436.438 124.794 435.688 124.039C434.938 123.279 434.562 122.271 434.562 121.016C434.562 119.781 434.922 118.768 435.641 117.977C436.365 117.18 437.32 116.781 438.508 116.781C439.258 116.781 439.898 116.956 440.43 117.305C440.966 117.654 441.362 118.128 441.617 118.727C441.878 119.326 442.008 120.021 442.008 120.812C442.008 120.911 442 121.039 441.984 121.195H436.047C436.062 122.091 436.32 122.784 436.82 123.273C437.32 123.758 437.982 124 438.805 124C439.763 124 440.612 123.703 441.352 123.109L441.781 124.172C440.922 124.839 439.904 125.172 438.727 125.172ZM444.281 125V118.953C444.281 118.776 444.271 118.523 444.25 118.195C444.234 117.867 444.219 117.583 444.203 117.344L444.18 116.984H445.703L445.719 118.234C446.203 117.276 446.917 116.797 447.859 116.797C448.156 116.797 448.427 116.828 448.672 116.891L448.664 118.164C448.357 118.081 448.062 118.039 447.781 118.039C447.167 118.039 446.672 118.255 446.297 118.688C445.922 119.115 445.734 119.732 445.734 120.539V125H444.281ZM452.609 125L449.25 116.984H450.82C451.008 117.474 451.273 118.159 451.617 119.039C451.966 119.919 452.281 120.724 452.562 121.453C452.849 122.177 453.112 122.865 453.352 123.516C453.576 122.854 453.823 122.161 454.094 121.438C454.37 120.708 454.677 119.906 455.016 119.031C455.359 118.156 455.622 117.474 455.805 116.984H457.344L453.984 125H452.609ZM458.766 114.961V113.625H460.188V114.961H458.766ZM458.758 125V116.984H460.188V125H458.758ZM466.352 125.172C465.112 125.172 464.12 124.786 463.375 124.016C462.635 123.24 462.266 122.247 462.266 121.039C462.266 119.773 462.643 118.747 463.398 117.961C464.154 117.174 465.148 116.781 466.383 116.781C467.503 116.781 468.385 117.099 469.031 117.734L468.523 118.688C467.966 118.203 467.286 117.961 466.484 117.961C465.667 117.961 465.005 118.229 464.5 118.766C464 119.297 463.75 120.052 463.75 121.031C463.75 121.938 463.992 122.659 464.477 123.195C464.966 123.732 465.628 124 466.461 124C467.268 124 467.997 123.75 468.648 123.25L469.102 124.289C468.341 124.878 467.424 125.172 466.352 125.172ZM472.102 120.211H476.703C476.651 119.477 476.438 118.911 476.062 118.516C475.688 118.12 475.188 117.922 474.562 117.922C473.906 117.922 473.357 118.125 472.914 118.531C472.477 118.938 472.206 119.497 472.102 120.211ZM474.742 125.172C473.466 125.172 472.453 124.794 471.703 124.039C470.953 123.279 470.578 122.271 470.578 121.016C470.578 119.781 470.938 118.768 471.656 117.977C472.38 117.18 473.336 116.781 474.523 116.781C475.273 116.781 475.914 116.956 476.445 117.305C476.982 117.654 477.378 118.128 477.633 118.727C477.893 119.326 478.023 120.021 478.023 120.812C478.023 120.911 478.016 121.039 478 121.195H472.062C472.078 122.091 472.336 122.784 472.836 123.273C473.336 123.758 473.997 124 474.82 124C475.779 124 476.628 123.703 477.367 123.109L477.797 124.172C476.938 124.839 475.919 125.172 474.742 125.172ZM482.945 125.172C482.253 125.172 481.641 125.068 481.109 124.859C480.583 124.651 480.174 124.432 479.883 124.203L480.281 123.133C480.578 123.352 480.956 123.549 481.414 123.727C481.878 123.904 482.349 123.992 482.828 123.992C483.891 123.992 484.422 123.602 484.422 122.82C484.422 122.492 484.302 122.247 484.062 122.086C483.823 121.924 483.357 121.727 482.664 121.492L481.977 121.258C481.711 121.164 481.484 121.076 481.297 120.992C481.115 120.909 480.93 120.805 480.742 120.68C480.555 120.549 480.404 120.411 480.289 120.266C480.174 120.115 480.081 119.935 480.008 119.727C479.94 119.513 479.906 119.273 479.906 119.008C479.906 118.628 479.984 118.292 480.141 118C480.302 117.703 480.521 117.471 480.797 117.305C481.073 117.133 481.378 117.005 481.711 116.922C482.044 116.833 482.404 116.789 482.789 116.789C483.846 116.789 484.737 117.021 485.461 117.484L485.062 118.516C484.359 118.141 483.656 117.953 482.953 117.953C482.438 117.953 482.039 118.042 481.758 118.219C481.477 118.396 481.336 118.646 481.336 118.969C481.336 119.26 481.419 119.477 481.586 119.617C481.758 119.753 482.096 119.911 482.602 120.094C483.055 120.245 483.323 120.336 483.406 120.367C483.734 120.482 483.997 120.581 484.195 120.664C484.393 120.747 484.604 120.859 484.828 121C485.057 121.135 485.232 121.279 485.352 121.43C485.477 121.581 485.578 121.771 485.656 122C485.74 122.224 485.781 122.479 485.781 122.766C485.781 123.193 485.701 123.568 485.539 123.891C485.378 124.208 485.159 124.458 484.883 124.641C484.607 124.818 484.307 124.951 483.984 125.039C483.661 125.128 483.315 125.172 482.945 125.172Z" fill="#B4B4B4"/>
<rect x="700.5" y="58" width="152" height="119" rx="6" fill="#0F0F0F" fill-opacity="0.94"/>
<rect x="700" y="57.5" width="153" height="120" rx="6.5" stroke="#303030" stroke-opacity="0.5"/>
<path d="M740.141 114V102.625H742.938C745.135 102.625 746.815 103.091 747.977 104.023C749.138 104.956 749.719 106.391 749.719 108.328C749.719 110.141 749.18 111.539 748.102 112.523C747.023 113.508 745.471 114 743.445 114H740.141ZM741.633 112.742H743.523C745.044 112.742 746.193 112.359 746.969 111.594C747.75 110.823 748.141 109.734 748.141 108.328C748.141 106.812 747.724 105.693 746.891 104.969C746.062 104.245 744.792 103.883 743.078 103.883H741.633V112.742ZM755.398 113C756.195 113 756.802 112.724 757.219 112.172C757.641 111.615 757.852 110.867 757.852 109.93C757.852 109.044 757.638 108.328 757.211 107.781C756.784 107.229 756.174 106.953 755.383 106.953C754.549 106.953 753.914 107.229 753.477 107.781C753.044 108.333 752.828 109.057 752.828 109.953C752.828 110.854 753.047 111.589 753.484 112.156C753.922 112.719 754.56 113 755.398 113ZM755.195 114.172C754.596 114.172 754.052 114.06 753.562 113.836C753.078 113.612 752.677 113.31 752.359 112.93C752.047 112.544 751.805 112.102 751.633 111.602C751.466 111.096 751.383 110.56 751.383 109.992C751.383 109.211 751.534 108.505 751.836 107.875C752.143 107.24 752.589 106.732 753.172 106.352C753.755 105.971 754.43 105.781 755.195 105.781C755.763 105.781 756.279 105.919 756.742 106.195C757.211 106.471 757.565 106.826 757.805 107.258V105.984H759.227V114H757.789V112.633C757.56 113.112 757.219 113.49 756.766 113.766C756.312 114.036 755.789 114.172 755.195 114.172ZM766.047 114H765.383C764.247 113.99 763.469 113.786 763.047 113.391C762.63 112.995 762.422 112.273 762.422 111.227V106.945H760.883V105.984H762.453V103.922L763.859 103.508V105.984H766.031V106.945H763.859V111.305C763.859 111.591 763.878 111.823 763.914 112C763.956 112.177 764.018 112.328 764.102 112.453C764.185 112.573 764.318 112.661 764.5 112.719C764.682 112.776 764.888 112.818 765.117 112.844C765.346 112.865 765.656 112.875 766.047 112.875V114ZM771.633 113C772.43 113 773.036 112.724 773.453 112.172C773.875 111.615 774.086 110.867 774.086 109.93C774.086 109.044 773.872 108.328 773.445 107.781C773.018 107.229 772.409 106.953 771.617 106.953C770.784 106.953 770.148 107.229 769.711 107.781C769.279 108.333 769.062 109.057 769.062 109.953C769.062 110.854 769.281 111.589 769.719 112.156C770.156 112.719 770.794 113 771.633 113ZM771.43 114.172C770.831 114.172 770.286 114.06 769.797 113.836C769.312 113.612 768.911 113.31 768.594 112.93C768.281 112.544 768.039 112.102 767.867 111.602C767.701 111.096 767.617 110.56 767.617 109.992C767.617 109.211 767.768 108.505 768.07 107.875C768.378 107.24 768.823 106.732 769.406 106.352C769.99 105.971 770.664 105.781 771.43 105.781C771.997 105.781 772.513 105.919 772.977 106.195C773.445 106.471 773.799 106.826 774.039 107.258V105.984H775.461V114H774.023V112.633C773.794 113.112 773.453 113.49 773 113.766C772.547 114.036 772.023 114.172 771.43 114.172ZM782.086 113C782.846 113 783.427 112.721 783.828 112.164C784.234 111.607 784.438 110.854 784.438 109.906C784.438 109.026 784.229 108.315 783.812 107.773C783.396 107.227 782.818 106.953 782.078 106.953C781.292 106.953 780.667 107.232 780.203 107.789C779.74 108.346 779.508 109.073 779.508 109.969C779.508 110.875 779.737 111.607 780.195 112.164C780.659 112.721 781.289 113 782.086 113ZM782.273 114.172C781.633 114.172 781.068 114.026 780.578 113.734C780.094 113.443 779.747 113.078 779.539 112.641L779.531 114H778.062C778.099 112.786 778.117 112.083 778.117 111.891V102.391H779.562V107.344C779.755 106.922 780.089 106.557 780.562 106.25C781.042 105.938 781.62 105.781 782.297 105.781C783.406 105.781 784.289 106.156 784.945 106.906C785.607 107.651 785.938 108.646 785.938 109.891C785.938 111.177 785.594 112.214 784.906 113C784.219 113.781 783.341 114.172 782.273 114.172ZM791.539 113C792.336 113 792.943 112.724 793.359 112.172C793.781 111.615 793.992 110.867 793.992 109.93C793.992 109.044 793.779 108.328 793.352 107.781C792.924 107.229 792.315 106.953 791.523 106.953C790.69 106.953 790.055 107.229 789.617 107.781C789.185 108.333 788.969 109.057 788.969 109.953C788.969 110.854 789.188 111.589 789.625 112.156C790.062 112.719 790.701 113 791.539 113ZM791.336 114.172C790.737 114.172 790.193 114.06 789.703 113.836C789.219 113.612 788.818 113.31 788.5 112.93C788.188 112.544 787.945 112.102 787.773 111.602C787.607 111.096 787.523 110.56 787.523 109.992C787.523 109.211 787.674 108.505 787.977 107.875C788.284 107.24 788.729 106.732 789.312 106.352C789.896 105.971 790.57 105.781 791.336 105.781C791.904 105.781 792.419 105.919 792.883 106.195C793.352 106.471 793.706 106.826 793.945 107.258V105.984H795.367V114H793.93V112.633C793.701 113.112 793.359 113.49 792.906 113.766C792.453 114.036 791.93 114.172 791.336 114.172ZM800.734 114.172C800.042 114.172 799.43 114.068 798.898 113.859C798.372 113.651 797.964 113.432 797.672 113.203L798.07 112.133C798.367 112.352 798.745 112.549 799.203 112.727C799.667 112.904 800.138 112.992 800.617 112.992C801.68 112.992 802.211 112.602 802.211 111.82C802.211 111.492 802.091 111.247 801.852 111.086C801.612 110.924 801.146 110.727 800.453 110.492L799.766 110.258C799.5 110.164 799.273 110.076 799.086 109.992C798.904 109.909 798.719 109.805 798.531 109.68C798.344 109.549 798.193 109.411 798.078 109.266C797.964 109.115 797.87 108.935 797.797 108.727C797.729 108.513 797.695 108.273 797.695 108.008C797.695 107.628 797.773 107.292 797.93 107C798.091 106.703 798.31 106.471 798.586 106.305C798.862 106.133 799.167 106.005 799.5 105.922C799.833 105.833 800.193 105.789 800.578 105.789C801.635 105.789 802.526 106.021 803.25 106.484L802.852 107.516C802.148 107.141 801.445 106.953 800.742 106.953C800.227 106.953 799.828 107.042 799.547 107.219C799.266 107.396 799.125 107.646 799.125 107.969C799.125 108.26 799.208 108.477 799.375 108.617C799.547 108.753 799.885 108.911 800.391 109.094C800.844 109.245 801.112 109.336 801.195 109.367C801.523 109.482 801.786 109.581 801.984 109.664C802.182 109.747 802.393 109.859 802.617 110C802.846 110.135 803.021 110.279 803.141 110.43C803.266 110.581 803.367 110.771 803.445 111C803.529 111.224 803.57 111.479 803.57 111.766C803.57 112.193 803.49 112.568 803.328 112.891C803.167 113.208 802.948 113.458 802.672 113.641C802.396 113.818 802.096 113.951 801.773 114.039C801.451 114.128 801.104 114.172 800.734 114.172ZM806.641 109.211H811.242C811.19 108.477 810.977 107.911 810.602 107.516C810.227 107.12 809.727 106.922 809.102 106.922C808.445 106.922 807.896 107.125 807.453 107.531C807.016 107.938 806.745 108.497 806.641 109.211ZM809.281 114.172C808.005 114.172 806.992 113.794 806.242 113.039C805.492 112.279 805.117 111.271 805.117 110.016C805.117 108.781 805.477 107.768 806.195 106.977C806.919 106.18 807.875 105.781 809.062 105.781C809.812 105.781 810.453 105.956 810.984 106.305C811.521 106.654 811.917 107.128 812.172 107.727C812.432 108.326 812.562 109.021 812.562 109.812C812.562 109.911 812.555 110.039 812.539 110.195H806.602C806.617 111.091 806.875 111.784 807.375 112.273C807.875 112.758 808.536 113 809.359 113C810.318 113 811.167 112.703 811.906 112.109L812.336 113.172C811.477 113.839 810.458 114.172 809.281 114.172ZM727.109 135V125.047H728.695C728.809 125.311 729.322 126.482 730.233 128.561C731.145 130.634 731.835 132.218 732.305 133.312C732.774 132.213 733.467 130.627 734.383 128.554C735.303 126.48 735.823 125.311 735.941 125.047H737.493V135H736.249V127.173C735.802 128.203 735.151 129.673 734.294 131.582C733.442 133.487 732.934 134.626 732.77 135H731.833L728.88 128.349L728.367 127.118V135H727.109ZM743.194 135.15C742.06 135.15 741.171 134.813 740.528 134.139C739.89 133.464 739.571 132.585 739.571 131.5C739.571 130.397 739.893 129.506 740.535 128.827C741.182 128.148 742.073 127.809 743.208 127.809C744.338 127.809 745.218 128.148 745.847 128.827C746.476 129.502 746.79 130.393 746.79 131.5C746.79 132.585 746.471 133.464 745.833 134.139C745.195 134.813 744.315 135.15 743.194 135.15ZM743.194 134.125C743.933 134.125 744.495 133.886 744.883 133.407C745.275 132.929 745.471 132.293 745.471 131.5C745.471 130.693 745.272 130.049 744.876 129.565C744.484 129.078 743.921 128.834 743.188 128.834C742.449 128.834 741.882 129.078 741.485 129.565C741.089 130.049 740.891 130.693 740.891 131.5C740.891 132.293 741.087 132.929 741.479 133.407C741.875 133.886 742.447 134.125 743.194 134.125ZM748.69 135V129.928C748.69 129.618 748.684 129.301 748.67 128.978C748.661 128.654 748.649 128.408 748.636 128.239L748.615 127.986H749.914L749.928 129.087C750.169 128.686 750.507 128.374 750.939 128.15C751.377 127.923 751.837 127.809 752.32 127.809C753.204 127.809 753.856 128.077 754.275 128.615C754.695 129.148 754.904 129.96 754.904 131.049V135H753.646V131.056C753.646 130.295 753.533 129.734 753.305 129.374C753.077 129.014 752.676 128.834 752.102 128.834C751.573 128.834 751.092 129.014 750.659 129.374C750.226 129.729 749.992 130.14 749.955 130.604V135H748.69ZM760.045 133.92C760.756 133.92 761.296 133.69 761.665 133.229C762.034 132.765 762.219 132.143 762.219 131.363C762.219 130.593 762.034 129.98 761.665 129.524C761.3 129.064 760.79 128.834 760.134 128.834C759.464 128.834 758.938 129.076 758.555 129.559C758.172 130.042 757.98 130.675 757.98 131.459C757.98 132.238 758.16 132.844 758.521 133.277C758.881 133.706 759.389 133.92 760.045 133.92ZM759.888 137.857C758.967 137.857 758.104 137.659 757.297 137.263L757.495 136.176C758.27 136.618 759.051 136.839 759.84 136.839C760.587 136.839 761.166 136.638 761.576 136.237C761.986 135.836 762.191 135.23 762.191 134.419V133.688C761.995 134.038 761.711 134.33 761.337 134.562C760.968 134.79 760.512 134.904 759.97 134.904C758.999 134.904 758.206 134.597 757.591 133.981C756.98 133.362 756.675 132.525 756.675 131.473C756.675 130.757 756.798 130.126 757.044 129.579C757.295 129.032 757.671 128.602 758.172 128.287C758.673 127.968 759.27 127.809 759.963 127.809C760.496 127.809 760.95 127.923 761.323 128.15C761.697 128.378 761.986 128.67 762.191 129.025L762.212 127.986H763.511C763.461 128.743 763.436 129.372 763.436 129.873V134.043C763.436 134.599 763.367 135.105 763.23 135.561C763.094 136.016 762.884 136.417 762.602 136.764C762.324 137.11 761.954 137.379 761.494 137.57C761.034 137.762 760.498 137.857 759.888 137.857ZM768.966 135.15C767.831 135.15 766.942 134.813 766.3 134.139C765.662 133.464 765.343 132.585 765.343 131.5C765.343 130.397 765.664 129.506 766.307 128.827C766.954 128.148 767.845 127.809 768.979 127.809C770.11 127.809 770.989 128.148 771.618 128.827C772.247 129.502 772.562 130.393 772.562 131.5C772.562 132.585 772.243 133.464 771.604 134.139C770.966 134.813 770.087 135.15 768.966 135.15ZM768.966 134.125C769.704 134.125 770.267 133.886 770.654 133.407C771.046 132.929 771.242 132.293 771.242 131.5C771.242 130.693 771.044 130.049 770.647 129.565C770.256 129.078 769.693 128.834 768.959 128.834C768.221 128.834 767.653 129.078 767.257 129.565C766.86 130.049 766.662 130.693 766.662 131.5C766.662 132.293 766.858 132.929 767.25 133.407C767.646 133.886 768.218 134.125 768.966 134.125ZM774.633 135V125.047H777.08C779.003 125.047 780.473 125.455 781.489 126.271C782.506 127.086 783.014 128.342 783.014 130.037C783.014 131.623 782.542 132.847 781.599 133.708C780.655 134.569 779.297 135 777.524 135H774.633ZM775.938 133.899H777.593C778.924 133.899 779.928 133.564 780.607 132.895C781.291 132.22 781.633 131.268 781.633 130.037C781.633 128.711 781.268 127.731 780.539 127.098C779.814 126.464 778.702 126.147 777.203 126.147H775.938V133.899ZM786.466 129.258H788.195C789.663 129.258 790.396 128.715 790.396 127.631C790.396 127.07 790.196 126.683 789.795 126.469C789.394 126.255 788.788 126.147 787.977 126.147H786.466V129.258ZM786.473 133.886H788.482C789.253 133.886 789.84 133.735 790.246 133.435C790.656 133.134 790.861 132.701 790.861 132.136C790.861 131.47 790.665 131.006 790.273 130.741C789.886 130.472 789.23 130.338 788.305 130.338H786.473V133.886ZM785.16 135V125.047H787.792C788.088 125.047 788.362 125.056 788.612 125.074C788.868 125.088 789.134 125.118 789.412 125.163C789.69 125.204 789.938 125.261 790.157 125.334C790.381 125.407 790.595 125.507 790.8 125.635C791.009 125.758 791.183 125.904 791.319 126.072C791.456 126.236 791.565 126.439 791.647 126.681C791.729 126.918 791.771 127.182 791.771 127.474C791.771 128.025 791.632 128.494 791.354 128.882C791.08 129.269 790.672 129.538 790.13 129.688C790.8 129.802 791.319 130.078 791.688 130.516C792.062 130.953 792.249 131.505 792.249 132.17C792.249 132.99 791.941 133.667 791.326 134.2C790.711 134.733 789.834 135 788.694 135H785.16ZM793.903 135L797.526 125.047H798.695L795.045 135H793.903ZM803.371 134.05C803.645 134.05 803.891 134.025 804.109 133.975C804.333 133.924 804.526 133.854 804.69 133.763C804.854 133.667 804.991 133.551 805.101 133.414C805.215 133.273 805.299 133.113 805.354 132.936C805.408 132.753 805.436 132.553 805.436 132.334C805.436 132.097 805.41 131.899 805.36 131.739C805.31 131.575 805.215 131.42 805.073 131.274C804.932 131.129 804.738 130.999 804.492 130.885C804.251 130.766 803.929 130.646 803.528 130.522C803.487 130.509 803.387 130.481 803.228 130.44C803.073 130.395 802.97 130.363 802.92 130.345C801.967 130.071 801.272 129.725 800.835 129.306C800.402 128.886 800.186 128.283 800.186 127.494C800.186 126.934 800.331 126.453 800.623 126.052C800.915 125.651 801.304 125.354 801.792 125.163C802.284 124.967 802.849 124.869 803.487 124.869C804.832 124.869 805.855 125.215 806.557 125.908L805.907 126.79C805.675 126.562 805.36 126.368 804.964 126.209C804.567 126.049 804.128 125.97 803.645 125.97C803.016 125.97 802.512 126.095 802.134 126.346C801.76 126.596 801.573 126.965 801.573 127.453C801.573 127.781 801.617 128.041 801.703 128.232C801.794 128.424 801.956 128.59 802.188 128.731C802.425 128.873 802.781 129.019 803.255 129.169C803.264 129.174 803.348 129.199 803.508 129.244C803.672 129.29 803.781 129.319 803.836 129.333C804.419 129.506 804.898 129.686 805.271 129.873C805.65 130.06 805.953 130.276 806.181 130.522C806.409 130.764 806.568 131.031 806.659 131.322C806.75 131.614 806.796 131.965 806.796 132.375C806.796 132.835 806.707 133.245 806.529 133.605C806.356 133.961 806.115 134.25 805.805 134.474C805.495 134.697 805.139 134.866 804.738 134.979C804.337 135.093 803.9 135.15 803.426 135.15C802.683 135.15 802.018 135.03 801.43 134.788C800.846 134.542 800.42 134.289 800.151 134.029L800.732 133.086C801.024 133.318 801.407 133.537 801.881 133.742C802.355 133.947 802.852 134.05 803.371 134.05ZM813.133 134.05C814.245 134.05 815.09 133.692 815.669 132.977C816.248 132.257 816.537 131.27 816.537 130.017C816.537 128.791 816.245 127.811 815.662 127.077C815.083 126.339 814.245 125.97 813.146 125.97C812.053 125.97 811.203 126.341 810.597 127.084C809.995 127.822 809.694 128.8 809.694 130.017C809.694 131.265 809.991 132.25 810.583 132.97C811.175 133.69 812.025 134.05 813.133 134.05ZM813.146 135.15C811.643 135.15 810.458 134.688 809.592 133.763C808.73 132.838 808.3 131.589 808.3 130.017C808.3 129 808.489 128.107 808.867 127.337C809.25 126.562 809.811 125.958 810.549 125.525C811.287 125.088 812.158 124.869 813.16 124.869C814.623 124.869 815.787 125.343 816.653 126.291C817.524 127.234 817.959 128.476 817.959 130.017C817.959 131.229 817.697 132.259 817.173 133.106C816.649 133.95 815.908 134.535 814.951 134.863C815.147 135.196 815.4 135.561 815.71 135.957C816.02 136.354 816.241 136.625 816.373 136.771C816.505 136.916 816.612 137.033 816.694 137.119L815.929 137.926C815.892 137.889 815.842 137.837 815.778 137.769C815.719 137.7 815.598 137.561 815.416 137.352C815.234 137.146 815.058 136.937 814.89 136.723C814.726 136.513 814.541 136.26 814.336 135.964C814.131 135.668 813.951 135.385 813.796 135.116C813.691 135.13 813.584 135.139 813.475 135.144C813.37 135.148 813.26 135.15 813.146 135.15ZM820.064 135V125.047H821.37V133.899H825.998V135H820.064Z" fill="#B4B4B4"/>
<path d="M164.737 0.5H77.2635" stroke="#303030" stroke-opacity="0.5" stroke-linecap="square"/>
<path d="M77.5 57.5V0.5" stroke="#303030" stroke-opacity="0.5" stroke-linecap="square"/>
<path d="M254.5 58.5V10.5" stroke="#303030" stroke-opacity="0.5" stroke-linecap="square"/>
<path d="M431.5 57.5V10.5" stroke="#303030" stroke-opacity="0.5" stroke-linecap="square"/>
<path d="M601.5 57.5V10.5" stroke="#303030" stroke-opacity="0.5" stroke-linecap="square"/>
<path d="M777.737 0.5H690.263" stroke="#303030" stroke-opacity="0.5" stroke-linecap="square"/>
<path d="M778.5 57.5V0.5" stroke="#303030" stroke-opacity="0.5" stroke-linecap="square"/>
</svg>
