<?xml version="1.0" encoding="UTF-8"?>
<svg width="24px" height="30px" viewBox="0 0 24 30" version="1.1" xmlns="http://www.w3.org/2000/svg" xmlns:xlink="http://www.w3.org/1999/xlink">
    <!-- Generator: Sketch 57 (83077) - https://sketch.com -->
    <title>linux</title>
    <desc>Created with Sketch.</desc>
    <g id="Website" stroke="none" stroke-width="1" fill="none" fill-rule="evenodd">
        <g id="Artboard" transform="translate(-709.000000, -396.000000)" fill="white" fill-rule="nonzero">
            <g id="Group-2" transform="translate(112.000000, 378.000000)">
                <path d="M608.572664,25.3303976 C608.572664,25.4297255 608.479155,25.4297255 608.479155,25.4297255 L608.385646,25.4297255 C608.292137,25.4297255 608.292137,25.3303976 608.198629,25.2310698 C608.198629,25.2310698 608.10512,25.1317419 608.10512,25.032414 C608.10512,24.9330861 608.10512,24.9330861 608.198629,24.9330861 L608.385646,25.032414 C608.479155,25.1317419 608.572664,25.2310698 608.572664,25.3303976 M606.889504,24.3371188 C606.889504,23.8404794 606.702486,23.5424958 606.421959,23.5424958 C606.421959,23.5424958 606.421959,23.6418237 606.32845,23.6418237 L606.32845,23.8404794 L606.608977,23.8404794 C606.608977,24.0391352 606.702486,24.1384631 606.702486,24.3371188 L606.889504,24.3371188 M610.162316,23.8404794 C610.349334,23.8404794 610.442843,24.0391352 610.536352,24.3371188 L610.723369,24.3371188 C610.629861,24.2377909 610.629861,24.1384631 610.629861,24.0391352 C610.629861,23.9398073 610.629861,23.8404794 610.536352,23.7411515 C610.442843,23.6418237 610.349334,23.5424958 610.255825,23.5424958 C610.255825,23.5424958 610.162316,23.6418237 610.068807,23.6418237 C610.068807,23.7411515 610.162316,23.7411515 610.162316,23.8404794 M607.357048,25.4297255 C607.263539,25.4297255 607.263539,25.4297255 607.263539,25.3303976 C607.263539,25.2310698 607.263539,25.1317419 607.357048,25.032414 C607.544066,25.032414 607.637575,24.9330861 607.637575,24.9330861 C607.731084,24.9330861 607.731084,25.032414 607.731084,25.032414 C607.731084,25.1317419 607.637575,25.2310698 607.450557,25.4297255 L607.357048,25.4297255 M606.32845,25.3303976 C605.954414,25.1317419 605.860905,24.8337582 605.860905,24.3371188 C605.860905,24.0391352 605.860905,23.8404794 606.047923,23.6418237 C606.141432,23.4431679 606.32845,23.34384 606.515468,23.34384 C606.702486,23.34384 606.795995,23.4431679 606.983013,23.6418237 C607.076521,23.9398073 607.17003,24.2377909 607.17003,24.5357746 L607.17003,24.6351025 L607.17003,24.7344304 L607.263539,24.7344304 L607.263539,24.6351025 C607.357048,24.6351025 607.357048,24.4364467 607.357048,24.0391352 C607.357048,23.7411515 607.357048,23.4431679 607.17003,23.1451843 C606.983013,22.8472006 606.795995,22.6485448 606.421959,22.6485448 C606.141432,22.6485448 605.860905,22.8472006 605.767397,23.1451843 C605.580379,23.5424958 605.542975,23.8404794 605.542975,24.3371188 C605.542975,24.7344304 605.673888,25.1317419 606.047923,25.5290534 C606.141432,25.4297255 606.234941,25.4297255 606.32845,25.3303976 M618.017065,39.3356289 C618.110574,39.3356289 618.110574,39.2958978 618.110574,39.2065027 C618.110574,38.9879813 618.017065,38.7297288 617.736539,38.441678 C617.456012,38.1436943 616.988467,37.9549714 616.427414,37.8755091 C616.333905,37.8655763 616.240396,37.8655763 616.240396,37.8655763 C616.146887,37.8457107 616.146887,37.8457107 616.053378,37.8457107 C615.959869,37.8357779 615.772851,37.8159123 615.679342,37.7960468 C615.959869,36.8722975 616.053378,36.0578088 616.053378,35.3426481 C616.053378,34.3493693 615.86636,33.6540741 615.492324,33.0581068 C615.118289,32.4621395 614.744253,32.1641559 614.276708,32.064828 C614.1832,32.1641559 614.1832,32.1641559 614.1832,32.2634838 C614.650744,32.4621395 615.118289,32.859451 615.398816,33.4554183 C615.679342,34.1507135 615.772851,34.7466808 615.772851,35.441976 C615.772851,35.9982121 615.679342,36.8226335 615.305307,37.8755091 C614.931271,38.0344337 614.557235,38.4019468 614.276708,38.9780485 C614.276708,39.0674436 614.276708,39.1171076 614.370217,39.1171076 C614.370217,39.1171076 614.463726,39.0277125 614.557235,38.8588551 C614.744253,38.6899977 614.837762,38.5211403 615.02478,38.3522829 C615.305307,38.1834255 615.492324,38.0940304 615.772851,38.0940304 C616.240396,38.0940304 616.70794,38.1635599 616.988467,38.3026189 C617.362503,38.4317452 617.549521,38.5708042 617.64303,38.7297288 C617.736539,38.8787207 617.830048,39.0177797 617.923556,39.1469059 C617.923556,39.2760322 618.017065,39.3356289 618.017065,39.3356289 M609.414245,24.9330861 C609.320736,24.8337582 609.320736,24.6351025 609.320736,24.4364467 C609.320736,24.0391352 609.320736,23.8404794 609.507753,23.5424958 C609.694771,23.34384 609.881789,23.2445121 610.068807,23.2445121 C610.349334,23.2445121 610.536352,23.4431679 610.723369,23.6418237 C610.816878,23.9398073 610.910387,24.1384631 610.910387,24.4364467 C610.910387,24.9330861 610.723369,25.2310698 610.349334,25.3303976 C610.349334,25.3303976 610.442843,25.4297255 610.536352,25.4297255 C610.723369,25.4297255 610.816878,25.5290534 611.003896,25.6283813 C611.097405,25.032414 611.190914,24.6351025 611.190914,24.1384631 C611.190914,23.5424958 611.097405,23.1451843 610.910387,22.8472006 C610.629861,22.549217 610.349334,22.4498891 609.975298,22.4498891 C609.694771,22.4498891 609.414245,22.549217 609.133718,22.7478727 C608.9467,23.0458564 608.853191,23.2445121 608.853191,23.5424958 C608.853191,24.0391352 608.9467,24.4364467 609.133718,24.8337582 C609.227227,24.8337582 609.320736,24.9330861 609.414245,24.9330861 M610.536352,26.5223322 C609.320736,27.4162832 608.385646,27.8135947 607.637575,27.8135947 C606.983013,27.8135947 606.32845,27.515611 605.767397,27.0189716 C605.860905,27.2176274 605.954414,27.4162832 606.047923,27.515611 L606.608977,28.1115783 C606.983013,28.5088898 607.450557,28.7075456 607.918102,28.7075456 C608.572664,28.7075456 609.320736,28.3102341 610.255825,27.6149389 L611.097405,27.0189716 C611.284423,26.8203159 611.471441,26.6216601 611.471441,26.3236765 C611.471441,26.2243486 611.471441,26.1250207 611.377932,26.1250207 C611.284423,25.9263649 610.816878,25.6283813 609.881789,25.3303976 C609.040209,24.9330861 608.385646,24.7344304 608.011611,24.7344304 C607.731084,24.7344304 607.263539,24.9330861 606.608977,25.3303976 C606.047923,25.7277092 605.673888,26.1250207 605.673888,26.5223322 C605.673888,26.5223322 605.767397,26.6216601 605.860905,26.8203159 C606.421959,27.3169553 606.983013,27.6149389 607.544066,27.6149389 C608.292137,27.6149389 609.227227,27.2176274 610.442843,26.2243486 L610.442843,26.4230043 C610.536352,26.4230043 610.536352,26.5223322 610.536352,26.5223322 M612.687057,46.5865642 C613.061092,47.3335099 613.715655,47.7089693 614.463726,47.7089693 C614.650744,47.7089693 614.837762,47.6791709 615.02478,47.6195742 C615.211798,47.5798431 615.398816,47.5103135 615.492324,47.4308512 C615.585833,47.3613217 615.679342,47.2917922 615.772851,47.2123299 C615.959869,47.1428004 615.959869,47.0931364 616.053378,47.0434725 L617.64303,45.5833526 C618.017065,45.2664967 618.391101,44.9893719 618.858646,44.7489984 C619.232681,44.5106115 619.606717,44.3516869 619.793735,44.2622918 C620.074262,44.1828295 620.26128,44.0636361 620.448297,43.9047115 C620.541806,43.7557196 620.635315,43.5669967 620.635315,43.3286097 C620.635315,43.0405589 620.448297,42.8220375 620.26128,42.6631129 C620.074262,42.5041883 619.887244,42.3949277 619.700226,42.3253981 C619.513208,42.2558686 619.32619,42.096944 619.045664,41.8287587 C618.858646,41.5705062 618.671628,41.2129259 618.578119,40.7460848 L618.48461,40.1699831 C618.391101,39.9017978 618.391101,39.7031421 618.297592,39.5938814 C618.297592,39.564083 618.297592,39.5541502 618.204083,39.5541502 C618.110574,39.5541502 617.923556,39.6435453 617.830048,39.8124027 C617.64303,39.9812601 617.456012,40.1699831 617.268994,40.3686389 C617.175485,40.5672946 616.894958,40.7460848 616.70794,40.9149422 C616.427414,41.0837996 616.146887,41.1731947 615.959869,41.1731947 C615.211798,41.1731947 614.837762,40.9546734 614.557235,40.5275635 C614.370217,40.2097143 614.276708,39.8422011 614.1832,39.425024 C613.996182,39.2561666 613.902673,39.1667715 613.715655,39.1667715 C613.24811,39.1667715 613.061092,39.6832765 613.061092,40.7262192 L613.061092,41.0540013 L613.061092,42.2062047 L613.061092,43.0902228 L613.061092,43.5173327 L613.061092,43.8153164 C613.061092,43.9047115 612.967584,44.1033672 612.967584,44.4112836 C612.874075,44.7192001 612.874075,45.0688342 612.874075,45.4641592 L612.687057,46.5666987 L612.687057,46.5835844 M599.128263,46.0581399 C599.997896,46.1932258 600.998442,46.48227 602.129899,46.9232858 C603.261357,47.3603284 603.953323,47.5887826 604.205798,47.5887826 C604.86036,47.5887826 605.402712,47.2808661 605.851555,46.6858921 C605.945064,46.493196 605.945064,46.2667285 605.945064,46.0064894 C605.945064,45.0678409 605.412063,43.8808728 604.346061,42.4406185 L603.7102,41.5367348 C603.579288,41.3480118 603.420323,41.0599609 603.214603,40.6725822 C603.018234,40.2852035 602.840567,39.9872198 602.700304,39.7786313 C602.578742,39.5501771 602.382374,39.321723 602.129899,39.0932689 C601.886776,38.8648148 601.60625,38.7158229 601.29767,38.6363606 C600.904933,38.7158229 600.633757,38.854882 600.502844,39.0436049 C600.371932,39.2323279 600.297125,39.4409165 600.278423,39.6594378 C600.25037,39.8680264 600.194265,40.0070854 600.100756,40.0766149 C600.007247,40.1362116 599.848282,40.1858756 599.633211,40.2355395 C599.586457,40.2355395 599.502299,40.2355395 599.380737,40.2454723 L599.128263,40.2454723 C598.632666,40.2454723 598.296034,40.305069 598.118367,40.4043969 C597.884594,40.6924478 597.763033,41.0202298 597.763033,41.3678774 C597.763033,41.526802 597.800436,41.7949873 597.875244,42.1724332 C597.950051,42.5399464 597.987454,42.83793 597.987454,43.0465186 C597.987454,43.4537629 597.875244,43.8610072 597.641471,44.2682515 C597.407699,44.6953614 597.286137,45.0132106 597.286137,45.2396782 C597.379646,45.6250704 597.996805,45.8962355 599.128263,46.0551601 M602.24211,37.0262557 C602.24211,36.3408933 602.410426,35.5860014 602.756409,34.6920505 C603.093041,33.7980995 603.429673,33.2021322 603.756955,32.8048207 C603.738253,32.7054928 603.691498,32.7054928 603.616691,32.7054928 L603.523182,32.606165 C603.252007,32.9041486 602.924725,33.5994438 602.531988,34.5927226 C602.13925,35.4866735 601.933531,36.3110949 601.933531,36.916995 C601.933531,37.3639705 602.036391,37.7513492 602.223408,38.089064 C602.429128,38.416846 602.924725,38.8936198 603.7102,39.4995199 L604.701395,40.1848823 C605.758046,41.1582955 606.319099,41.8337251 606.319099,42.2310367 C606.319099,42.4396252 606.22559,42.6482138 605.945064,42.8766679 C605.758046,43.1150548 605.505572,43.2342483 605.290501,43.2342483 C605.271799,43.2342483 605.262448,43.2541138 605.262448,43.3037778 C605.262448,43.3137106 605.355957,43.5123663 605.552326,43.8997451 C605.945064,44.465914 606.786644,44.744032 607.908751,44.744032 C609.965947,44.744032 611.555599,43.8500811 612.771215,42.0621793 C612.771215,41.5655398 612.771215,41.2576234 612.677706,41.1284972 L612.677706,40.760984 C612.677706,40.1153528 612.771215,39.6286462 612.958233,39.3107969 C613.145251,38.9929477 613.332268,38.8439559 613.612795,38.8439559 C613.799813,38.8439559 613.986831,38.9134854 614.173849,39.0624772 C614.267358,38.2976526 614.267358,37.6321557 614.267358,37.0361885 C614.267358,36.1323047 614.267358,35.3873456 614.08034,34.6920505 C613.986831,34.0960832 613.799813,33.5994438 613.612795,33.2021322 C613.425777,32.9041486 613.238759,32.606165 613.051742,32.3081813 C612.864724,32.0101977 612.771215,31.712214 612.584197,31.4142304 C612.490688,31.0169188 612.397179,30.7189352 612.397179,30.2222958 C612.116652,29.7256564 611.929635,29.229017 611.649108,28.7323776 C611.46209,28.2357382 611.275072,27.7390988 611.088054,27.3417872 L610.246474,28.0370824 C609.311385,28.7323776 608.563313,29.0303612 607.908751,29.0303612 C607.347697,29.0303612 606.880153,28.9310333 606.599626,28.5337218 L606.038572,28.0370824 C606.038572,28.3350661 605.945064,28.7323776 605.758046,29.1296891 L605.168939,30.3216237 C604.907114,31.0169188 604.766851,31.4142304 604.738798,31.712214 C604.701395,31.9108698 604.673342,32.1095255 604.65464,32.1095255 L603.953323,33.5994438 C603.195901,35.089362 602.812515,36.4700195 602.812515,37.6122902 C602.812515,37.8407443 602.831216,38.0791312 602.86862,38.3175181 C602.44783,38.0096017 602.24211,37.5824918 602.24211,37.0262557 M608.937349,46.4226732 C607.721733,46.4226732 606.786644,46.5974903 606.132081,46.9441446 L606.132081,46.9143463 C605.664537,47.5103135 605.140887,47.81823 604.411517,47.81823 C603.953323,47.81823 603.233305,47.629507 602.260812,47.2520611 C601.278968,46.8944807 600.409335,46.6203357 599.651913,46.439559 C599.577106,46.4167136 599.40879,46.3829421 599.137614,46.3372513 C598.875789,46.2925537 598.632666,46.2468629 598.417595,46.2011721 C598.221227,46.1564745 597.996805,46.0889316 597.753682,45.9975499 C597.51991,45.9190809 597.332892,45.8167732 597.192628,45.6926133 C597.063586,45.5674602 597,45.4264146 597,45.2684833 C597,45.1095587 597.031793,44.939708 597.095379,44.7589312 C597.155225,44.6496706 597.220681,44.5404099 597.286137,44.441082 C597.351594,44.3318213 597.407699,44.2324935 597.445102,44.1331656 C597.501208,44.0437705 597.538611,43.9543754 597.576015,43.8550475 C597.613419,43.7656524 597.650822,43.6762573 597.669524,43.5669967 C597.688226,43.4676688 597.706927,43.3683409 597.706927,43.269013 C597.706927,43.1696851 597.669524,42.8717015 597.594717,42.3452637 C597.51991,41.8287587 597.482506,41.5009767 597.482506,41.3619177 C597.482506,40.924875 597.576015,40.5772274 597.781735,40.3289077 C597.987454,40.080588 598.183823,39.9514618 598.389543,39.9514618 L599.464895,39.9514618 C599.549053,39.9514618 599.679966,39.9017978 599.876334,39.7826044 C599.941791,39.6236798 599.997896,39.4945535 600.0353,39.3753601 C600.082054,39.2561666 600.100756,39.1667715 600.119458,39.1270404 C600.138159,39.0674436 600.156861,39.0078469 600.175563,38.958183 C600.212967,38.8886534 600.259721,38.8091911 600.325177,38.7297288 C600.25037,38.630401 600.212967,38.5012747 600.212967,38.3423501 C600.212967,38.2330894 600.212967,38.1337615 600.231668,38.0741648 C600.231668,37.7165844 600.390634,37.2100123 600.727266,36.5445154 L601.054547,35.9187498 C601.325723,35.3823792 601.531442,34.9850677 601.681057,34.5877562 C601.840022,34.1904447 602.008338,33.5944774 602.195356,32.7998543 C602.34497,32.1045591 602.700304,31.409264 603.261357,30.7139688 L603.962674,29.8200179 C604.448921,29.2240506 604.766851,28.7274112 604.944518,28.3300997 C605.122185,27.9327881 605.215694,27.4361487 605.215694,27.0388372 C605.215694,26.8401814 605.168939,26.2442142 605.06608,25.2509353 C604.972571,24.2576565 604.925816,23.2643777 604.925816,22.3704268 C604.925816,21.6751316 604.981922,21.1784922 605.103483,20.6818528 C605.225045,20.1852134 605.440115,19.688574 605.758046,19.2912625 C606.038572,18.8939509 606.412608,18.4966394 606.973662,18.2979836 C607.534715,18.0993279 608.189278,18 608.937349,18 C609.217876,18 609.498403,18 609.778929,18.0993279 C610.059456,18.0993279 610.433492,18.1986558 610.901036,18.3973115 C611.275072,18.5959673 611.649108,18.7946231 611.929635,19.0926067 C612.30367,19.3905903 612.584197,19.8872297 612.864724,20.3838692 C613.051742,20.9798364 613.238759,21.5758037 613.332268,22.3704268 C613.425777,22.8670662 613.425777,23.3637056 613.519286,24.0590008 C613.519286,24.654968 613.612795,25.0522796 613.612795,25.3502632 C613.706304,25.6482469 613.706304,26.0455584 613.799813,26.5421978 C613.893322,26.9395093 613.986831,27.3368208 614.173849,27.6348045 C614.360867,28.032116 614.547884,28.4294275 614.828411,28.8267391 C615.108938,29.3233785 615.482974,29.8200179 615.857009,30.4159852 C616.69859,31.409264 617.353152,32.5018707 617.727188,33.5944774 C618.194732,34.5877562 618.475259,35.8790186 618.475259,37.2596762 C618.475259,37.9450386 618.38175,38.6105354 618.194732,39.2561666 C618.38175,39.2561666 618.475259,39.3356289 618.568768,39.4746879 C618.662277,39.613747 618.755786,39.9117306 618.849295,40.3785717 L618.942804,41.113598 C619.036313,41.3321193 619.129822,41.5407079 619.410348,41.7194981 C619.597366,41.8982882 619.784384,42.0472801 620.064911,42.1664735 C620.251929,42.2658014 620.532455,42.4048604 620.719473,42.5836506 C620.906491,42.7823064 621,42.9908949 621,43.2094163 C621,43.5471311 620.906491,43.7954508 620.719473,43.974241 C620.532455,44.1728967 620.345438,44.3119558 620.064911,44.4013509 C619.877893,44.5006787 619.503857,44.6993345 618.942804,44.9794391 C618.475259,45.2734497 618.007714,45.6300368 617.54017,46.0521802 L616.605081,46.8974605 C616.231045,47.2848393 615.857009,47.5629573 615.576483,47.7318147 C615.295956,47.9106049 614.92192,48 614.547884,48 L613.893322,47.9205377 C613.145251,47.7119491 612.677706,47.3146376 612.397179,46.7087375 C610.901036,46.5160415 609.68542,46.4206867 608.937349,46.4206867" id="linux"></path>
            </g>
        </g>
    </g>
</svg>
