<?xml version="1.0" encoding="UTF-8"?>
<svg width="26px" height="24px" viewBox="0 0 26 24" version="1.1" xmlns="http://www.w3.org/2000/svg" xmlns:xlink="http://www.w3.org/1999/xlink">
    <!-- Generator: Sketch 57 (83077) - https://sketch.com -->
    <title>projects</title>
    <desc>Created with Sketch.</desc>
    <g id="Website" stroke="none" stroke-width="1" fill="none" fill-rule="evenodd">
        <g id="Artboard" transform="translate(-589.000000, -1471.000000)">
            <g id="icons/300/projects" transform="translate(582.000000, 1463.000000)">
                <polygon id="bg" fill="#FFFFFF" opacity="0" points="0 0 0 40 11.0429481 40 22.0858963 40 33.1288296 40 40 40 40 0"></polygon>
                <path d="M15.1842356,8.33333333 L9.40740593,18.3333778 L17.1097319,31.6666667 L15.1838356,31.6666667 L7.48148,18.3333333 L13.2583096,8.33333333 L15.1842356,8.33333333 Z M16.1469896,10 L22.8879378,21.6666667 L21.92536,23.3333333 L21.925123,23.3329333 L18.072723,30 L17.1097452,28.3332889 L20.9620119,21.6666667 L15.1842341,11.6669778 L16.1469896,10 Z M28.6666652,15 L32.518517,21.6666667 L28.6658356,28.3333333 L20.9629615,28.3333333 L21.9259541,26.6667111 L27.7029022,26.6667111 L30.5921911,21.6666667 L27.7037319,16.6667111 L21.9258948,16.6667111 L20.9637911,15 L28.6666652,15 Z M18.0739274,20.0000015 L19.03692,21.6666237 L16.1480015,26.6666681 L15.1842385,24.999957 L18.0739274,20.0000015 Z M16.1475748,16.6666681 L17.1105674,18.3332904 L14.2216489,23.3333348 L13.2578859,21.6666237 L16.1475748,16.6666681 Z M14.2212415,13.3333348 L15.1842341,14.999957 L12.2953156,20.0000015 L11.3315526,18.3332904 L14.2212415,13.3333348 Z" id="projects" fill="#F8ECDF"></path>
            </g>
        </g>
    </g>
</svg>