<svg width="400" height="459" viewBox="0 0 400 459" fill="none" xmlns="http://www.w3.org/2000/svg">
<rect y="33" width="100" height="32" rx="2" fill="#363636"/>
<path d="M37.0173 54.112C36.0746 54.112 35.2533 53.9067 34.5533 53.496C33.8626 53.0853 33.3306 52.4973 32.9573 51.732C32.584 50.9573 32.3973 50.0473 32.3973 49.002C32.3973 47.9567 32.584 47.056 32.9573 46.3C33.3306 45.5347 33.8626 44.9467 34.5533 44.536C35.2533 44.1253 36.0746 43.92 37.0173 43.92C37.708 43.92 38.338 44.0273 38.9073 44.242C39.486 44.4473 39.9853 44.76 40.4053 45.18L39.9713 46.062C39.4953 45.6513 39.024 45.3573 38.5573 45.18C38.1 45.0027 37.5913 44.914 37.0313 44.914C35.9393 44.914 35.09 45.2687 34.4833 45.978C33.886 46.6873 33.5873 47.6953 33.5873 49.002C33.5873 50.318 33.886 51.3353 34.4833 52.054C35.0806 52.7633 35.93 53.118 37.0313 53.118C37.5913 53.118 38.1 53.0293 38.5573 52.852C39.024 52.6747 39.4953 52.3807 39.9713 51.97L40.4053 52.852C39.9853 53.272 39.486 53.5893 38.9073 53.804C38.338 54.0093 37.708 54.112 37.0173 54.112ZM42.1916 43.696H43.3256V54H42.1916V43.696ZM45.5275 46.958H46.6615V54H45.5275V46.958ZM46.8015 43.976V45.264H45.4155V43.976H46.8015ZM54.7575 50.444H49.5915C49.6008 51.34 49.8062 52.0167 50.2075 52.474C50.6182 52.9313 51.2108 53.16 51.9855 53.16C52.8068 53.16 53.5628 52.8847 54.2535 52.334L54.6315 53.16C54.3235 53.4493 53.9268 53.678 53.4415 53.846C52.9655 54.014 52.4755 54.098 51.9715 54.098C50.8702 54.098 50.0068 53.776 49.3815 53.132C48.7562 52.4787 48.4435 51.5873 48.4435 50.458C48.4435 49.7393 48.5835 49.1047 48.8635 48.554C49.1435 47.994 49.5355 47.56 50.0395 47.252C50.5435 46.944 51.1175 46.79 51.7615 46.79C52.6948 46.79 53.4275 47.098 53.9595 47.714C54.4915 48.3207 54.7575 49.1607 54.7575 50.234V50.444ZM51.7755 47.672C51.1875 47.672 50.7068 47.8493 50.3335 48.204C49.9695 48.5587 49.7362 49.058 49.6335 49.702H53.7355C53.6795 49.0393 53.4835 48.5353 53.1475 48.19C52.8208 47.8447 52.3635 47.672 51.7755 47.672ZM59.9927 46.79C61.6821 46.79 62.5267 47.7187 62.5267 49.576V54H61.3927V49.632C61.3927 48.9787 61.2621 48.5027 61.0007 48.204C60.7394 47.896 60.3287 47.742 59.7687 47.742C59.1154 47.742 58.5927 47.9427 58.2007 48.344C57.8087 48.7453 57.6127 49.2867 57.6127 49.968V54H56.4787V48.932C56.4787 48.204 56.4414 47.546 56.3667 46.958H57.4447L57.5567 48.218C57.7714 47.7607 58.0934 47.4107 58.5227 47.168C58.9521 46.916 59.4421 46.79 59.9927 46.79ZM66.1802 47.854V51.704C66.1802 52.2267 66.2875 52.5953 66.5022 52.81C66.7168 53.0153 67.0202 53.118 67.4122 53.118C67.6735 53.118 67.9255 53.076 68.1682 52.992V53.958C67.8788 54.0513 67.5522 54.098 67.1882 54.098C66.5162 54.098 65.9888 53.9113 65.6062 53.538C65.2328 53.1553 65.0462 52.5953 65.0462 51.858V47.854H63.6742V46.958H65.0462V45.152L66.1802 44.746V46.958H68.1962V47.854H66.1802Z" fill="white"/>
<rect x="150" y="33" width="100" height="32" rx="2" fill="#363636"/>
<path d="M187.017 54.112C186.075 54.112 185.253 53.9067 184.553 53.496C183.863 53.0853 183.331 52.4973 182.957 51.732C182.584 50.9573 182.397 50.0473 182.397 49.002C182.397 47.9567 182.584 47.056 182.957 46.3C183.331 45.5347 183.863 44.9467 184.553 44.536C185.253 44.1253 186.075 43.92 187.017 43.92C187.708 43.92 188.338 44.0273 188.907 44.242C189.486 44.4473 189.985 44.76 190.405 45.18L189.971 46.062C189.495 45.6513 189.024 45.3573 188.557 45.18C188.1 45.0027 187.591 44.914 187.031 44.914C185.939 44.914 185.09 45.2687 184.483 45.978C183.886 46.6873 183.587 47.6953 183.587 49.002C183.587 50.318 183.886 51.3353 184.483 52.054C185.081 52.7633 185.93 53.118 187.031 53.118C187.591 53.118 188.1 53.0293 188.557 52.852C189.024 52.6747 189.495 52.3807 189.971 51.97L190.405 52.852C189.985 53.272 189.486 53.5893 188.907 53.804C188.338 54.0093 187.708 54.112 187.017 54.112ZM192.192 43.696H193.326V54H192.192V43.696ZM195.528 46.958H196.662V54H195.528V46.958ZM196.802 43.976V45.264H195.416V43.976H196.802ZM204.757 50.444H199.591C199.601 51.34 199.806 52.0167 200.207 52.474C200.618 52.9313 201.211 53.16 201.985 53.16C202.807 53.16 203.563 52.8847 204.253 52.334L204.631 53.16C204.323 53.4493 203.927 53.678 203.441 53.846C202.965 54.014 202.475 54.098 201.971 54.098C200.87 54.098 200.007 53.776 199.381 53.132C198.756 52.4787 198.443 51.5873 198.443 50.458C198.443 49.7393 198.583 49.1047 198.863 48.554C199.143 47.994 199.535 47.56 200.039 47.252C200.543 46.944 201.117 46.79 201.761 46.79C202.695 46.79 203.427 47.098 203.959 47.714C204.491 48.3207 204.757 49.1607 204.757 50.234V50.444ZM201.775 47.672C201.187 47.672 200.707 47.8493 200.333 48.204C199.969 48.5587 199.736 49.058 199.633 49.702H203.735C203.679 49.0393 203.483 48.5353 203.147 48.19C202.821 47.8447 202.363 47.672 201.775 47.672ZM209.993 46.79C211.682 46.79 212.527 47.7187 212.527 49.576V54H211.393V49.632C211.393 48.9787 211.262 48.5027 211.001 48.204C210.739 47.896 210.329 47.742 209.769 47.742C209.115 47.742 208.593 47.9427 208.201 48.344C207.809 48.7453 207.613 49.2867 207.613 49.968V54H206.479V48.932C206.479 48.204 206.441 47.546 206.367 46.958H207.445L207.557 48.218C207.771 47.7607 208.093 47.4107 208.523 47.168C208.952 46.916 209.442 46.79 209.993 46.79ZM216.18 47.854V51.704C216.18 52.2267 216.288 52.5953 216.502 52.81C216.717 53.0153 217.02 53.118 217.412 53.118C217.674 53.118 217.926 53.076 218.168 52.992V53.958C217.879 54.0513 217.552 54.098 217.188 54.098C216.516 54.098 215.989 53.9113 215.606 53.538C215.233 53.1553 215.046 52.5953 215.046 51.858V47.854H213.674V46.958H215.046V45.152L216.18 44.746V46.958H218.196V47.854H216.18Z" fill="white"/>
<path d="M1.584 5.184H6.696C8.016 5.184 9.042 5.502 9.774 6.138C10.518 6.774 10.89 7.65 10.89 8.766C10.89 9.882 10.518 10.764 9.774 11.412C9.03 12.048 8.004 12.366 6.696 12.366H3.06V18H1.584V5.184ZM6.57 11.142C7.518 11.142 8.232 10.938 8.712 10.53C9.192 10.122 9.432 9.534 9.432 8.766C9.432 7.998 9.192 7.416 8.712 7.02C8.232 6.612 7.518 6.408 6.57 6.408H3.06V11.142H6.57ZM20.4254 13.428H13.7834C13.7954 14.58 14.0594 15.45 14.5754 16.038C15.1034 16.626 15.8654 16.92 16.8614 16.92C17.9174 16.92 18.8894 16.566 19.7774 15.858L20.2634 16.92C19.8674 17.292 19.3574 17.586 18.7334 17.802C18.1214 18.018 17.4914 18.126 16.8434 18.126C15.4274 18.126 14.3174 17.712 13.5134 16.884C12.7094 16.044 12.3074 14.898 12.3074 13.446C12.3074 12.522 12.4874 11.706 12.8474 10.998C13.2074 10.278 13.7114 9.72 14.3594 9.324C15.0074 8.928 15.7454 8.73 16.5734 8.73C17.7734 8.73 18.7154 9.126 19.3994 9.918C20.0834 10.698 20.4254 11.778 20.4254 13.158V13.428ZM16.5914 9.864C15.8354 9.864 15.2174 10.092 14.7374 10.548C14.2694 11.004 13.9694 11.646 13.8374 12.474H19.1114C19.0394 11.622 18.7874 10.974 18.3554 10.53C17.9354 10.086 17.3474 9.864 16.5914 9.864ZM30.2164 13.428H23.5744C23.5864 14.58 23.8504 15.45 24.3664 16.038C24.8944 16.626 25.6564 16.92 26.6524 16.92C27.7084 16.92 28.6804 16.566 29.5684 15.858L30.0544 16.92C29.6584 17.292 29.1484 17.586 28.5244 17.802C27.9124 18.018 27.2824 18.126 26.6344 18.126C25.2184 18.126 24.1084 17.712 23.3044 16.884C22.5004 16.044 22.0984 14.898 22.0984 13.446C22.0984 12.522 22.2784 11.706 22.6384 10.998C22.9984 10.278 23.5024 9.72 24.1504 9.324C24.7984 8.928 25.5364 8.73 26.3644 8.73C27.5644 8.73 28.5064 9.126 29.1904 9.918C29.8744 10.698 30.2164 11.778 30.2164 13.158V13.428ZM26.3824 9.864C25.6264 9.864 25.0084 10.092 24.5284 10.548C24.0604 11.004 23.7604 11.646 23.6284 12.474H28.9024C28.8304 11.622 28.5784 10.974 28.1464 10.53C27.7264 10.086 27.1384 9.864 26.3824 9.864ZM36.6414 8.73C36.9414 8.73 37.2174 8.766 37.4694 8.838L37.4334 10.17C37.1574 10.074 36.8394 10.026 36.4794 10.026C35.6034 10.026 34.9494 10.302 34.5174 10.854C34.0974 11.394 33.8874 12.054 33.8874 12.834V18H32.4294V11.484C32.4294 10.548 32.3814 9.702 32.2854 8.946H33.6714L33.8154 10.62C34.0434 10.008 34.4094 9.54 34.9134 9.216C35.4174 8.892 35.9934 8.73 36.6414 8.73ZM45.5882 10.098V15.048C45.5882 15.72 45.7262 16.194 46.0022 16.47C46.2782 16.734 46.6682 16.866 47.1722 16.866C47.5082 16.866 47.8322 16.812 48.1442 16.704V17.946C47.7722 18.066 47.3522 18.126 46.8842 18.126C46.0202 18.126 45.3422 17.886 44.8502 17.406C44.3702 16.914 44.1302 16.194 44.1302 15.246V10.098H42.3662V8.946H44.1302V6.624L45.5882 6.102V8.946H48.1802V10.098H45.5882ZM53.6812 18.126C52.8292 18.126 52.0792 17.934 51.4312 17.55C50.7832 17.166 50.2792 16.62 49.9192 15.912C49.5712 15.204 49.3972 14.376 49.3972 13.428C49.3972 12.48 49.5712 11.652 49.9192 10.944C50.2792 10.236 50.7832 9.69 51.4312 9.306C52.0792 8.922 52.8292 8.73 53.6812 8.73C54.5332 8.73 55.2832 8.922 55.9312 9.306C56.5792 9.69 57.0772 10.236 57.4252 10.944C57.7852 11.652 57.9652 12.48 57.9652 13.428C57.9652 14.376 57.7852 15.204 57.4252 15.912C57.0772 16.62 56.5792 17.166 55.9312 17.55C55.2832 17.934 54.5332 18.126 53.6812 18.126ZM53.6812 16.92C54.5812 16.92 55.2712 16.626 55.7512 16.038C56.2312 15.438 56.4712 14.568 56.4712 13.428C56.4712 12.324 56.2252 11.472 55.7332 10.872C55.2412 10.26 54.5572 9.954 53.6812 9.954C52.7932 9.954 52.1032 10.26 51.6112 10.872C51.1192 11.472 50.8732 12.324 50.8732 13.428C50.8732 14.568 51.1132 15.438 51.5932 16.038C52.0852 16.626 52.7812 16.92 53.6812 16.92ZM65.1113 5.184H70.2233C71.5433 5.184 72.5693 5.502 73.3013 6.138C74.0453 6.774 74.4173 7.65 74.4173 8.766C74.4173 9.882 74.0453 10.764 73.3013 11.412C72.5573 12.048 71.5313 12.366 70.2233 12.366H66.5873V18H65.1113V5.184ZM70.0973 11.142C71.0453 11.142 71.7593 10.938 72.2393 10.53C72.7193 10.122 72.9593 9.534 72.9593 8.766C72.9593 7.998 72.7193 7.416 72.2393 7.02C71.7593 6.612 71.0453 6.408 70.0973 6.408H66.5873V11.142H70.0973ZM83.9527 13.428H77.3107C77.3227 14.58 77.5867 15.45 78.1027 16.038C78.6307 16.626 79.3927 16.92 80.3887 16.92C81.4447 16.92 82.4167 16.566 83.3047 15.858L83.7907 16.92C83.3947 17.292 82.8847 17.586 82.2607 17.802C81.6487 18.018 81.0187 18.126 80.3707 18.126C78.9547 18.126 77.8447 17.712 77.0407 16.884C76.2367 16.044 75.8347 14.898 75.8347 13.446C75.8347 12.522 76.0147 11.706 76.3747 10.998C76.7347 10.278 77.2387 9.72 77.8867 9.324C78.5347 8.928 79.2727 8.73 80.1007 8.73C81.3007 8.73 82.2427 9.126 82.9267 9.918C83.6107 10.698 83.9527 11.778 83.9527 13.158V13.428ZM80.1187 9.864C79.3627 9.864 78.7447 10.092 78.2647 10.548C77.7967 11.004 77.4967 11.646 77.3647 12.474H82.6387C82.5667 11.622 82.3147 10.974 81.8827 10.53C81.4627 10.086 80.8747 9.864 80.1187 9.864ZM93.7437 13.428H87.1017C87.1137 14.58 87.3777 15.45 87.8937 16.038C88.4217 16.626 89.1837 16.92 90.1797 16.92C91.2357 16.92 92.2077 16.566 93.0957 15.858L93.5817 16.92C93.1857 17.292 92.6757 17.586 92.0517 17.802C91.4397 18.018 90.8097 18.126 90.1617 18.126C88.7457 18.126 87.6357 17.712 86.8317 16.884C86.0277 16.044 85.6257 14.898 85.6257 13.446C85.6257 12.522 85.8057 11.706 86.1657 10.998C86.5257 10.278 87.0297 9.72 87.6777 9.324C88.3257 8.928 89.0637 8.73 89.8917 8.73C91.0917 8.73 92.0337 9.126 92.7177 9.918C93.4017 10.698 93.7437 11.778 93.7437 13.158V13.428ZM89.9097 9.864C89.1537 9.864 88.5357 10.092 88.0557 10.548C87.5877 11.004 87.2877 11.646 87.1557 12.474H92.4297C92.3577 11.622 92.1057 10.974 91.6737 10.53C91.2537 10.086 90.6657 9.864 89.9097 9.864ZM100.169 8.73C100.469 8.73 100.745 8.766 100.997 8.838L100.961 10.17C100.685 10.074 100.367 10.026 100.007 10.026C99.1307 10.026 98.4767 10.302 98.0447 10.854C97.6247 11.394 97.4147 12.054 97.4147 12.834V18H95.9567V11.484C95.9567 10.548 95.9087 9.702 95.8127 8.946H97.1987L97.3427 10.62C97.5707 10.008 97.9367 9.54 98.4407 9.216C98.9447 8.892 99.5207 8.73 100.169 8.73Z" fill="black"/>
<rect y="189" width="100" height="32" rx="2" fill="#363636"/>
<path d="M37.0173 210.112C36.0746 210.112 35.2533 209.907 34.5533 209.496C33.8626 209.085 33.3306 208.497 32.9573 207.732C32.584 206.957 32.3973 206.047 32.3973 205.002C32.3973 203.957 32.584 203.056 32.9573 202.3C33.3306 201.535 33.8626 200.947 34.5533 200.536C35.2533 200.125 36.0746 199.92 37.0173 199.92C37.708 199.92 38.338 200.027 38.9073 200.242C39.486 200.447 39.9853 200.76 40.4053 201.18L39.9713 202.062C39.4953 201.651 39.024 201.357 38.5573 201.18C38.1 201.003 37.5913 200.914 37.0313 200.914C35.9393 200.914 35.09 201.269 34.4833 201.978C33.886 202.687 33.5873 203.695 33.5873 205.002C33.5873 206.318 33.886 207.335 34.4833 208.054C35.0806 208.763 35.93 209.118 37.0313 209.118C37.5913 209.118 38.1 209.029 38.5573 208.852C39.024 208.675 39.4953 208.381 39.9713 207.97L40.4053 208.852C39.9853 209.272 39.486 209.589 38.9073 209.804C38.338 210.009 37.708 210.112 37.0173 210.112ZM42.1916 199.696H43.3256V210H42.1916V199.696ZM45.5275 202.958H46.6615V210H45.5275V202.958ZM46.8015 199.976V201.264H45.4155V199.976H46.8015ZM54.7575 206.444H49.5915C49.6008 207.34 49.8062 208.017 50.2075 208.474C50.6182 208.931 51.2108 209.16 51.9855 209.16C52.8068 209.16 53.5628 208.885 54.2535 208.334L54.6315 209.16C54.3235 209.449 53.9268 209.678 53.4415 209.846C52.9655 210.014 52.4755 210.098 51.9715 210.098C50.8702 210.098 50.0068 209.776 49.3815 209.132C48.7562 208.479 48.4435 207.587 48.4435 206.458C48.4435 205.739 48.5835 205.105 48.8635 204.554C49.1435 203.994 49.5355 203.56 50.0395 203.252C50.5435 202.944 51.1175 202.79 51.7615 202.79C52.6948 202.79 53.4275 203.098 53.9595 203.714C54.4915 204.321 54.7575 205.161 54.7575 206.234V206.444ZM51.7755 203.672C51.1875 203.672 50.7068 203.849 50.3335 204.204C49.9695 204.559 49.7362 205.058 49.6335 205.702H53.7355C53.6795 205.039 53.4835 204.535 53.1475 204.19C52.8208 203.845 52.3635 203.672 51.7755 203.672ZM59.9927 202.79C61.6821 202.79 62.5267 203.719 62.5267 205.576V210H61.3927V205.632C61.3927 204.979 61.2621 204.503 61.0007 204.204C60.7394 203.896 60.3287 203.742 59.7687 203.742C59.1154 203.742 58.5927 203.943 58.2007 204.344C57.8087 204.745 57.6127 205.287 57.6127 205.968V210H56.4787V204.932C56.4787 204.204 56.4414 203.546 56.3667 202.958H57.4447L57.5567 204.218C57.7714 203.761 58.0934 203.411 58.5227 203.168C58.9521 202.916 59.4421 202.79 59.9927 202.79ZM66.1802 203.854V207.704C66.1802 208.227 66.2875 208.595 66.5022 208.81C66.7168 209.015 67.0202 209.118 67.4122 209.118C67.6735 209.118 67.9255 209.076 68.1682 208.992V209.958C67.8788 210.051 67.5522 210.098 67.1882 210.098C66.5162 210.098 65.9888 209.911 65.6062 209.538C65.2328 209.155 65.0462 208.595 65.0462 207.858V203.854H63.6742V202.958H65.0462V201.152L66.1802 200.746V202.958H68.1962V203.854H66.1802Z" fill="white"/>
<rect y="135" width="100" height="32" rx="2" fill="#363636"/>
<path d="M37.0173 156.112C36.0746 156.112 35.2533 155.907 34.5533 155.496C33.8626 155.085 33.3306 154.497 32.9573 153.732C32.584 152.957 32.3973 152.047 32.3973 151.002C32.3973 149.957 32.584 149.056 32.9573 148.3C33.3306 147.535 33.8626 146.947 34.5533 146.536C35.2533 146.125 36.0746 145.92 37.0173 145.92C37.708 145.92 38.338 146.027 38.9073 146.242C39.486 146.447 39.9853 146.76 40.4053 147.18L39.9713 148.062C39.4953 147.651 39.024 147.357 38.5573 147.18C38.1 147.003 37.5913 146.914 37.0313 146.914C35.9393 146.914 35.09 147.269 34.4833 147.978C33.886 148.687 33.5873 149.695 33.5873 151.002C33.5873 152.318 33.886 153.335 34.4833 154.054C35.0806 154.763 35.93 155.118 37.0313 155.118C37.5913 155.118 38.1 155.029 38.5573 154.852C39.024 154.675 39.4953 154.381 39.9713 153.97L40.4053 154.852C39.9853 155.272 39.486 155.589 38.9073 155.804C38.338 156.009 37.708 156.112 37.0173 156.112ZM42.1916 145.696H43.3256V156H42.1916V145.696ZM45.5275 148.958H46.6615V156H45.5275V148.958ZM46.8015 145.976V147.264H45.4155V145.976H46.8015ZM54.7575 152.444H49.5915C49.6008 153.34 49.8062 154.017 50.2075 154.474C50.6182 154.931 51.2108 155.16 51.9855 155.16C52.8068 155.16 53.5628 154.885 54.2535 154.334L54.6315 155.16C54.3235 155.449 53.9268 155.678 53.4415 155.846C52.9655 156.014 52.4755 156.098 51.9715 156.098C50.8702 156.098 50.0068 155.776 49.3815 155.132C48.7562 154.479 48.4435 153.587 48.4435 152.458C48.4435 151.739 48.5835 151.105 48.8635 150.554C49.1435 149.994 49.5355 149.56 50.0395 149.252C50.5435 148.944 51.1175 148.79 51.7615 148.79C52.6948 148.79 53.4275 149.098 53.9595 149.714C54.4915 150.321 54.7575 151.161 54.7575 152.234V152.444ZM51.7755 149.672C51.1875 149.672 50.7068 149.849 50.3335 150.204C49.9695 150.559 49.7362 151.058 49.6335 151.702H53.7355C53.6795 151.039 53.4835 150.535 53.1475 150.19C52.8208 149.845 52.3635 149.672 51.7755 149.672ZM59.9927 148.79C61.6821 148.79 62.5267 149.719 62.5267 151.576V156H61.3927V151.632C61.3927 150.979 61.2621 150.503 61.0007 150.204C60.7394 149.896 60.3287 149.742 59.7687 149.742C59.1154 149.742 58.5927 149.943 58.2007 150.344C57.8087 150.745 57.6127 151.287 57.6127 151.968V156H56.4787V150.932C56.4787 150.204 56.4414 149.546 56.3667 148.958H57.4447L57.5567 150.218C57.7714 149.761 58.0934 149.411 58.5227 149.168C58.9521 148.916 59.4421 148.79 59.9927 148.79ZM66.1802 149.854V153.704C66.1802 154.227 66.2875 154.595 66.5022 154.81C66.7168 155.015 67.0202 155.118 67.4122 155.118C67.6735 155.118 67.9255 155.076 68.1682 154.992V155.958C67.8788 156.051 67.5522 156.098 67.1882 156.098C66.5162 156.098 65.9888 155.911 65.6062 155.538C65.2328 155.155 65.0462 154.595 65.0462 153.858V149.854H63.6742V148.958H65.0462V147.152L66.1802 146.746V148.958H68.1962V149.854H66.1802Z" fill="white"/>
<rect x="150" y="162" width="100" height="32" rx="2" fill="#363636"/>
<path d="M183.458 183.112C181.899 183.112 180.658 182.692 179.734 181.852L180.168 180.97C180.662 181.39 181.166 181.689 181.68 181.866C182.193 182.043 182.79 182.132 183.472 182.132C184.274 182.132 184.89 181.978 185.32 181.67C185.758 181.353 185.978 180.909 185.978 180.34C185.978 180.004 185.87 179.733 185.656 179.528C185.45 179.313 185.175 179.145 184.83 179.024C184.494 178.903 184.041 178.777 183.472 178.646C182.706 178.478 182.076 178.296 181.582 178.1C181.087 177.904 180.686 177.624 180.378 177.26C180.07 176.887 179.916 176.401 179.916 175.804C179.916 175.235 180.065 174.735 180.364 174.306C180.662 173.867 181.082 173.527 181.624 173.284C182.174 173.041 182.814 172.92 183.542 172.92C184.232 172.92 184.876 173.027 185.474 173.242C186.071 173.457 186.575 173.769 186.986 174.18L186.538 175.062C186.071 174.661 185.595 174.367 185.11 174.18C184.634 173.993 184.111 173.9 183.542 173.9C182.767 173.9 182.16 174.068 181.722 174.404C181.283 174.731 181.064 175.183 181.064 175.762C181.064 176.266 181.255 176.644 181.638 176.896C182.02 177.148 182.608 177.367 183.402 177.554C184.26 177.759 184.932 177.951 185.418 178.128C185.912 178.296 186.323 178.557 186.65 178.912C186.976 179.257 187.14 179.719 187.14 180.298C187.14 180.858 186.99 181.353 186.692 181.782C186.393 182.202 185.964 182.529 185.404 182.762C184.853 182.995 184.204 183.112 183.458 183.112ZM194.77 179.444H189.604C189.614 180.34 189.819 181.017 190.22 181.474C190.631 181.931 191.224 182.16 191.998 182.16C192.82 182.16 193.576 181.885 194.266 181.334L194.644 182.16C194.336 182.449 193.94 182.678 193.454 182.846C192.978 183.014 192.488 183.098 191.984 183.098C190.883 183.098 190.02 182.776 189.394 182.132C188.769 181.479 188.456 180.587 188.456 179.458C188.456 178.739 188.596 178.105 188.876 177.554C189.156 176.994 189.548 176.56 190.052 176.252C190.556 175.944 191.13 175.79 191.774 175.79C192.708 175.79 193.44 176.098 193.972 176.714C194.504 177.321 194.77 178.161 194.77 179.234V179.444ZM191.788 176.672C191.2 176.672 190.72 176.849 190.346 177.204C189.982 177.559 189.749 178.058 189.646 178.702H193.748C193.692 178.039 193.496 177.535 193.16 177.19C192.834 176.845 192.376 176.672 191.788 176.672ZM199.767 175.79C200.001 175.79 200.215 175.818 200.411 175.874L200.383 176.91C200.169 176.835 199.921 176.798 199.641 176.798C198.96 176.798 198.451 177.013 198.115 177.442C197.789 177.862 197.625 178.375 197.625 178.982V183H196.491V177.932C196.491 177.204 196.454 176.546 196.379 175.958H197.457L197.569 177.26C197.747 176.784 198.031 176.42 198.423 176.168C198.815 175.916 199.263 175.79 199.767 175.79ZM208.176 175.972L205.138 183H204.06L201.064 175.972H202.254L204.634 181.768L207.042 175.972H208.176ZM215.237 179.444H210.071C210.08 180.34 210.286 181.017 210.687 181.474C211.098 181.931 211.69 182.16 212.465 182.16C213.286 182.16 214.042 181.885 214.733 181.334L215.111 182.16C214.803 182.449 214.406 182.678 213.921 182.846C213.445 183.014 212.955 183.098 212.451 183.098C211.35 183.098 210.486 182.776 209.861 182.132C209.236 181.479 208.923 180.587 208.923 179.458C208.923 178.739 209.063 178.105 209.343 177.554C209.623 176.994 210.015 176.56 210.519 176.252C211.023 175.944 211.597 175.79 212.241 175.79C213.174 175.79 213.907 176.098 214.439 176.714C214.971 177.321 215.237 178.161 215.237 179.234V179.444ZM212.255 176.672C211.667 176.672 211.186 176.849 210.813 177.204C210.449 177.559 210.216 178.058 210.113 178.702H214.215C214.159 178.039 213.963 177.535 213.627 177.19C213.3 176.845 212.843 176.672 212.255 176.672ZM220.234 175.79C220.468 175.79 220.682 175.818 220.878 175.874L220.85 176.91C220.636 176.835 220.388 176.798 220.108 176.798C219.427 176.798 218.918 177.013 218.582 177.442C218.256 177.862 218.092 178.375 218.092 178.982V183H216.958V177.932C216.958 177.204 216.921 176.546 216.846 175.958H217.924L218.036 177.26C218.214 176.784 218.498 176.42 218.89 176.168C219.282 175.916 219.73 175.79 220.234 175.79Z" fill="white"/>
<path d="M7.056 120.144C5.844 120.144 4.788 119.88 3.888 119.352C3 118.824 2.316 118.068 1.836 117.084C1.356 116.088 1.116 114.918 1.116 113.574C1.116 112.23 1.356 111.072 1.836 110.1C2.316 109.116 3 108.36 3.888 107.832C4.788 107.304 5.844 107.04 7.056 107.04C7.944 107.04 8.754 107.178 9.486 107.454C10.23 107.718 10.872 108.12 11.412 108.66L10.854 109.794C10.242 109.266 9.636 108.888 9.036 108.66C8.448 108.432 7.794 108.318 7.074 108.318C5.67 108.318 4.578 108.774 3.798 109.686C3.03 110.598 2.646 111.894 2.646 113.574C2.646 115.266 3.03 116.574 3.798 117.498C4.566 118.41 5.658 118.866 7.074 118.866C7.794 118.866 8.448 118.752 9.036 118.524C9.636 118.296 10.242 117.918 10.854 117.39L11.412 118.524C10.872 119.064 10.23 119.472 9.486 119.748C8.754 120.012 7.944 120.144 7.056 120.144ZM13.7087 106.752H15.1667V120H13.7087V106.752ZM17.9978 110.946H19.4558V120H17.9978V110.946ZM19.6358 107.112V108.768H17.8538V107.112H19.6358ZM29.8648 115.428H23.2228C23.2348 116.58 23.4988 117.45 24.0148 118.038C24.5428 118.626 25.3048 118.92 26.3008 118.92C27.3568 118.92 28.3288 118.566 29.2168 117.858L29.7028 118.92C29.3068 119.292 28.7968 119.586 28.1728 119.802C27.5608 120.018 26.9308 120.126 26.2828 120.126C24.8668 120.126 23.7568 119.712 22.9528 118.884C22.1488 118.044 21.7468 116.898 21.7468 115.446C21.7468 114.522 21.9268 113.706 22.2868 112.998C22.6468 112.278 23.1508 111.72 23.7988 111.324C24.4468 110.928 25.1848 110.73 26.0128 110.73C27.2128 110.73 28.1548 111.126 28.8388 111.918C29.5228 112.698 29.8648 113.778 29.8648 115.158V115.428ZM26.0308 111.864C25.2748 111.864 24.6568 112.092 24.1768 112.548C23.7088 113.004 23.4088 113.646 23.2768 114.474H28.5508C28.4788 113.622 28.2268 112.974 27.7948 112.53C27.3748 112.086 26.7868 111.864 26.0308 111.864ZM36.5958 110.73C38.7678 110.73 39.8538 111.924 39.8538 114.312V120H38.3958V114.384C38.3958 113.544 38.2278 112.932 37.8918 112.548C37.5558 112.152 37.0278 111.954 36.3078 111.954C35.4678 111.954 34.7958 112.212 34.2918 112.728C33.7878 113.244 33.5358 113.94 33.5358 114.816V120H32.0778V113.484C32.0778 112.548 32.0298 111.702 31.9338 110.946H33.3198L33.4638 112.566C33.7398 111.978 34.1538 111.528 34.7058 111.216C35.2578 110.892 35.8878 110.73 36.5958 110.73ZM44.5511 112.098V117.048C44.5511 117.72 44.6891 118.194 44.9651 118.47C45.2411 118.734 45.6311 118.866 46.1351 118.866C46.4711 118.866 46.7951 118.812 47.1071 118.704V119.946C46.7351 120.066 46.3151 120.126 45.8471 120.126C44.9831 120.126 44.3051 119.886 43.8131 119.406C43.3331 118.914 43.0931 118.194 43.0931 117.246V112.098H41.3291V110.946H43.0931V108.624L44.5511 108.102V110.946H47.1431V112.098H44.5511ZM47.9962 120.99L52.6222 106.518H53.9722L49.3282 120.99H47.9962ZM59.195 120.144C57.191 120.144 55.595 119.604 54.407 118.524L54.965 117.39C55.601 117.93 56.249 118.314 56.909 118.542C57.569 118.77 58.337 118.884 59.213 118.884C60.245 118.884 61.037 118.686 61.589 118.29C62.153 117.882 62.435 117.312 62.435 116.58C62.435 116.148 62.297 115.8 62.021 115.536C61.757 115.26 61.403 115.044 60.959 114.888C60.527 114.732 59.945 114.57 59.213 114.402C58.229 114.186 57.419 113.952 56.783 113.7C56.147 113.448 55.631 113.088 55.235 112.62C54.839 112.14 54.641 111.516 54.641 110.748C54.641 110.016 54.833 109.374 55.217 108.822C55.601 108.258 56.141 107.82 56.837 107.508C57.545 107.196 58.367 107.04 59.303 107.04C60.191 107.04 61.019 107.178 61.787 107.454C62.555 107.73 63.203 108.132 63.731 108.66L63.155 109.794C62.555 109.278 61.943 108.9 61.319 108.66C60.707 108.42 60.035 108.3 59.303 108.3C58.307 108.3 57.527 108.516 56.963 108.948C56.399 109.368 56.117 109.95 56.117 110.694C56.117 111.342 56.363 111.828 56.855 112.152C57.347 112.476 58.103 112.758 59.123 112.998C60.227 113.262 61.091 113.508 61.715 113.736C62.351 113.952 62.879 114.288 63.299 114.744C63.719 115.188 63.929 115.782 63.929 116.526C63.929 117.246 63.737 117.882 63.353 118.434C62.969 118.974 62.417 119.394 61.697 119.694C60.989 119.994 60.155 120.144 59.195 120.144ZM73.7398 115.428H67.0978C67.1098 116.58 67.3738 117.45 67.8898 118.038C68.4178 118.626 69.1798 118.92 70.1758 118.92C71.2318 118.92 72.2038 118.566 73.0918 117.858L73.5778 118.92C73.1818 119.292 72.6718 119.586 72.0478 119.802C71.4358 120.018 70.8058 120.126 70.1578 120.126C68.7418 120.126 67.6318 119.712 66.8278 118.884C66.0238 118.044 65.6218 116.898 65.6218 115.446C65.6218 114.522 65.8018 113.706 66.1618 112.998C66.5218 112.278 67.0258 111.72 67.6738 111.324C68.3218 110.928 69.0598 110.73 69.8878 110.73C71.0878 110.73 72.0298 111.126 72.7138 111.918C73.3978 112.698 73.7398 113.778 73.7398 115.158V115.428ZM69.9058 111.864C69.1498 111.864 68.5318 112.092 68.0518 112.548C67.5838 113.004 67.2838 113.646 67.1518 114.474H72.4258C72.3538 113.622 72.1018 112.974 71.6698 112.53C71.2498 112.086 70.6618 111.864 69.9058 111.864ZM80.1648 110.73C80.4648 110.73 80.7408 110.766 80.9928 110.838L80.9568 112.17C80.6808 112.074 80.3628 112.026 80.0028 112.026C79.1268 112.026 78.4728 112.302 78.0408 112.854C77.6208 113.394 77.4108 114.054 77.4108 114.834V120H75.9528V113.484C75.9528 112.548 75.9048 111.702 75.8088 110.946H77.1948L77.3388 112.62C77.5668 112.008 77.9328 111.54 78.4368 111.216C78.9408 110.892 79.5168 110.73 80.1648 110.73ZM90.9752 110.964L87.0692 120H85.6832L81.8312 110.964H83.3612L86.4212 118.416L89.5172 110.964H90.9752ZM100.054 115.428H93.4123C93.4243 116.58 93.6883 117.45 94.2043 118.038C94.7323 118.626 95.4943 118.92 96.4903 118.92C97.5463 118.92 98.5183 118.566 99.4063 117.858L99.8923 118.92C99.4963 119.292 98.9863 119.586 98.3623 119.802C97.7503 120.018 97.1203 120.126 96.4723 120.126C95.0563 120.126 93.9463 119.712 93.1423 118.884C92.3383 118.044 91.9363 116.898 91.9363 115.446C91.9363 114.522 92.1163 113.706 92.4763 112.998C92.8363 112.278 93.3403 111.72 93.9883 111.324C94.6363 110.928 95.3743 110.73 96.2023 110.73C97.4023 110.73 98.3443 111.126 99.0283 111.918C99.7123 112.698 100.054 113.778 100.054 115.158V115.428ZM96.2203 111.864C95.4643 111.864 94.8463 112.092 94.3663 112.548C93.8983 113.004 93.5983 113.646 93.4663 114.474H98.7403C98.6683 113.622 98.4163 112.974 97.9843 112.53C97.5643 112.086 96.9763 111.864 96.2203 111.864ZM106.479 110.73C106.779 110.73 107.055 110.766 107.307 110.838L107.271 112.17C106.995 112.074 106.677 112.026 106.317 112.026C105.441 112.026 104.787 112.302 104.355 112.854C103.935 113.394 103.725 114.054 103.725 114.834V120H102.267V113.484C102.267 112.548 102.219 111.702 102.123 110.946H103.509L103.653 112.62C103.881 112.008 104.247 111.54 104.751 111.216C105.255 110.892 105.831 110.73 106.479 110.73Z" fill="black"/>
<rect y="285" width="100" height="32" rx="2" fill="#363636"/>
<path d="M37.0173 306.112C36.0746 306.112 35.2533 305.907 34.5533 305.496C33.8626 305.085 33.3306 304.497 32.9573 303.732C32.584 302.957 32.3973 302.047 32.3973 301.002C32.3973 299.957 32.584 299.056 32.9573 298.3C33.3306 297.535 33.8626 296.947 34.5533 296.536C35.2533 296.125 36.0746 295.92 37.0173 295.92C37.708 295.92 38.338 296.027 38.9073 296.242C39.486 296.447 39.9853 296.76 40.4053 297.18L39.9713 298.062C39.4953 297.651 39.024 297.357 38.5573 297.18C38.1 297.003 37.5913 296.914 37.0313 296.914C35.9393 296.914 35.09 297.269 34.4833 297.978C33.886 298.687 33.5873 299.695 33.5873 301.002C33.5873 302.318 33.886 303.335 34.4833 304.054C35.0806 304.763 35.93 305.118 37.0313 305.118C37.5913 305.118 38.1 305.029 38.5573 304.852C39.024 304.675 39.4953 304.381 39.9713 303.97L40.4053 304.852C39.9853 305.272 39.486 305.589 38.9073 305.804C38.338 306.009 37.708 306.112 37.0173 306.112ZM42.1916 295.696H43.3256V306H42.1916V295.696ZM45.5275 298.958H46.6615V306H45.5275V298.958ZM46.8015 295.976V297.264H45.4155V295.976H46.8015ZM54.7575 302.444H49.5915C49.6008 303.34 49.8062 304.017 50.2075 304.474C50.6182 304.931 51.2108 305.16 51.9855 305.16C52.8068 305.16 53.5628 304.885 54.2535 304.334L54.6315 305.16C54.3235 305.449 53.9268 305.678 53.4415 305.846C52.9655 306.014 52.4755 306.098 51.9715 306.098C50.8702 306.098 50.0068 305.776 49.3815 305.132C48.7562 304.479 48.4435 303.587 48.4435 302.458C48.4435 301.739 48.5835 301.105 48.8635 300.554C49.1435 299.994 49.5355 299.56 50.0395 299.252C50.5435 298.944 51.1175 298.79 51.7615 298.79C52.6948 298.79 53.4275 299.098 53.9595 299.714C54.4915 300.321 54.7575 301.161 54.7575 302.234V302.444ZM51.7755 299.672C51.1875 299.672 50.7068 299.849 50.3335 300.204C49.9695 300.559 49.7362 301.058 49.6335 301.702H53.7355C53.6795 301.039 53.4835 300.535 53.1475 300.19C52.8208 299.845 52.3635 299.672 51.7755 299.672ZM59.9927 298.79C61.6821 298.79 62.5267 299.719 62.5267 301.576V306H61.3927V301.632C61.3927 300.979 61.2621 300.503 61.0007 300.204C60.7394 299.896 60.3287 299.742 59.7687 299.742C59.1154 299.742 58.5927 299.943 58.2007 300.344C57.8087 300.745 57.6127 301.287 57.6127 301.968V306H56.4787V300.932C56.4787 300.204 56.4414 299.546 56.3667 298.958H57.4447L57.5567 300.218C57.7714 299.761 58.0934 299.411 58.5227 299.168C58.9521 298.916 59.4421 298.79 59.9927 298.79ZM66.1802 299.854V303.704C66.1802 304.227 66.2875 304.595 66.5022 304.81C66.7168 305.015 67.0202 305.118 67.4122 305.118C67.6735 305.118 67.9255 305.076 68.1682 304.992V305.958C67.8788 306.051 67.5522 306.098 67.1882 306.098C66.5162 306.098 65.9888 305.911 65.6062 305.538C65.2328 305.155 65.0462 304.595 65.0462 303.858V299.854H63.6742V298.958H65.0462V297.152L66.1802 296.746V298.958H68.1962V299.854H66.1802Z" fill="white"/>
<rect y="329" width="100" height="32" rx="2" fill="#363636"/>
<path d="M37.0173 350.112C36.0746 350.112 35.2533 349.907 34.5533 349.496C33.8626 349.085 33.3306 348.497 32.9573 347.732C32.584 346.957 32.3973 346.047 32.3973 345.002C32.3973 343.957 32.584 343.056 32.9573 342.3C33.3306 341.535 33.8626 340.947 34.5533 340.536C35.2533 340.125 36.0746 339.92 37.0173 339.92C37.708 339.92 38.338 340.027 38.9073 340.242C39.486 340.447 39.9853 340.76 40.4053 341.18L39.9713 342.062C39.4953 341.651 39.024 341.357 38.5573 341.18C38.1 341.003 37.5913 340.914 37.0313 340.914C35.9393 340.914 35.09 341.269 34.4833 341.978C33.886 342.687 33.5873 343.695 33.5873 345.002C33.5873 346.318 33.886 347.335 34.4833 348.054C35.0806 348.763 35.93 349.118 37.0313 349.118C37.5913 349.118 38.1 349.029 38.5573 348.852C39.024 348.675 39.4953 348.381 39.9713 347.97L40.4053 348.852C39.9853 349.272 39.486 349.589 38.9073 349.804C38.338 350.009 37.708 350.112 37.0173 350.112ZM42.1916 339.696H43.3256V350H42.1916V339.696ZM45.5275 342.958H46.6615V350H45.5275V342.958ZM46.8015 339.976V341.264H45.4155V339.976H46.8015ZM54.7575 346.444H49.5915C49.6008 347.34 49.8062 348.017 50.2075 348.474C50.6182 348.931 51.2108 349.16 51.9855 349.16C52.8068 349.16 53.5628 348.885 54.2535 348.334L54.6315 349.16C54.3235 349.449 53.9268 349.678 53.4415 349.846C52.9655 350.014 52.4755 350.098 51.9715 350.098C50.8702 350.098 50.0068 349.776 49.3815 349.132C48.7562 348.479 48.4435 347.587 48.4435 346.458C48.4435 345.739 48.5835 345.105 48.8635 344.554C49.1435 343.994 49.5355 343.56 50.0395 343.252C50.5435 342.944 51.1175 342.79 51.7615 342.79C52.6948 342.79 53.4275 343.098 53.9595 343.714C54.4915 344.321 54.7575 345.161 54.7575 346.234V346.444ZM51.7755 343.672C51.1875 343.672 50.7068 343.849 50.3335 344.204C49.9695 344.559 49.7362 345.058 49.6335 345.702H53.7355C53.6795 345.039 53.4835 344.535 53.1475 344.19C52.8208 343.845 52.3635 343.672 51.7755 343.672ZM59.9927 342.79C61.6821 342.79 62.5267 343.719 62.5267 345.576V350H61.3927V345.632C61.3927 344.979 61.2621 344.503 61.0007 344.204C60.7394 343.896 60.3287 343.742 59.7687 343.742C59.1154 343.742 58.5927 343.943 58.2007 344.344C57.8087 344.745 57.6127 345.287 57.6127 345.968V350H56.4787V344.932C56.4787 344.204 56.4414 343.546 56.3667 342.958H57.4447L57.5567 344.218C57.7714 343.761 58.0934 343.411 58.5227 343.168C58.9521 342.916 59.4421 342.79 59.9927 342.79ZM66.1802 343.854V347.704C66.1802 348.227 66.2875 348.595 66.5022 348.81C66.7168 349.015 67.0202 349.118 67.4122 349.118C67.6735 349.118 67.9255 349.076 68.1682 348.992V349.958C67.8788 350.051 67.5522 350.098 67.1882 350.098C66.5162 350.098 65.9888 349.911 65.6062 349.538C65.2328 349.155 65.0462 348.595 65.0462 347.858V343.854H63.6742V342.958H65.0462V341.152L66.1802 340.746V342.958H68.1962V343.854H66.1802Z" fill="white"/>
<rect y="383" width="100" height="32" rx="2" fill="#363636"/>
<path d="M37.0173 404.112C36.0746 404.112 35.2533 403.907 34.5533 403.496C33.8626 403.085 33.3306 402.497 32.9573 401.732C32.584 400.957 32.3973 400.047 32.3973 399.002C32.3973 397.957 32.584 397.056 32.9573 396.3C33.3306 395.535 33.8626 394.947 34.5533 394.536C35.2533 394.125 36.0746 393.92 37.0173 393.92C37.708 393.92 38.338 394.027 38.9073 394.242C39.486 394.447 39.9853 394.76 40.4053 395.18L39.9713 396.062C39.4953 395.651 39.024 395.357 38.5573 395.18C38.1 395.003 37.5913 394.914 37.0313 394.914C35.9393 394.914 35.09 395.269 34.4833 395.978C33.886 396.687 33.5873 397.695 33.5873 399.002C33.5873 400.318 33.886 401.335 34.4833 402.054C35.0806 402.763 35.93 403.118 37.0313 403.118C37.5913 403.118 38.1 403.029 38.5573 402.852C39.024 402.675 39.4953 402.381 39.9713 401.97L40.4053 402.852C39.9853 403.272 39.486 403.589 38.9073 403.804C38.338 404.009 37.708 404.112 37.0173 404.112ZM42.1916 393.696H43.3256V404H42.1916V393.696ZM45.5275 396.958H46.6615V404H45.5275V396.958ZM46.8015 393.976V395.264H45.4155V393.976H46.8015ZM54.7575 400.444H49.5915C49.6008 401.34 49.8062 402.017 50.2075 402.474C50.6182 402.931 51.2108 403.16 51.9855 403.16C52.8068 403.16 53.5628 402.885 54.2535 402.334L54.6315 403.16C54.3235 403.449 53.9268 403.678 53.4415 403.846C52.9655 404.014 52.4755 404.098 51.9715 404.098C50.8702 404.098 50.0068 403.776 49.3815 403.132C48.7562 402.479 48.4435 401.587 48.4435 400.458C48.4435 399.739 48.5835 399.105 48.8635 398.554C49.1435 397.994 49.5355 397.56 50.0395 397.252C50.5435 396.944 51.1175 396.79 51.7615 396.79C52.6948 396.79 53.4275 397.098 53.9595 397.714C54.4915 398.321 54.7575 399.161 54.7575 400.234V400.444ZM51.7755 397.672C51.1875 397.672 50.7068 397.849 50.3335 398.204C49.9695 398.559 49.7362 399.058 49.6335 399.702H53.7355C53.6795 399.039 53.4835 398.535 53.1475 398.19C52.8208 397.845 52.3635 397.672 51.7755 397.672ZM59.9927 396.79C61.6821 396.79 62.5267 397.719 62.5267 399.576V404H61.3927V399.632C61.3927 398.979 61.2621 398.503 61.0007 398.204C60.7394 397.896 60.3287 397.742 59.7687 397.742C59.1154 397.742 58.5927 397.943 58.2007 398.344C57.8087 398.745 57.6127 399.287 57.6127 399.968V404H56.4787V398.932C56.4787 398.204 56.4414 397.546 56.3667 396.958H57.4447L57.5567 398.218C57.7714 397.761 58.0934 397.411 58.5227 397.168C58.9521 396.916 59.4421 396.79 59.9927 396.79ZM66.1802 397.854V401.704C66.1802 402.227 66.2875 402.595 66.5022 402.81C66.7168 403.015 67.0202 403.118 67.4122 403.118C67.6735 403.118 67.9255 403.076 68.1682 402.992V403.958C67.8788 404.051 67.5522 404.098 67.1882 404.098C66.5162 404.098 65.9888 403.911 65.6062 403.538C65.2328 403.155 65.0462 402.595 65.0462 401.858V397.854H63.6742V396.958H65.0462V395.152L66.1802 394.746V396.958H68.1962V397.854H66.1802Z" fill="white"/>
<rect y="427" width="100" height="32" rx="2" fill="#363636"/>
<path d="M37.0173 448.112C36.0746 448.112 35.2533 447.907 34.5533 447.496C33.8626 447.085 33.3306 446.497 32.9573 445.732C32.584 444.957 32.3973 444.047 32.3973 443.002C32.3973 441.957 32.584 441.056 32.9573 440.3C33.3306 439.535 33.8626 438.947 34.5533 438.536C35.2533 438.125 36.0746 437.92 37.0173 437.92C37.708 437.92 38.338 438.027 38.9073 438.242C39.486 438.447 39.9853 438.76 40.4053 439.18L39.9713 440.062C39.4953 439.651 39.024 439.357 38.5573 439.18C38.1 439.003 37.5913 438.914 37.0313 438.914C35.9393 438.914 35.09 439.269 34.4833 439.978C33.886 440.687 33.5873 441.695 33.5873 443.002C33.5873 444.318 33.886 445.335 34.4833 446.054C35.0806 446.763 35.93 447.118 37.0313 447.118C37.5913 447.118 38.1 447.029 38.5573 446.852C39.024 446.675 39.4953 446.381 39.9713 445.97L40.4053 446.852C39.9853 447.272 39.486 447.589 38.9073 447.804C38.338 448.009 37.708 448.112 37.0173 448.112ZM42.1916 437.696H43.3256V448H42.1916V437.696ZM45.5275 440.958H46.6615V448H45.5275V440.958ZM46.8015 437.976V439.264H45.4155V437.976H46.8015ZM54.7575 444.444H49.5915C49.6008 445.34 49.8062 446.017 50.2075 446.474C50.6182 446.931 51.2108 447.16 51.9855 447.16C52.8068 447.16 53.5628 446.885 54.2535 446.334L54.6315 447.16C54.3235 447.449 53.9268 447.678 53.4415 447.846C52.9655 448.014 52.4755 448.098 51.9715 448.098C50.8702 448.098 50.0068 447.776 49.3815 447.132C48.7562 446.479 48.4435 445.587 48.4435 444.458C48.4435 443.739 48.5835 443.105 48.8635 442.554C49.1435 441.994 49.5355 441.56 50.0395 441.252C50.5435 440.944 51.1175 440.79 51.7615 440.79C52.6948 440.79 53.4275 441.098 53.9595 441.714C54.4915 442.321 54.7575 443.161 54.7575 444.234V444.444ZM51.7755 441.672C51.1875 441.672 50.7068 441.849 50.3335 442.204C49.9695 442.559 49.7362 443.058 49.6335 443.702H53.7355C53.6795 443.039 53.4835 442.535 53.1475 442.19C52.8208 441.845 52.3635 441.672 51.7755 441.672ZM59.9927 440.79C61.6821 440.79 62.5267 441.719 62.5267 443.576V448H61.3927V443.632C61.3927 442.979 61.2621 442.503 61.0007 442.204C60.7394 441.896 60.3287 441.742 59.7687 441.742C59.1154 441.742 58.5927 441.943 58.2007 442.344C57.8087 442.745 57.6127 443.287 57.6127 443.968V448H56.4787V442.932C56.4787 442.204 56.4414 441.546 56.3667 440.958H57.4447L57.5567 442.218C57.7714 441.761 58.0934 441.411 58.5227 441.168C58.9521 440.916 59.4421 440.79 59.9927 440.79ZM66.1802 441.854V445.704C66.1802 446.227 66.2875 446.595 66.5022 446.81C66.7168 447.015 67.0202 447.118 67.4122 447.118C67.6735 447.118 67.9255 447.076 68.1682 446.992V447.958C67.8788 448.051 67.5522 448.098 67.1882 448.098C66.5162 448.098 65.9888 447.911 65.6062 447.538C65.2328 447.155 65.0462 446.595 65.0462 445.858V441.854H63.6742V440.958H65.0462V439.152L66.1802 438.746V440.958H68.1962V441.854H66.1802Z" fill="white"/>
<rect x="150" y="307" width="100" height="32" rx="2" fill="#363636"/>
<path d="M177.435 328.112C175.876 328.112 174.635 327.692 173.711 326.852L174.145 325.97C174.64 326.39 175.144 326.689 175.657 326.866C176.17 327.043 176.768 327.132 177.449 327.132C178.252 327.132 178.868 326.978 179.297 326.67C179.736 326.353 179.955 325.909 179.955 325.34C179.955 325.004 179.848 324.733 179.633 324.528C179.428 324.313 179.152 324.145 178.807 324.024C178.471 323.903 178.018 323.777 177.449 323.646C176.684 323.478 176.054 323.296 175.559 323.1C175.064 322.904 174.663 322.624 174.355 322.26C174.047 321.887 173.893 321.401 173.893 320.804C173.893 320.235 174.042 319.735 174.341 319.306C174.64 318.867 175.06 318.527 175.601 318.284C176.152 318.041 176.791 317.92 177.519 317.92C178.21 317.92 178.854 318.027 179.451 318.242C180.048 318.457 180.552 318.769 180.963 319.18L180.515 320.062C180.048 319.661 179.572 319.367 179.087 319.18C178.611 318.993 178.088 318.9 177.519 318.9C176.744 318.9 176.138 319.068 175.699 319.404C175.26 319.731 175.041 320.183 175.041 320.762C175.041 321.266 175.232 321.644 175.615 321.896C175.998 322.148 176.586 322.367 177.379 322.554C178.238 322.759 178.91 322.951 179.395 323.128C179.89 323.296 180.3 323.557 180.627 323.912C180.954 324.257 181.117 324.719 181.117 325.298C181.117 325.858 180.968 326.353 180.669 326.782C180.37 327.202 179.941 327.529 179.381 327.762C178.83 327.995 178.182 328.112 177.435 328.112ZM188.748 324.444H183.582C183.591 325.34 183.796 326.017 184.198 326.474C184.608 326.931 185.201 327.16 185.976 327.16C186.797 327.16 187.553 326.885 188.244 326.334L188.622 327.16C188.314 327.449 187.917 327.678 187.432 327.846C186.956 328.014 186.466 328.098 185.962 328.098C184.86 328.098 183.997 327.776 183.372 327.132C182.746 326.479 182.434 325.587 182.434 324.458C182.434 323.739 182.574 323.105 182.854 322.554C183.134 321.994 183.526 321.56 184.03 321.252C184.534 320.944 185.108 320.79 185.752 320.79C186.685 320.79 187.418 321.098 187.95 321.714C188.482 322.321 188.748 323.161 188.748 324.234V324.444ZM185.766 321.672C185.178 321.672 184.697 321.849 184.324 322.204C183.96 322.559 183.726 323.058 183.624 323.702H187.726C187.67 323.039 187.474 322.535 187.138 322.19C186.811 321.845 186.354 321.672 185.766 321.672ZM193.745 320.79C193.978 320.79 194.193 320.818 194.389 320.874L194.361 321.91C194.146 321.835 193.899 321.798 193.619 321.798C192.938 321.798 192.429 322.013 192.093 322.442C191.766 322.862 191.603 323.375 191.603 323.982V328H190.469V322.932C190.469 322.204 190.432 321.546 190.357 320.958H191.435L191.547 322.26C191.724 321.784 192.009 321.42 192.401 321.168C192.793 320.916 193.241 320.79 193.745 320.79ZM202.153 320.972L199.115 328H198.037L195.041 320.972H196.231L198.611 326.768L201.019 320.972H202.153ZM209.215 324.444H204.049C204.058 325.34 204.263 326.017 204.665 326.474C205.075 326.931 205.668 327.16 206.443 327.16C207.264 327.16 208.02 326.885 208.711 326.334L209.089 327.16C208.781 327.449 208.384 327.678 207.899 327.846C207.423 328.014 206.933 328.098 206.429 328.098C205.327 328.098 204.464 327.776 203.839 327.132C203.213 326.479 202.901 325.587 202.901 324.458C202.901 323.739 203.041 323.105 203.321 322.554C203.601 321.994 203.993 321.56 204.497 321.252C205.001 320.944 205.575 320.79 206.219 320.79C207.152 320.79 207.885 321.098 208.417 321.714C208.949 322.321 209.215 323.161 209.215 324.234V324.444ZM206.233 321.672C205.645 321.672 205.164 321.849 204.791 322.204C204.427 322.559 204.193 323.058 204.091 323.702H208.193C208.137 323.039 207.941 322.535 207.605 322.19C207.278 321.845 206.821 321.672 206.233 321.672ZM214.212 320.79C214.445 320.79 214.66 320.818 214.856 320.874L214.828 321.91C214.613 321.835 214.366 321.798 214.086 321.798C213.404 321.798 212.896 322.013 212.56 322.442C212.233 322.862 212.07 323.375 212.07 323.982V328H210.936V322.932C210.936 322.204 210.898 321.546 210.824 320.958H211.902L212.014 322.26C212.191 321.784 212.476 321.42 212.868 321.168C213.26 320.916 213.708 320.79 214.212 320.79ZM225.916 327.034V328H220.358V327.034H222.556V319.46L220.512 320.762V319.656L223.06 318.032H223.718V327.034H225.916Z" fill="white"/>
<rect x="150" y="405" width="100" height="32" rx="2" fill="#363636"/>
<path d="M177.435 426.112C175.876 426.112 174.635 425.692 173.711 424.852L174.145 423.97C174.64 424.39 175.144 424.689 175.657 424.866C176.17 425.043 176.768 425.132 177.449 425.132C178.252 425.132 178.868 424.978 179.297 424.67C179.736 424.353 179.955 423.909 179.955 423.34C179.955 423.004 179.848 422.733 179.633 422.528C179.428 422.313 179.152 422.145 178.807 422.024C178.471 421.903 178.018 421.777 177.449 421.646C176.684 421.478 176.054 421.296 175.559 421.1C175.064 420.904 174.663 420.624 174.355 420.26C174.047 419.887 173.893 419.401 173.893 418.804C173.893 418.235 174.042 417.735 174.341 417.306C174.64 416.867 175.06 416.527 175.601 416.284C176.152 416.041 176.791 415.92 177.519 415.92C178.21 415.92 178.854 416.027 179.451 416.242C180.048 416.457 180.552 416.769 180.963 417.18L180.515 418.062C180.048 417.661 179.572 417.367 179.087 417.18C178.611 416.993 178.088 416.9 177.519 416.9C176.744 416.9 176.138 417.068 175.699 417.404C175.26 417.731 175.041 418.183 175.041 418.762C175.041 419.266 175.232 419.644 175.615 419.896C175.998 420.148 176.586 420.367 177.379 420.554C178.238 420.759 178.91 420.951 179.395 421.128C179.89 421.296 180.3 421.557 180.627 421.912C180.954 422.257 181.117 422.719 181.117 423.298C181.117 423.858 180.968 424.353 180.669 424.782C180.37 425.202 179.941 425.529 179.381 425.762C178.83 425.995 178.182 426.112 177.435 426.112ZM188.748 422.444H183.582C183.591 423.34 183.796 424.017 184.198 424.474C184.608 424.931 185.201 425.16 185.976 425.16C186.797 425.16 187.553 424.885 188.244 424.334L188.622 425.16C188.314 425.449 187.917 425.678 187.432 425.846C186.956 426.014 186.466 426.098 185.962 426.098C184.86 426.098 183.997 425.776 183.372 425.132C182.746 424.479 182.434 423.587 182.434 422.458C182.434 421.739 182.574 421.105 182.854 420.554C183.134 419.994 183.526 419.56 184.03 419.252C184.534 418.944 185.108 418.79 185.752 418.79C186.685 418.79 187.418 419.098 187.95 419.714C188.482 420.321 188.748 421.161 188.748 422.234V422.444ZM185.766 419.672C185.178 419.672 184.697 419.849 184.324 420.204C183.96 420.559 183.726 421.058 183.624 421.702H187.726C187.67 421.039 187.474 420.535 187.138 420.19C186.811 419.845 186.354 419.672 185.766 419.672ZM193.745 418.79C193.978 418.79 194.193 418.818 194.389 418.874L194.361 419.91C194.146 419.835 193.899 419.798 193.619 419.798C192.938 419.798 192.429 420.013 192.093 420.442C191.766 420.862 191.603 421.375 191.603 421.982V426H190.469V420.932C190.469 420.204 190.432 419.546 190.357 418.958H191.435L191.547 420.26C191.724 419.784 192.009 419.42 192.401 419.168C192.793 418.916 193.241 418.79 193.745 418.79ZM202.153 418.972L199.115 426H198.037L195.041 418.972H196.231L198.611 424.768L201.019 418.972H202.153ZM209.215 422.444H204.049C204.058 423.34 204.263 424.017 204.665 424.474C205.075 424.931 205.668 425.16 206.443 425.16C207.264 425.16 208.02 424.885 208.711 424.334L209.089 425.16C208.781 425.449 208.384 425.678 207.899 425.846C207.423 426.014 206.933 426.098 206.429 426.098C205.327 426.098 204.464 425.776 203.839 425.132C203.213 424.479 202.901 423.587 202.901 422.458C202.901 421.739 203.041 421.105 203.321 420.554C203.601 419.994 203.993 419.56 204.497 419.252C205.001 418.944 205.575 418.79 206.219 418.79C207.152 418.79 207.885 419.098 208.417 419.714C208.949 420.321 209.215 421.161 209.215 422.234V422.444ZM206.233 419.672C205.645 419.672 205.164 419.849 204.791 420.204C204.427 420.559 204.193 421.058 204.091 421.702H208.193C208.137 421.039 207.941 420.535 207.605 420.19C207.278 419.845 206.821 419.672 206.233 419.672ZM214.212 418.79C214.445 418.79 214.66 418.818 214.856 418.874L214.828 419.91C214.613 419.835 214.366 419.798 214.086 419.798C213.404 419.798 212.896 420.013 212.56 420.442C212.233 420.862 212.07 421.375 212.07 421.982V426H210.936V420.932C210.936 420.204 210.898 419.546 210.824 418.958H211.902L212.014 420.26C212.191 419.784 212.476 419.42 212.868 419.168C213.26 418.916 213.708 418.79 214.212 418.79ZM226.14 425.034V426H219.728V425.132L223.214 421.268C223.681 420.745 224.022 420.274 224.236 419.854C224.451 419.434 224.558 419.014 224.558 418.594C224.558 418.043 224.4 417.623 224.082 417.334C223.765 417.035 223.312 416.886 222.724 416.886C221.772 416.886 220.83 417.269 219.896 418.034L219.462 417.152C219.854 416.779 220.349 416.48 220.946 416.256C221.544 416.032 222.146 415.92 222.752 415.92C223.667 415.92 224.39 416.158 224.922 416.634C225.454 417.101 225.72 417.735 225.72 418.538C225.72 419.107 225.59 419.658 225.328 420.19C225.076 420.713 224.652 421.301 224.054 421.954L221.212 425.034H226.14Z" fill="white"/>
<rect x="300" y="351" width="100" height="32" rx="2" fill="#363636"/>
<path d="M335.765 366.876C336.334 367.035 336.778 367.324 337.095 367.744C337.412 368.155 337.571 368.668 337.571 369.284C337.571 370.152 337.282 370.824 336.703 371.3C336.124 371.767 335.308 372 334.253 372H330.109V362.032H334.113C335.13 362.032 335.919 362.261 336.479 362.718C337.048 363.166 337.333 363.805 337.333 364.636C337.333 365.168 337.193 365.63 336.913 366.022C336.642 366.405 336.26 366.689 335.765 366.876ZM331.243 366.456H333.931C334.678 366.456 335.242 366.307 335.625 366.008C336.008 365.709 336.199 365.271 336.199 364.692C336.199 363.553 335.443 362.984 333.931 362.984H331.243V366.456ZM334.155 371.048C334.939 371.048 335.513 370.903 335.877 370.614C336.25 370.315 336.437 369.863 336.437 369.256C336.437 368.033 335.676 367.422 334.155 367.422H331.243V371.048H334.155ZM342.774 364.79C343.008 364.79 343.222 364.818 343.418 364.874L343.39 365.91C343.176 365.835 342.928 365.798 342.648 365.798C341.967 365.798 341.458 366.013 341.122 366.442C340.796 366.862 340.632 367.375 340.632 367.982V372H339.498V366.932C339.498 366.204 339.461 365.546 339.386 364.958H340.464L340.576 366.26C340.754 365.784 341.038 365.42 341.43 365.168C341.822 364.916 342.27 364.79 342.774 364.79ZM347.346 372.098C346.683 372.098 346.1 371.949 345.596 371.65C345.092 371.351 344.7 370.927 344.42 370.376C344.149 369.825 344.014 369.181 344.014 368.444C344.014 367.707 344.149 367.063 344.42 366.512C344.7 365.961 345.092 365.537 345.596 365.238C346.1 364.939 346.683 364.79 347.346 364.79C348.008 364.79 348.592 364.939 349.096 365.238C349.6 365.537 349.987 365.961 350.258 366.512C350.538 367.063 350.678 367.707 350.678 368.444C350.678 369.181 350.538 369.825 350.258 370.376C349.987 370.927 349.6 371.351 349.096 371.65C348.592 371.949 348.008 372.098 347.346 372.098ZM347.346 371.16C348.046 371.16 348.582 370.931 348.956 370.474C349.329 370.007 349.516 369.331 349.516 368.444C349.516 367.585 349.324 366.923 348.942 366.456C348.559 365.98 348.027 365.742 347.346 365.742C346.655 365.742 346.118 365.98 345.736 366.456C345.353 366.923 345.162 367.585 345.162 368.444C345.162 369.331 345.348 370.007 345.722 370.474C346.104 370.931 346.646 371.16 347.346 371.16ZM357.192 372L353.58 368.612V372H352.446V361.696H353.58V368.192L356.898 364.972H358.34L354.812 368.346L358.676 372H357.192ZM365.422 368.444H360.256C360.265 369.34 360.47 370.017 360.872 370.474C361.282 370.931 361.875 371.16 362.65 371.16C363.471 371.16 364.227 370.885 364.918 370.334L365.296 371.16C364.988 371.449 364.591 371.678 364.106 371.846C363.63 372.014 363.14 372.098 362.636 372.098C361.534 372.098 360.671 371.776 360.046 371.132C359.42 370.479 359.108 369.587 359.108 368.458C359.108 367.739 359.248 367.105 359.528 366.554C359.808 365.994 360.2 365.56 360.704 365.252C361.208 364.944 361.782 364.79 362.426 364.79C363.359 364.79 364.092 365.098 364.624 365.714C365.156 366.321 365.422 367.161 365.422 368.234V368.444ZM362.44 365.672C361.852 365.672 361.371 365.849 360.998 366.204C360.634 366.559 360.4 367.058 360.298 367.702H364.4C364.344 367.039 364.148 366.535 363.812 366.19C363.485 365.845 363.028 365.672 362.44 365.672ZM370.419 364.79C370.652 364.79 370.867 364.818 371.063 364.874L371.035 365.91C370.82 365.835 370.573 365.798 370.293 365.798C369.611 365.798 369.103 366.013 368.767 366.442C368.44 366.862 368.277 367.375 368.277 367.982V372H367.143V366.932C367.143 366.204 367.105 365.546 367.031 364.958H368.109L368.221 366.26C368.398 365.784 368.683 365.42 369.075 365.168C369.467 364.916 369.915 364.79 370.419 364.79Z" fill="white"/>
<path d="M1.584 257.184H6.696C8.016 257.184 9.042 257.502 9.774 258.138C10.518 258.774 10.89 259.65 10.89 260.766C10.89 261.882 10.518 262.764 9.774 263.412C9.03 264.048 8.004 264.366 6.696 264.366H3.06V270H1.584V257.184ZM6.57 263.142C7.518 263.142 8.232 262.938 8.712 262.53C9.192 262.122 9.432 261.534 9.432 260.766C9.432 259.998 9.192 259.416 8.712 259.02C8.232 258.612 7.518 258.408 6.57 258.408H3.06V263.142H6.57ZM20.4254 265.428H13.7834C13.7954 266.58 14.0594 267.45 14.5754 268.038C15.1034 268.626 15.8654 268.92 16.8614 268.92C17.9174 268.92 18.8894 268.566 19.7774 267.858L20.2634 268.92C19.8674 269.292 19.3574 269.586 18.7334 269.802C18.1214 270.018 17.4914 270.126 16.8434 270.126C15.4274 270.126 14.3174 269.712 13.5134 268.884C12.7094 268.044 12.3074 266.898 12.3074 265.446C12.3074 264.522 12.4874 263.706 12.8474 262.998C13.2074 262.278 13.7114 261.72 14.3594 261.324C15.0074 260.928 15.7454 260.73 16.5734 260.73C17.7734 260.73 18.7154 261.126 19.3994 261.918C20.0834 262.698 20.4254 263.778 20.4254 265.158V265.428ZM16.5914 261.864C15.8354 261.864 15.2174 262.092 14.7374 262.548C14.2694 263.004 13.9694 263.646 13.8374 264.474H19.1114C19.0394 263.622 18.7874 262.974 18.3554 262.53C17.9354 262.086 17.3474 261.864 16.5914 261.864ZM30.2164 265.428H23.5744C23.5864 266.58 23.8504 267.45 24.3664 268.038C24.8944 268.626 25.6564 268.92 26.6524 268.92C27.7084 268.92 28.6804 268.566 29.5684 267.858L30.0544 268.92C29.6584 269.292 29.1484 269.586 28.5244 269.802C27.9124 270.018 27.2824 270.126 26.6344 270.126C25.2184 270.126 24.1084 269.712 23.3044 268.884C22.5004 268.044 22.0984 266.898 22.0984 265.446C22.0984 264.522 22.2784 263.706 22.6384 262.998C22.9984 262.278 23.5024 261.72 24.1504 261.324C24.7984 260.928 25.5364 260.73 26.3644 260.73C27.5644 260.73 28.5064 261.126 29.1904 261.918C29.8744 262.698 30.2164 263.778 30.2164 265.158V265.428ZM26.3824 261.864C25.6264 261.864 25.0084 262.092 24.5284 262.548C24.0604 263.004 23.7604 263.646 23.6284 264.474H28.9024C28.8304 263.622 28.5784 262.974 28.1464 262.53C27.7264 262.086 27.1384 261.864 26.3824 261.864ZM36.6414 260.73C36.9414 260.73 37.2174 260.766 37.4694 260.838L37.4334 262.17C37.1574 262.074 36.8394 262.026 36.4794 262.026C35.6034 262.026 34.9494 262.302 34.5174 262.854C34.0974 263.394 33.8874 264.054 33.8874 264.834V270H32.4294V263.484C32.4294 262.548 32.3814 261.702 32.2854 260.946H33.6714L33.8154 262.62C34.0434 262.008 34.4094 261.54 34.9134 261.216C35.4174 260.892 35.9934 260.73 36.6414 260.73ZM41.923 270.126C40.399 270.126 39.193 269.736 38.305 268.956L38.791 267.876C39.283 268.26 39.781 268.536 40.285 268.704C40.789 268.872 41.353 268.956 41.977 268.956C42.661 268.956 43.177 268.842 43.525 268.614C43.885 268.374 44.065 268.032 44.065 267.588C44.065 267.228 43.945 266.94 43.705 266.724C43.465 266.508 43.069 266.34 42.517 266.22L40.987 265.86C40.231 265.692 39.643 265.392 39.223 264.96C38.815 264.528 38.611 264.012 38.611 263.412C38.611 262.62 38.929 261.978 39.565 261.486C40.201 260.982 41.041 260.73 42.085 260.73C42.721 260.73 43.321 260.832 43.885 261.036C44.449 261.24 44.923 261.534 45.307 261.918L44.821 262.98C43.969 262.272 43.057 261.918 42.085 261.918C41.437 261.918 40.933 262.044 40.573 262.296C40.225 262.536 40.051 262.878 40.051 263.322C40.051 263.694 40.159 263.988 40.375 264.204C40.603 264.42 40.963 264.588 41.455 264.708L42.985 265.086C43.825 265.278 44.449 265.578 44.857 265.986C45.265 266.382 45.469 266.904 45.469 267.552C45.469 268.332 45.151 268.956 44.515 269.424C43.879 269.892 43.015 270.126 41.923 270.126ZM54.43 262.098V267.048C54.43 267.72 54.568 268.194 54.844 268.47C55.12 268.734 55.51 268.866 56.014 268.866C56.35 268.866 56.674 268.812 56.986 268.704V269.946C56.614 270.066 56.194 270.126 55.726 270.126C54.862 270.126 54.184 269.886 53.692 269.406C53.212 268.914 52.972 268.194 52.972 267.246V262.098H51.208V260.946H52.972V258.624L54.43 258.102V260.946H57.022V262.098H54.43ZM62.523 270.126C61.671 270.126 60.921 269.934 60.273 269.55C59.625 269.166 59.121 268.62 58.761 267.912C58.413 267.204 58.239 266.376 58.239 265.428C58.239 264.48 58.413 263.652 58.761 262.944C59.121 262.236 59.625 261.69 60.273 261.306C60.921 260.922 61.671 260.73 62.523 260.73C63.375 260.73 64.125 260.922 64.773 261.306C65.421 261.69 65.919 262.236 66.267 262.944C66.627 263.652 66.807 264.48 66.807 265.428C66.807 266.376 66.627 267.204 66.267 267.912C65.919 268.62 65.421 269.166 64.773 269.55C64.125 269.934 63.375 270.126 62.523 270.126ZM62.523 268.92C63.423 268.92 64.113 268.626 64.593 268.038C65.073 267.438 65.313 266.568 65.313 265.428C65.313 264.324 65.067 263.472 64.575 262.872C64.083 262.26 63.399 261.954 62.523 261.954C61.635 261.954 60.945 262.26 60.453 262.872C59.961 263.472 59.715 264.324 59.715 265.428C59.715 266.568 59.955 267.438 60.435 268.038C60.927 268.626 61.623 268.92 62.523 268.92ZM73.9531 257.184H79.0651C80.3851 257.184 81.4111 257.502 82.1431 258.138C82.8871 258.774 83.2591 259.65 83.2591 260.766C83.2591 261.882 82.8871 262.764 82.1431 263.412C81.3991 264.048 80.3731 264.366 79.0651 264.366H75.4291V270H73.9531V257.184ZM78.9391 263.142C79.8871 263.142 80.6011 262.938 81.0811 262.53C81.5611 262.122 81.8011 261.534 81.8011 260.766C81.8011 259.998 81.5611 259.416 81.0811 259.02C80.6011 258.612 79.8871 258.408 78.9391 258.408H75.4291V263.142H78.9391ZM92.7945 265.428H86.1525C86.1645 266.58 86.4285 267.45 86.9445 268.038C87.4725 268.626 88.2345 268.92 89.2305 268.92C90.2865 268.92 91.2585 268.566 92.1465 267.858L92.6325 268.92C92.2365 269.292 91.7265 269.586 91.1025 269.802C90.4905 270.018 89.8605 270.126 89.2125 270.126C87.7965 270.126 86.6865 269.712 85.8825 268.884C85.0785 268.044 84.6765 266.898 84.6765 265.446C84.6765 264.522 84.8565 263.706 85.2165 262.998C85.5765 262.278 86.0805 261.72 86.7285 261.324C87.3765 260.928 88.1145 260.73 88.9425 260.73C90.1425 260.73 91.0845 261.126 91.7685 261.918C92.4525 262.698 92.7945 263.778 92.7945 265.158V265.428ZM88.9605 261.864C88.2045 261.864 87.5865 262.092 87.1065 262.548C86.6385 263.004 86.3385 263.646 86.2065 264.474H91.4805C91.4085 263.622 91.1565 262.974 90.7245 262.53C90.3045 262.086 89.7165 261.864 88.9605 261.864ZM102.586 265.428H95.9435C95.9555 266.58 96.2195 267.45 96.7355 268.038C97.2635 268.626 98.0255 268.92 99.0215 268.92C100.078 268.92 101.05 268.566 101.938 267.858L102.424 268.92C102.028 269.292 101.518 269.586 100.894 269.802C100.282 270.018 99.6515 270.126 99.0035 270.126C97.5875 270.126 96.4775 269.712 95.6735 268.884C94.8695 268.044 94.4675 266.898 94.4675 265.446C94.4675 264.522 94.6475 263.706 95.0075 262.998C95.3675 262.278 95.8715 261.72 96.5195 261.324C97.1675 260.928 97.9055 260.73 98.7335 260.73C99.9335 260.73 100.876 261.126 101.56 261.918C102.244 262.698 102.586 263.778 102.586 265.158V265.428ZM98.7515 261.864C97.9955 261.864 97.3775 262.092 96.8975 262.548C96.4295 263.004 96.1295 263.646 95.9975 264.474H101.272C101.2 263.622 100.948 262.974 100.516 262.53C100.096 262.086 99.5075 261.864 98.7515 261.864ZM109.011 260.73C109.311 260.73 109.587 260.766 109.839 260.838L109.803 262.17C109.527 262.074 109.209 262.026 108.849 262.026C107.973 262.026 107.319 262.302 106.887 262.854C106.467 263.394 106.257 264.054 106.257 264.834V270H104.799V263.484C104.799 262.548 104.751 261.702 104.655 260.946H106.041L106.185 262.62C106.413 262.008 106.779 261.54 107.283 261.216C107.787 260.892 108.363 260.73 109.011 260.73ZM114.292 270.126C112.768 270.126 111.562 269.736 110.674 268.956L111.16 267.876C111.652 268.26 112.15 268.536 112.654 268.704C113.158 268.872 113.722 268.956 114.346 268.956C115.03 268.956 115.546 268.842 115.894 268.614C116.254 268.374 116.434 268.032 116.434 267.588C116.434 267.228 116.314 266.94 116.074 266.724C115.834 266.508 115.438 266.34 114.886 266.22L113.356 265.86C112.6 265.692 112.012 265.392 111.592 264.96C111.184 264.528 110.98 264.012 110.98 263.412C110.98 262.62 111.298 261.978 111.934 261.486C112.57 260.982 113.41 260.73 114.454 260.73C115.09 260.73 115.69 260.832 116.254 261.036C116.818 261.24 117.292 261.534 117.676 261.918L117.19 262.98C116.338 262.272 115.426 261.918 114.454 261.918C113.806 261.918 113.302 262.044 112.942 262.296C112.594 262.536 112.42 262.878 112.42 263.322C112.42 263.694 112.528 263.988 112.744 264.204C112.972 264.42 113.332 264.588 113.824 264.708L115.354 265.086C116.194 265.278 116.818 265.578 117.226 265.986C117.634 266.382 117.838 266.904 117.838 267.552C117.838 268.332 117.52 268.956 116.884 269.424C116.248 269.892 115.384 270.126 114.292 270.126Z" fill="black"/>
<path d="M100 399C122.667 399 127.333 421 150 421" stroke="#616161" stroke-dasharray="2 3"/>
<circle cx="150" cy="421" r="1.5" fill="white" stroke="#616161"/>
<circle cx="100" cy="399" r="1.5" fill="white" stroke="#616161"/>
<path d="M100 443C122.667 443 127.333 421 150 421" stroke="#616161" stroke-dasharray="2 3"/>
<circle cx="150" cy="421" r="1.5" fill="white" stroke="#616161"/>
<circle cx="100" cy="443" r="1.5" fill="white" stroke="#616161"/>
<path d="M100 301C122.667 301 127.333 323 150 323" stroke="#616161" stroke-dasharray="2 3"/>
<circle cx="150" cy="323" r="1.5" fill="white" stroke="#616161"/>
<circle cx="100" cy="301" r="1.5" fill="white" stroke="#616161"/>
<path d="M100 345C122.667 345 127.333 323 150 323" stroke="#616161" stroke-dasharray="2 3"/>
<circle cx="150" cy="323" r="1.5" fill="white" stroke="#616161"/>
<circle cx="100" cy="345" r="1.5" fill="white" stroke="#616161"/>
<path d="M100 49C120.833 49 129.167 49 150 49" stroke="#616161" stroke-dasharray="2 3"/>
<circle cx="150" cy="49" r="1.5" fill="white" stroke="#616161"/>
<circle cx="100" cy="49" r="1.5" fill="white" stroke="#616161"/>
<path d="M100 151C123.083 151 126.917 178 150 178" stroke="#616161" stroke-dasharray="2 3"/>
<circle cx="150" cy="178" r="1.5" fill="white" stroke="#616161"/>
<circle cx="100" cy="151" r="1.5" fill="white" stroke="#616161"/>
<path d="M100 205C123.083 205 126.917 178 150 178" stroke="#616161" stroke-dasharray="2 3"/>
<circle cx="150" cy="178" r="1.5" fill="white" stroke="#616161"/>
<circle cx="100" cy="205" r="1.5" fill="white" stroke="#616161"/>
<path d="M250 421C275.333 421 274.667 367 300 367" stroke="#616161" stroke-dasharray="2 3"/>
<circle cx="300" cy="367" r="1.5" fill="white" stroke="#616161"/>
<circle cx="250" cy="421" r="1.5" fill="white" stroke="#616161"/>
<path d="M250 323C274.5 323 275.5 367 300 367" stroke="#616161" stroke-dasharray="2 3"/>
<circle cx="300" cy="367" r="1.5" fill="white" stroke="#616161"/>
<circle cx="250" cy="323" r="1.5" fill="white" stroke="#616161"/>
</svg>
