<?xml version="1.0" encoding="UTF-8"?>
<svg width="159px" height="159px" viewBox="0 0 159 159" version="1.1" xmlns="http://www.w3.org/2000/svg" xmlns:xlink="http://www.w3.org/1999/xlink">
    <defs>
        <filter color-interpolation-filters="auto" id="filter-1">
            <feColorMatrix in="SourceGraphic" type="matrix" values="0 0 0 0 0.074510 0 0 0 0 0.098039 0 0 0 0 0.396078 0 0 0 1.000000 0"></feColorMatrix>
        </filter>
    </defs>
    <g id="v4" stroke="none" stroke-width="1" fill="none" fill-rule="evenodd">
        <g id="icons8-typescript" transform="translate(-802.000000, -3967.000000)" filter="url(#filter-1)">
            <g transform="translate(802.000000, 3967.000000)">
                <path d="M155.214286,0 L3.78571429,0 C1.69221429,0 0,1.696 0,3.78571429 L0,155.214286 C0,157.304 1.69221429,159 3.78571429,159 L155.214286,159 C157.307786,159 159,157.304 159,155.214286 L159,3.78571429 C159,1.696 157.307786,0 155.214286,0 Z M94.6428571,84.9703571 L75.7142857,84.9703571 L75.7142857,143.857143 L60.5714286,143.857143 L60.5714286,84.9703571 L41.6428571,84.9703571 L41.6428571,71.9285714 L94.6428571,71.9285714 L94.6428571,84.9703571 Z M98.8866429,140.495429 L98.8866429,124.754429 C98.8866429,124.754429 107.484,131.235571 117.800071,131.235571 C128.116143,131.235571 127.718643,124.489429 127.718643,123.565714 C127.718643,113.775857 98.4891429,113.775857 98.4891429,92.0875 C98.4891429,62.593 141.078429,74.2302857 141.078429,74.2302857 L140.548429,88.2525714 C140.548429,88.2525714 133.404786,83.4901429 125.337429,83.4901429 C117.270071,83.4901429 114.358857,87.3250714 114.358857,91.425 C114.358857,102.006071 143.853357,100.949857 143.853357,122.2445 C143.857143,155.043929 98.8866429,140.495429 98.8866429,140.495429 Z" id="Shape" fill="#000000" fill-rule="nonzero"></path>
            </g>
        </g>
    </g>
</svg>
