<?xml version="1.0" encoding="UTF-8"?>
<svg width="22px" height="19px" viewBox="0 0 22 19" version="1.1" xmlns="http://www.w3.org/2000/svg" xmlns:xlink="http://www.w3.org/1999/xlink">
    <title>icon-modules</title>
    <g id="v3" stroke="none" stroke-width="1" fill="none" fill-rule="evenodd" opacity="0.397341774">
        <g id="Deepkit-Frameworkv3" transform="translate(-776.000000, -2035.000000)" fill="#F9EDDF" fill-rule="nonzero">
            <path d="M797.296928,2046.13197 L794.020478,2044.63026 C793.770193,2042.46871 792.564278,2040.60296 790.83504,2039.4653 L790.83504,2037.12173 C790.83504,2036.91695 790.721274,2036.73493 790.516496,2036.64391 L787.035267,2035.05119 C786.898749,2034.98294 786.739477,2034.98294 786.602958,2035.05119 L783.098976,2036.66667 C782.916951,2036.75768 782.780432,2036.9397 782.780432,2037.14448 L782.780432,2039.4653 C781.051195,2040.62571 779.845279,2042.49147 779.594994,2044.65301 L776.318544,2046.13197 C776.136519,2046.22298 776,2046.40501 776,2046.60978 L776,2051.22867 C776,2051.43345 776.113766,2051.61547 776.318544,2051.70648 L779.822526,2053.32196 C779.890785,2053.34471 779.959044,2053.36746 780.050057,2053.36746 C780.141069,2053.36746 780.209329,2053.34471 780.277588,2053.32196 L783.349261,2051.91126 C784.373151,2052.48009 785.556314,2052.82139 786.807736,2052.82139 C788.059158,2052.82139 789.242321,2052.48009 790.266212,2051.91126 L793.337884,2053.32196 C793.406143,2053.34471 793.474403,2053.36746 793.565415,2053.36746 C793.633675,2053.36746 793.724687,2053.34471 793.792947,2053.32196 L797.296928,2051.70648 C797.478953,2051.61547 797.615472,2051.43345 797.615472,2051.22867 L797.615472,2046.60978 C797.615472,2046.40501 797.501706,2046.20023 797.296928,2046.13197 Z M790.584755,2047.4289 L793.042093,2048.5438 L793.042093,2052.00228 L790.584755,2050.88737 L790.584755,2047.4289 Z M793.565415,2047.63367 L791.335609,2046.60978 L793.565415,2045.58589 L795.817975,2046.60978 L793.565415,2047.63367 Z M783.827076,2037.96359 L786.284414,2039.0785 L786.284414,2042.53697 L783.827076,2041.42207 L783.827076,2037.96359 L783.827076,2037.96359 Z M787.331058,2039.0785 L789.788396,2037.96359 L789.788396,2041.42207 L787.331058,2042.53697 L787.331058,2039.0785 Z M786.807736,2036.09784 L789.037543,2037.12173 L786.807736,2038.16837 L784.577929,2037.12173 L786.807736,2036.09784 Z M780.573379,2048.5438 L783.030717,2047.4289 L783.030717,2050.88737 L780.573379,2052.00228 L780.573379,2048.5438 L780.573379,2048.5438 Z M780.050057,2047.63367 L777.797497,2046.60978 L780.050057,2045.58589 L782.279863,2046.60978 L780.050057,2047.63367 Z M777.069397,2047.4289 L779.526735,2048.5438 L779.526735,2052.00228 L777.069397,2050.88737 L777.069397,2047.4289 Z M784.077361,2051.09215 L784.077361,2046.60978 C784.077361,2046.40501 783.963595,2046.22298 783.758817,2046.13197 L780.618885,2044.69852 C780.823663,2043.12856 781.59727,2041.74061 782.734926,2040.78498 L782.734926,2041.76337 C782.734926,2041.96815 782.848692,2042.15017 783.05347,2042.24118 L786.580205,2043.8339 C786.648464,2043.85666 786.716724,2043.87941 786.807736,2043.87941 C786.898749,2043.87941 786.967008,2043.85666 787.035267,2043.8339 L790.539249,2042.21843 C790.721274,2042.12742 790.857793,2041.94539 790.857793,2041.74061 L790.857793,2040.76223 C791.995449,2041.74061 792.769056,2043.12856 792.973834,2044.67577 L789.833902,2046.10922 C789.651877,2046.20023 789.515358,2046.38225 789.515358,2046.58703 L789.515358,2051.09215 C788.696246,2051.50171 787.763367,2051.72924 786.784983,2051.72924 C785.829352,2051.75199 784.919226,2051.50171 784.077361,2051.09215 Z M794.11149,2052.00228 L794.11149,2048.5438 L796.568828,2047.4289 L796.568828,2050.88737 L794.11149,2052.00228 Z" id="icon-modules"></path>
        </g>
    </g>
</svg>