<?xml version="1.0" encoding="UTF-8"?>
<svg width="21px" height="17px" viewBox="0 0 21 17" version="1.1" xmlns="http://www.w3.org/2000/svg" xmlns:xlink="http://www.w3.org/1999/xlink">
    <title>icon-template</title>
    <g id="v3" stroke="none" stroke-width="1" fill="none" fill-rule="evenodd" opacity="0.397341774">
        <g id="Deepkit-Frameworkv3" transform="translate(-59.000000, -2181.000000)" fill="#F9EDDF" fill-rule="nonzero">
            <path d="M67.1483488,2181 C66.9305958,2181 66.7128702,2181.08676 66.5464093,2181.26032 L59.2496709,2188.87342 C58.9167764,2189.22054 58.9167764,2189.78151 59.2496709,2190.12859 L66.5464093,2197.73991 C66.7124616,2197.91304 66.9303779,2198 67.1483488,2198 C67.3662924,2198 67.5842905,2197.91304 67.7502883,2197.73991 C68.0832372,2197.39279 68.0832372,2196.83171 67.7502883,2196.48463 L61.0555438,2189.50102 L67.7502883,2182.5156 C68.0832372,2182.16852 68.0832372,2181.60652 67.7502883,2181.26032 C67.5838274,2181.08676 67.3661017,2181 67.1483488,2181 Z M71.851682,2181 C71.6339299,2181 71.4161233,2181.08676 71.2496903,2181.26032 C70.9167699,2181.60652 70.9167699,2182.16852 71.2496903,2182.5156 L77.9444641,2189.50102 L71.2496903,2196.48463 C70.9167699,2196.83171 70.9167699,2197.39279 71.2496903,2197.73991 C71.4156875,2197.91304 71.6337392,2198 71.851682,2198 C72.0696792,2198 72.2875675,2197.91304 72.4536192,2197.73991 L79.7503301,2190.12859 C80.0832233,2189.78151 80.0832233,2189.22054 79.7503301,2188.87342 L72.4536192,2181.26032 C72.2871862,2181.08676 72.0694341,2181 71.851682,2181 Z" id="icon-template"></path>
        </g>
    </g>
</svg>