<?xml version="1.0" encoding="UTF-8"?>
<svg width="24px" height="25px" viewBox="0 0 24 25" version="1.1" xmlns="http://www.w3.org/2000/svg" xmlns:xlink="http://www.w3.org/1999/xlink">
    <title>icon-config</title>
    <defs>
        <filter id="filter-1">
            <feColorMatrix in="SourceGraphic" type="matrix" values="0 0 0 0 0.976471 0 0 0 0 0.929412 0 0 0 0 0.874510 0 0 0 1.000000 0"></feColorMatrix>
        </filter>
    </defs>
    <g id="v3" stroke="none" stroke-width="1" fill="none" fill-rule="evenodd" opacity="0.4">
        <g id="icon-config" transform="translate(-58.000000, -2032.000000)" filter="url(#filter-1)">
            <g transform="translate(58.000000, 2032.000000)" id="Group" fill="#000000" fill-rule="nonzero">
                <path d="M12.6923077,0.669642857 L12.6923077,14.2321429 L11.3076923,14.2321429 L11.3076923,0.669642857 C11.3076923,0.299809319 11.617649,0 12,0 C12.382351,0 12.6923077,0.299809319 12.6923077,0.669642857 Z" id="Path"></path>
                <path d="M12.6923077,20.0357143 L12.6923077,24.3303571 C12.6923077,24.7001907 12.382351,25 12,25 C11.617649,25 11.3076923,24.7001907 11.3076923,24.3303571 L11.3076923,20.0357143 L12.6923077,20.0357143 Z" id="Path"></path>
                <path d="M4.38461538,0.669642857 L4.38461538,5.13392857 L3,5.13392857 L3,0.669642857 C3,0.299809319 3.30995671,0 3.69230769,0 C4.07465867,0 4.38461538,0.299809319 4.38461538,0.669642857 L4.38461538,0.669642857 Z" id="Path"></path>
                <path d="M4.38461538,10.9375 L4.38461538,24.3303571 C4.38461538,24.7001907 4.07465867,25 3.69230769,25 C3.30995671,25 3,24.7001907 3,24.3303571 L3,10.9375 L4.38461538,10.9375 Z" id="Path"></path>
                <path d="M21,10.9375 L21,24.3303571 C21,24.7001907 20.6900433,25 20.3076923,25 C19.9253413,25 19.6153846,24.7001907 19.6153846,24.3303571 L19.6153846,10.9375 L21,10.9375 Z" id="Path"></path>
                <path d="M21,0.669642857 L21,5.13392857 L19.6153846,5.13392857 L19.6153846,0.669642857 C19.6153846,0.299809319 19.9253413,0 20.3076923,0 C20.6900433,0 21,0.299809319 21,0.669642857 L21,0.669642857 Z" id="Path"></path>
                <path d="M5.59384615,11.6071429 L1.79076923,11.6071429 C0.801754694,11.6071429 0,10.8316361 0,9.875 L0,6.19642857 C0,5.23979249 0.801754694,4.46428571 1.79076923,4.46428571 L5.59384615,4.46428571 C6.58286069,4.46428571 7.38461538,5.23979249 7.38461538,6.19642857 L7.38461538,9.88392857 C7.3795359,10.837076 6.57926704,11.6071429 5.59384615,11.6071429 L5.59384615,11.6071429 Z M1.79076923,5.80357143 C1.56645666,5.80357143 1.38461538,5.97945956 1.38461538,6.19642857 L1.38461538,9.88392857 C1.38461538,9.98812076 1.42740647,10.0880455 1.50357509,10.1617205 C1.57974371,10.2353955 1.68305053,10.2767857 1.79076923,10.2767857 L5.59384615,10.2767857 C5.81815873,10.2767857 6,10.1008976 6,9.88392857 L6,6.19642857 C6,5.97945956 5.81815873,5.80357143 5.59384615,5.80357143 L1.79076923,5.80357143 Z" id="Shape"></path>
                <path d="M22.2092308,11.6071429 L18.4061538,11.6071429 C17.9312123,11.6071429 17.4757232,11.4246498 17.1398888,11.09981 C16.8040544,10.7749702 16.6153846,10.3343928 16.6153846,9.875 L16.6153846,6.19642857 C16.6153846,5.73703572 16.8040544,5.29645841 17.1398888,4.97161861 C17.4757232,4.64677881 17.9312123,4.46428571 18.4061538,4.46428571 L22.2184615,4.46428571 C23.2038693,4.46919891 24,5.24326849 24,6.19642857 L24,9.88392857 C23.9949205,10.837076 23.1946517,11.6071429 22.2092308,11.6071429 Z M18.4061538,5.80357143 C18.2984351,5.80357143 18.1951283,5.84496162 18.1189597,5.91863662 C18.0427911,5.99231163 18,6.09223638 18,6.19642857 L18,9.88392857 C18,10.1008976 18.1818413,10.2767857 18.4061538,10.2767857 L22.2184615,10.2767857 C22.4427741,10.2767857 22.6246154,10.1008976 22.6246154,9.88392857 L22.6246154,6.19642857 C22.6246154,5.97945956 22.4427741,5.80357143 22.2184615,5.80357143 L18.4061538,5.80357143 Z" id="Shape"></path>
                <path d="M13.9015385,20.7053571 L10.0984615,20.7053571 C9.109447,20.7053571 8.30769231,19.9298504 8.30769231,18.9732143 L8.30769231,15.2946429 C8.30769231,14.3380068 9.109447,13.5625 10.0984615,13.5625 L13.9107692,13.5625 C14.896177,13.5674132 15.6923077,14.3414828 15.6923077,15.2946429 L15.6923077,18.9821429 C15.6872282,19.9352903 14.8869593,20.7053571 13.9015385,20.7053571 L13.9015385,20.7053571 Z M10.0984615,14.9017857 C9.87414896,14.9017857 9.69230769,15.0776738 9.69230769,15.2946429 L9.69230769,18.9821429 C9.69230769,19.1991119 9.87414896,19.375 10.0984615,19.375 L13.9107692,19.375 C14.0184879,19.375 14.1217947,19.3336098 14.1979634,19.2599348 C14.274132,19.1862598 14.3169231,19.086335 14.3169231,18.9821429 L14.3169231,15.2946429 C14.3169231,15.0776738 14.1350818,14.9017857 13.9107692,14.9017857 L10.0984615,14.9017857 Z" id="Shape"></path>
            </g>
        </g>
    </g>
</svg>