<?xml version="1.0" encoding="UTF-8"?>
<svg width="28px" height="27px" viewBox="0 0 28 27" version="1.1" xmlns="http://www.w3.org/2000/svg" xmlns:xlink="http://www.w3.org/1999/xlink">
    <title>icon-di</title>
    <defs>
        <filter id="filter-1">
            <feColorMatrix in="SourceGraphic" type="matrix" values="0 0 0 0 0.976471 0 0 0 0 0.929412 0 0 0 0 0.874510 0 0 0 1.000000 0"></feColorMatrix>
        </filter>
    </defs>
    <g id="v3" stroke="none" stroke-width="1" fill="none" fill-rule="evenodd" opacity="0.397341774">
        <g id="icon-di" transform="translate(-773.000000, -1884.000000)" filter="url(#filter-1)">
            <g transform="translate(773.000000, 1884.000000)">
                <path d="M27.3001749,25.6533498 L23.1848114,25.6533498 L23.1848114,15.7844237 L27.3005246,15.7844237 C27.686635,15.7844237 28,15.4827741 28,15.1110986 C28,14.7394232 27.686635,14.4377735 27.3005246,14.4377735 L22.485336,14.4377735 C22.0992256,14.4377735 21.7858606,14.7394232 21.7858606,15.1110986 L21.7858606,20.0455617 L14.0181864,20.0455617 L14.0181864,6.28111323 C14.0181864,5.90943777 13.7048214,5.60778813 13.318711,5.60778813 L6.21378966,5.60778813 L6.21378966,0.673325104 C6.21378966,0.301649647 5.90042468,0 5.51431426,0 L0.699475393,0 C0.313364976,0 0,0.301649647 0,0.673325104 C0,1.04500056 0.313364976,1.34665021 0.699475393,1.34665021 L4.81518861,1.34665021 L4.81518861,11.2155763 L0.699475393,11.2155763 C0.313364976,11.2155763 0,11.5172259 0,11.8889014 C0,12.2605768 0.313364976,12.5622265 0.699475393,12.5622265 L5.514664,12.5622265 C5.90077442,12.5622265 6.2141394,12.2605768 6.2141394,11.8889014 L6.2141394,6.95443833 L12.6192356,6.95443833 L12.6192356,20.7188868 C12.6192356,21.0905622 12.9326005,21.3922119 13.318711,21.3922119 L21.7858606,21.3922119 L21.7858606,26.3266749 C21.7858606,26.6983504 22.0992256,27 22.485336,27 L27.3005246,27 C27.686635,27 28,26.6983504 28,26.3266749 C28,25.9549994 27.686635,25.6533498 27.3001749,25.6533498 Z" id="Path" fill="#000000" fill-rule="nonzero"></path>
            </g>
        </g>
    </g>
</svg>