<?xml version="1.0" encoding="UTF-8"?>
<svg width="21px" height="21px" viewBox="0 0 21 21" version="1.1" xmlns="http://www.w3.org/2000/svg" xmlns:xlink="http://www.w3.org/1999/xlink">
    <title>icon-debugger</title>
    <g id="v3" stroke="none" stroke-width="1" fill="none" fill-rule="evenodd" opacity="0.397341774">
        <g id="Deepkit-Frameworkv3" transform="translate(-414.000000, -2179.000000)" fill="#F9EDDF" fill-rule="nonzero">
            <path d="M426.227981,2180.06681 C425.900444,2179.40739 425.236957,2179 424.502112,2179 C423.763043,2179 423.099556,2179.40739 422.772019,2180.06681 L414.205646,2197.19858 C413.903293,2197.8034 413.936891,2198.50857 414.289611,2199.08019 C414.646554,2199.6556 415.259644,2200 415.935708,2200 L433.064292,2200 C433.740356,2200 434.353446,2199.6556 434.710389,2199.08019 C435.063108,2198.50857 435.096707,2197.8034 434.794354,2197.19858 L426.227981,2180.06681 Z M426,2197.62295 C426,2197.83018 425.830607,2198 425.623373,2198 L423.377082,2198 C423.165879,2198 423,2197.83018 423,2197.62295 L423,2195.37702 C423,2195.16982 423.165879,2195 423.377082,2195 L425.623373,2195 C425.830607,2195 426,2195.16982 426,2195.37702 L426,2197.62295 Z M426,2192.63921 C426,2192.83775 425.835734,2193 425.634811,2193 L423.365189,2193 C423.164266,2193 423,2192.83775 423,2192.63921 L423,2185.36076 C423,2185.16225 423.164266,2185 423.365189,2185 L425.634811,2185 C425.835734,2185 426,2185.16225 426,2185.36076 L426,2192.63921 Z" id="icon-debugger"></path>
        </g>
    </g>
</svg>