<?xml version="1.0" encoding="UTF-8"?>
<svg width="32px" height="18px" viewBox="0 0 32 18" version="1.1" xmlns="http://www.w3.org/2000/svg" xmlns:xlink="http://www.w3.org/1999/xlink">
    <title>icon-logger</title>
    <g id="v3" stroke="none" stroke-width="1" fill="none" fill-rule="evenodd" opacity="0.397341774">
        <g id="Deepkit-Frameworkv3" transform="translate(-408.000000, -2320.000000)" fill="#F9EDDF" fill-rule="nonzero">
            <g id="icon-logger" transform="translate(408.000000, 2320.000000)">
                <path d="M15.2657375,0.146 C15.2073255,0.162900071 15.1562981,0.175147876 15.117603,0.183977688 C14.656958,0.28314147 14.1904322,0.33012928 13.7233962,0.32440019 C13.2681512,0.329405889 12.8133913,0.284940382 12.3639707,0.191478282 L12.103,2.00358367 L16.103,2.146 L15.2657375,0.146 Z" id="Path"></path>
                <path d="M2.60284099,17.146 C2.66156125,17.1451744 2.71994183,17.1362111 2.776557,17.1193291 C2.78903912,17.1154575 2.80136222,17.1114138 2.81408284,17.1084026 C3.83244824,16.7614221 5.103,13.986611 5.103,9.64604302 C5.103,5.30392643 3.8315737,2.52851303 2.8132878,2.18325329 C2.8008852,2.18024206 2.7888006,2.1764565 2.77663651,2.17267095 C2.72010236,2.15579031 2.66180079,2.14682685 2.60315901,2.146 C1.55919335,2.146 0.103,4.99927536 0.103,9.64604302 C0.103,14.2928107 1.55887534,17.146 2.60284099,17.146 Z M1.11174543,12.2684856 C0.839206074,11.5568014 0.689102719,10.625211 0.689102719,9.64604302 C0.689102719,8.66687504 0.839206074,7.73528459 1.11174543,7.02360042 C1.57891032,5.80387768 2.24642503,5.62191298 2.60284099,5.62191298 C2.95925696,5.62191298 3.62677166,5.80396372 4.09393656,7.02368645 C4.36639641,7.73537062 4.51657927,8.66696107 4.51657927,9.64612905 C4.51657927,10.625297 4.36639641,11.5568875 4.09393656,12.2685717 C3.62677166,13.4882944 2.95917745,13.6703451 2.60284099,13.6703451 C2.24650453,13.6703451 1.57891032,13.4882084 1.11174543,12.2684856 Z" id="Shape"></path>
                <path d="M5.103,17.0569432 L23.774868,16.6070129 C25.2443402,16.5720422 26.7134787,16.6967697 28.166398,16.9798467 L29.0182949,17.146 C29.9002389,17.0746685 31.103,14.2348331 31.103,9.64655929 C31.103,5.02903017 29.8847437,2.18231107 29.0010481,2.146 L23.1686705,2.71570521 C22.2741965,2.80281481 21.3767883,2.83064475 20.4800584,2.799083 L5.11249921,2.25347044 C5.9568506,3.81785806 6.49129882,6.48990542 6.49129882,9.64612907 C6.49129882,12.814313 5.95280838,15.4946207 5.103,17.0569432 Z M25.5761876,13.7392094 L10.6491131,14.1459675 L10.6392802,14.1459675 C10.3457363,14.1498995 10.1056452,13.7964421 10.103,13.3564983 C10.1003981,12.9165546 10.3362356,12.5567222 10.6297795,12.5527901 L25.556854,12.146032 L25.5667533,12.146032 C25.8602972,12.1421275 26.1003734,12.4956072 26.103,12.935551 C26.1055838,13.3754948 25.8697314,13.7353049 25.5761876,13.7392094 L25.5761876,13.7392094 Z M26.5853529,9.146 C26.8712415,9.146 27.103,9.36985763 27.103,9.646 C27.103,9.92214237 26.8712415,10.146 26.5853529,10.146 L16.6206471,10.146 C16.3347585,10.146 16.103,9.92214237 16.103,9.646 C16.103,9.36985763 16.3347585,9.146 16.6206471,9.146 L26.5853529,9.146 Z M9.65824403,5.146 L19.579512,5.6298172 C19.8735088,5.63682964 20.1078482,5.98189912 20.103,6.40055146 C20.0979993,6.8192038 19.8556758,7.15290389 19.561679,7.14589147 C19.5554907,7.14589147 19.5493024,7.14589147 19.5431806,7.14589147 L9.62191263,6.66207427 C9.43065049,6.65520798 9.25668694,6.50271226 9.16624055,6.26263401 C9.07579415,6.02255577 9.08277835,5.73182646 9.18453464,5.50111109 C9.28629093,5.27039572 9.46716605,5.13518545 9.65831057,5.14694755 L9.65824403,5.146 Z" id="Shape"></path>
                <ellipse id="Oval" cx="2.103" cy="9.646" rx="1" ry="2.5"></ellipse>
            </g>
        </g>
    </g>
</svg>