<?xml version="1.0" encoding="UTF-8"?>
<svg width="20px" height="21px" viewBox="0 0 20 21" version="1.1" xmlns="http://www.w3.org/2000/svg" xmlns:xlink="http://www.w3.org/1999/xlink">
    <title>icon-rpc</title>
    <defs>
        <filter id="filter-1">
            <feColorMatrix in="SourceGraphic" type="matrix" values="0 0 0 0 0.976471 0 0 0 0 0.929412 0 0 0 0 0.874510 0 0 0 1.000000 0"></feColorMatrix>
        </filter>
    </defs>
    <g id="v3" stroke="none" stroke-width="1" fill="none" fill-rule="evenodd" opacity="0.397341774">
        <g id="icon-rpc" transform="translate(-414.000000, -1887.000000)" filter="url(#filter-1)">
            <g transform="translate(414.000000, 1887.000000)">
                <path d="M19.2190889,20.5217391 C19.3492408,20.6304348 19.4577007,20.7391304 19.5878525,20.8043478 C19.6963124,20.8695652 19.8047722,20.9130435 19.8698482,20.9565217 C19.9566161,20.9782609 20,21 20,21 C20,21 14.1214751,21 14.1214751,21 C14.0780911,21 13.9696312,20.9347826 13.7960954,20.826087 C13.6225597,20.7173913 13.4490239,20.5652174 13.318872,20.3695652 L0,0 L4.29501085,0 C4.55531453,0 4.79392625,0.0434782609 5.03253796,0.130434783 C5.27114967,0.217391304 5.48806941,0.347826087 5.70498915,0.5 C5.92190889,0.652173913 6.11713666,0.826086957 6.31236443,1.02173913 C6.50759219,1.2173913 6.65943601,1.41304348 6.78958785,1.63043478 L18.8720174,20.0652174 C18.9804772,20.2608696 19.0889371,20.3913043 19.2190889,20.5217391 Z" id="Path" fill="#000000" fill-rule="nonzero"></path>
            </g>
        </g>
    </g>
</svg>