<?xml version="1.0" encoding="UTF-8"?>
<svg width="24px" height="16px" viewBox="0 0 24 16" version="1.1" xmlns="http://www.w3.org/2000/svg" xmlns:xlink="http://www.w3.org/1999/xlink">
    <title>icon-workflow</title>
    <g id="v3" stroke="none" stroke-width="1" fill="none" fill-rule="evenodd" opacity="0.397341774">
        <g id="Deepkit-Frameworkv3" transform="translate(-775.000000, -2182.000000)" fill="#F9EDDF" fill-rule="nonzero">
            <path d="M796.72973,2187.12 C795.477838,2187.12 794.459459,2188.1248 794.459459,2189.36 C794.459459,2190.48614 795.307114,2191.41824 796.405405,2191.5744 L796.405405,2195.44 L790.567568,2195.44 L790.567568,2193.84 C790.567568,2193.66336 790.42227,2193.52 790.243243,2193.52 L787.324324,2193.52 L787.324324,2186.4544 C788.422616,2186.29824 789.27027,2185.36614 789.27027,2184.24 C789.27027,2183.0048 788.251892,2182 787,2182 C785.748108,2182 784.72973,2183.0048 784.72973,2184.24 C784.72973,2185.36614 785.577384,2186.29824 786.675676,2186.4544 L786.675676,2193.52 L783.756757,2193.52 C783.57773,2193.52 783.432432,2193.66336 783.432432,2193.84 L783.432432,2195.44 L777.594595,2195.44 L777.594595,2191.5744 C778.692886,2191.41824 779.540541,2190.48614 779.540541,2189.36 C779.540541,2188.1248 778.522162,2187.12 777.27027,2187.12 C776.018378,2187.12 775,2188.1248 775,2189.36 C775,2190.48614 775.847654,2191.41824 776.945946,2191.5744 L776.945946,2195.76 C776.945946,2195.93664 777.091243,2196.08 777.27027,2196.08 L783.432432,2196.08 L783.432432,2197.68 C783.432432,2197.85664 783.57773,2198 783.756757,2198 L790.243243,2198 C790.42227,2198 790.567568,2197.85664 790.567568,2197.68 L790.567568,2196.08 L796.72973,2196.08 C796.908757,2196.08 797.054054,2195.93664 797.054054,2195.76 L797.054054,2191.5744 C798.152346,2191.41824 799,2190.48614 799,2189.36 C799,2188.1248 797.981622,2187.12 796.72973,2187.12 Z" id="icon-workflow"></path>
        </g>
    </g>
</svg>