<?xml version="1.0" encoding="UTF-8"?>
<svg width="20px" height="20px" viewBox="0 0 20 20" version="1.1" xmlns="http://www.w3.org/2000/svg" xmlns:xlink="http://www.w3.org/1999/xlink">
    <title>icon-live-database</title>
    <g id="v3" stroke="none" stroke-width="1" fill="none" fill-rule="evenodd" opacity="0.397341774">
        <g id="Deepkit-Frameworkv3" transform="translate(-777.000000, -2319.000000)" fill="#F9EDDF" fill-rule="nonzero">
            <path d="M797,2338.07149 C797,2338.58429 796.584294,2339 796.071495,2339 C795.558696,2339 795.14299,2338.58429 795.14299,2338.07149 C795.132414,2328.56858 787.431419,2320.86759 777.928505,2320.85701 C777.415706,2320.85701 777,2320.4413 777,2319.92851 C777,2319.41571 777.415706,2319 777.928505,2319 C788.45631,2319.01228 796.98772,2327.54369 797,2338.07149 L797,2338.07149 Z M777.941282,2325 C777.421426,2325 777,2325.42143 777,2325.94128 C777,2326.46114 777.421426,2326.88256 777.941282,2326.88256 C784.110977,2326.88914 789.110865,2331.88902 789.117436,2338.05872 C789.117436,2338.57857 789.538862,2339 790.058718,2339 C790.578574,2339 791,2338.57857 791,2338.05872 C790.992046,2330.84988 785.150115,2325.00795 777.941282,2325 L777.941282,2325 Z M777.981546,2331 C777.443186,2331 777.00676,2331.43643 777.00676,2331.97479 L777.00676,2337.95997 C777.001387,2337.98119 776.999197,2338.00309 777.000262,2338.02495 C777.000262,2338.56331 777.436688,2338.99974 777.975047,2338.99974 L780.77593,2338.99974 C780.797794,2339.0008 780.819695,2338.99861 780.840916,2338.99324 L784.025215,2338.99324 C784.563574,2338.99324 785,2338.55681 785,2338.01845 C784.997849,2334.14316 781.85684,2331.00215 777.981546,2331 Z" id="icon-live-database"></path>
        </g>
    </g>
</svg>