<?xml version="1.0" encoding="UTF-8"?>
<svg width="32px" height="19px" viewBox="0 0 32 19" version="1.1" xmlns="http://www.w3.org/2000/svg" xmlns:xlink="http://www.w3.org/1999/xlink">
    <title>icon-dispatcher</title>
    <g id="v3" stroke="none" stroke-width="1" fill="none" fill-rule="evenodd" opacity="0.397341774">
        <g id="Deepkit-Frameworkv3" transform="translate(-408.000000, -2035.000000)" fill="#F9EDDF" fill-rule="nonzero">
            <g id="icon-dispatcher" transform="translate(408.000000, 2035.000000)">
                <path d="M22.3396222,2.37521854 C22.315089,2.42452014 23.8933893,5.02212039 23.9246779,4.99834373 C23.6480576,10.6876093 21.735893,12.9142237 19.4215979,13.928578 C20.5287903,12.4956845 21.4340285,10.3092806 21.4340285,8.31274039 C21.4340285,3.72139715 17.9197416,0 13.5851937,0 C9.2495792,0 5.73600345,3.72139715 5.73600345,8.31274039 C5.73600345,9.86661514 6.14595617,11.3148935 6.84639579,12.559322 C4.67929963,10.639007 3.74419497,7.83790648 3.64108457,4.65847734 C3.64819563,4.70148512 4.22632498,3.63678021 4.22632498,3.56265297 L0.00010949184,3.56265297 C-0.0132902143,3.56265297 1.20767914,5.9630468 1.20447916,5.93752185 C1.20447916,10.8851654 6.01333487,19 15.0945167,19 C22.3741109,19 28.679134,14.4240417 29.5345948,4.92386684 L32,2.37521854 L22.3396222,2.37521854 Z M13.5851937,14.2502622 C10.5885922,14.2502622 8.15127567,11.5865769 8.15127567,8.31274039 C8.15127567,5.03890392 10.5885922,2.37521854 13.5851937,2.37521854 C16.5814397,2.37521854 19.0187562,5.03925357 19.0187562,8.31274039 C19.0187562,11.5862272 16.5814397,14.2502622 13.5851937,14.2502622" id="Shape"></path>
            </g>
        </g>
    </g>
</svg>