<?xml version="1.0" encoding="UTF-8"?>
<svg width="407px" height="153px" viewBox="0 0 407 153" version="1.1" xmlns="http://www.w3.org/2000/svg" xmlns:xlink="http://www.w3.org/1999/xlink">
    <title>introducing-deepkit-framework</title>
    <defs>
        <filter color-interpolation-filters="auto" id="filter-1">
            <feColorMatrix in="SourceGraphic" type="matrix" values="0 0 0 0 1.000000 0 0 0 0 1.000000 0 0 0 0 1.000000 0 0 0 1.000000 0"></feColorMatrix>
        </filter>
    </defs>
    <g id="v4" stroke="none" stroke-width="1" fill="none" fill-rule="evenodd">
        <g id="Blog" transform="translate(-68.000000, -295.000000)">
            <g id="introducing-deepkit-framework" transform="translate(68.000000, 295.000000)">
                <rect id="Rectangle" fill="#171B1E" x="0" y="0" width="407" height="153"></rect>
                <g id="deepkit-logo-text" transform="translate(68.000000, 54.000000)" filter="url(#filter-1)">
                    <g>
                        <path d="M67.0588708,15.3000101 C71.9318468,15.3000101 74.5517536,18.5091105 74.5517536,22.4999378 C74.5517536,26.4908995 71.9318468,29.7 67.0588708,29.7 L62.7058313,29.7 C62.5223125,29.7 62.4,29.5765588 62.4,29.3913971 L62.4,15.6084785 C62.4,15.4234512 62.5223125,15.3000101 62.7058313,15.3000101 L67.0588708,15.3000101 Z M105.95037,15.3000034 C106.133888,15.3000034 106.256234,15.4234445 106.256234,15.6084718 L106.256234,17.9125388 C106.256234,18.0977005 106.133888,18.2211417 105.95037,18.2211417 L100.017196,18.2211417 L100.017196,20.9879785 L105.450857,20.9879785 C105.634376,20.9879785 105.756589,21.1113861 105.756589,21.2965478 L105.756589,23.6004803 C105.756589,23.7856421 105.634376,23.9090832 105.450857,23.9090832 L100.017196,23.9090832 L100.017196,26.778855 L105.970661,26.778855 C106.154179,26.778855 106.276525,26.9022961 106.276525,27.0874579 L106.276525,29.3913904 C106.276525,29.5765521 106.154179,29.6999933 105.970661,29.6999933 L97.0302187,29.6999933 C96.8466999,29.6999933 96.7243874,29.5765521 96.7243874,29.3913904 L96.7243874,15.6084718 C96.7243874,15.4234445 96.8466999,15.3000034 97.0302187,15.3000034 L105.95037,15.3000034 Z M138.083017,15.3000034 C138.266536,15.3000034 138.388882,15.4234445 138.388882,15.6084718 L138.388882,17.9125388 C138.388882,18.0977005 138.266536,18.2211417 138.083017,18.2211417 L132.149844,18.2211417 L132.149844,20.9879785 L137.583505,20.9879785 C137.767024,20.9879785 137.889236,21.1113861 137.889236,21.2965478 L137.889236,23.6004803 C137.889236,23.7856421 137.767024,23.9090832 137.583505,23.9090832 L132.149844,23.9090832 L132.149844,26.778855 L138.103308,26.778855 C138.286827,26.778855 138.409173,26.9022961 138.409173,27.0874579 L138.409173,29.3913904 C138.409173,29.5765521 138.286827,29.6999933 138.103308,29.6999933 L129.162866,29.6999933 C128.979348,29.6999933 128.857035,29.5765521 128.857035,29.3913904 L128.857035,15.6084718 C128.857035,15.4234445 128.979348,15.3000034 129.162866,15.3000034 L138.083017,15.3000034 Z M166.321306,15.3000202 C170.817082,15.3000202 172.16272,16.9148067 172.16272,20.1547675 C172.16272,23.4051159 170.817082,25.0200369 166.321306,25.0200369 L164.282475,25.0200369 L164.282475,29.3914072 C164.282475,29.5765689 164.160129,29.6999765 163.976644,29.6999765 L161.295531,29.6999765 C161.112012,29.6999765 160.989666,29.5765689 160.989666,29.3914072 L160.989666,15.6084886 C160.989666,15.4234613 161.112012,15.3000202 161.295531,15.3000202 L166.321306,15.3000202 Z M197.067844,15.3000336 C197.251363,15.3000336 197.373708,15.4234412 197.373708,15.6084684 L197.373708,20.3296895 L201.216907,15.4645546 C201.318962,15.3411134 201.441174,15.3000336 201.583944,15.3000336 L204.774832,15.3000336 C205.039814,15.3000336 205.090859,15.4851617 204.937926,15.670189 L200.126123,21.4508459 L205.294802,29.3296664 C205.437438,29.5354353 205.355841,29.6999899 205.111283,29.6999899 L201.981535,29.6999899 C201.818474,29.6999899 201.716419,29.6588765 201.614531,29.5148282 L198.005695,24.0016607 L197.373708,24.7731344 L197.373708,29.391387 C197.373708,29.5765488 197.251363,29.6999899 197.067844,29.6999899 L194.386598,29.6999899 C194.203212,29.6999899 194.080866,29.5765488 194.080866,29.391387 L194.080866,15.6084684 C194.080866,15.4234412 194.203212,15.3000336 194.386598,15.3000336 L197.067844,15.3000336 Z M237.091132,15.3 C237.27465,15.3 237.396996,15.4234412 237.396996,15.6084684 L237.396996,17.9125354 C237.396996,18.0976972 237.27465,18.2211383 237.091132,18.2211383 L233.859496,18.2211383 L233.859496,26.7788516 L237.091132,26.7788516 C237.27465,26.7788516 237.396996,26.9022928 237.396996,27.0874545 L237.396996,29.391387 C237.396996,29.5765488 237.27465,29.6999899 237.091132,29.6999899 L227.335051,29.6999899 C227.151665,29.6999899 227.029319,29.5765488 227.029319,29.391387 L227.029319,27.0874545 C227.029319,26.9022928 227.151665,26.7788516 227.335051,26.7788516 L230.566687,26.7788516 L230.566687,18.2211383 L227.335051,18.2211383 C227.151665,18.2211383 227.029319,18.0976972 227.029319,17.9125354 L227.029319,15.6084684 C227.029319,15.4234412 227.151665,15.3 227.335051,15.3 L237.091132,15.3 Z M270.294269,15.3000101 C270.477654,15.3000101 270.6,15.4234512 270.6,15.6084785 L270.6,17.9125455 C270.6,18.0977072 270.477654,18.2211484 270.294269,18.2211484 L266.603836,18.2211484 L266.603836,29.3913971 C266.603836,29.5765588 266.481523,29.7 266.298005,29.7 L263.616892,29.7 C263.433373,29.7 263.311027,29.5765588 263.311027,29.3913971 L263.311027,18.2211484 L259.620627,18.2211484 C259.437109,18.2211484 259.314763,18.0977072 259.314763,17.9125455 L259.314763,15.6084785 C259.314763,15.4234512 259.437109,15.3000101 259.620627,15.3000101 L270.294269,15.3000101 Z M67.0588708,18.2211484 L65.6928089,18.2211484 L65.6928089,26.7788617 L67.0588708,26.7788617 C69.821581,26.7788617 71.2079339,25.2360488 71.2079339,22.4999378 C71.2079339,19.7639612 69.821581,18.2211484 67.0588708,18.2211484 Z M166.555835,18.2211249 L164.282475,18.2211249 L164.282475,22.0988986 L166.555835,22.0988986 C168.176718,22.0988986 169.012681,21.7490814 169.012681,20.1547675 C169.012681,18.5810607 168.176718,18.2211249 166.555835,18.2211249 Z" id="deepkit" fill="#F9EDDF"></path>
                        <path d="M10.875,11.25 L28.275,41.25 L26.1,45 L21.75,45 L10.875,26.25 L8.7,30 L17.4,45 L8.7,45 L3.90798505e-14,30 L10.875,11.25 Z M17.4,3.55271368e-15 L34.8,30 L30.45,37.5 L13.05,7.5 L17.4,3.55271368e-15 Z" id="diamond" fill="#F9EDDF"></path>
                    </g>
                </g>
            </g>
        </g>
    </g>
</svg>