<?xml version="1.0" encoding="UTF-8"?>
<svg width="28px" height="15px" viewBox="0 0 28 15" version="1.1" xmlns="http://www.w3.org/2000/svg">
    <!-- Generator: Sketch 57.1 (83088) - https://sketch.com -->
    <title>overlay-arrow</title>
    <desc>Created with Sketch.</desc>
    <g id="overlay-arrow" stroke="none" stroke-width="1" fill="none" fill-rule="evenodd">
        <path d="M-2.64729905e-12,15 C2.00533153,15 3.73910557,13.7786482 5.20132212,11.3359446 C10.4384837,4.44531485 13.3716957,1 14.0009582,1 C14.6302207,1 17.5898181,4.44531485 22.8797504,11.3359446 C24.3006223,13.7786482 26.0073721,15 28,15 C30.9889418,15 -3.0079973,15 -2.64729905e-12,15 Z" id="Path-4" fill="#dcdcdcbf"></path>
        <path d="M-1.4157564e-12,15 C2.1610816,15 4.03362697,13.5409045 5.58733012,11.6537461 C10.5063824,5.18228356 13.6413407,1.5 14.0009582,1.5 C14.3621415,1.5 17.5247263,5.18161576 22.4831451,11.6404182 C24.0016909,13.5387044 25.8492775,15 28,15 L28,14 C26.1654667,14 24.5995536,12.6852586 23.2701802,11.0235914 C17.6549099,3.70901395 14.8982999,0.5 14.0009582,0.5 C13.1020508,0.5 10.370585,3.70834615 4.8032489,11.0333926 C3.44458418,12.6830585 1.84958146,14 -1.4157564e-12,14 L-1.4157564e-12,15 Z" id="Path-4" fill="#D0D0D0" fill-rule="nonzero"></path>
    </g>
</svg>
