<?xml version="1.0" encoding="UTF-8"?>
<svg width="28px" height="16px" viewBox="0 0 28 16" version="1.1" xmlns="http://www.w3.org/2000/svg">
    <!-- Generator: Sketch 57.1 (83088) - https://sketch.com -->
    <title>overlay-arrow-dark</title>
    <desc>Created with Sketch.</desc>
    <g id="overlay-arrow-dark" stroke="none" stroke-width="1" fill="none" fill-rule="evenodd">
        <path d="M2.15602536e-12,16 C2.00533153,16 3.73910557,14.7786482 5.20132212,12.3359446 C10.4384837,5.44531485 13.3716957,2 14.0009582,2 C14.6302207,2 17.5898181,5.44531485 22.8797504,12.3359446 C24.3006223,14.7786482 26.0073721,16 28,16 C30.9889418,16 -3.0079973,16 2.15602536e-12,16 Z" id="Path-4" fill="#2d373f9f" ></path>
        <path d="M0,15 C2.1610816,15 4.03362697,13.5409045 5.58733012,11.6537461 C10.5063824,5.18228356 13.6413407,1.5 14.0009582,1.5 C14.3621415,1.5 17.5247263,5.18161576 22.4831451,11.6404182 C24.0016909,13.5387044 25.8492775,15 28,15 L28,14 C26.1654667,14 24.5995536,12.6852586 23.2701802,11.0235914 C17.6549099,3.70901395 14.8982999,0.5 14.0009582,0.5 C13.1020508,0.5 10.370585,3.70834615 4.8032489,11.0333926 C3.44458418,12.6830585 1.84958146,14 0,14 L0,15 Z" id="Path-4" fill="#0A0B0C" fill-rule="nonzero"></path>
        <path d="M0,16 C2.1610816,16 4.03362697,14.5409045 5.58733012,12.6537461 C10.5063824,6.18228356 13.6413407,2.5 14.0009582,2.5 C14.3621415,2.5 17.5247263,6.18161576 22.4831451,12.6404182 C24.0016909,14.5387044 25.8492775,16 28,16 L28,15 C26.1654667,15 24.5995536,13.6852586 23.2701802,12.0235914 C17.6549099,4.70901395 14.8982999,1.5 14.0009582,1.5 C13.1020508,1.5 10.370585,4.70834615 4.8032489,12.0333926 C3.44458418,13.6830585 1.84958146,15 0,15 L0,16 Z" id="Path-4" fill="#505459" fill-rule="nonzero"></path>
    </g>
</svg>
