<?xml version="1.0" encoding="UTF-8"?>
<svg width="903px" height="151px" viewBox="0 0 903 151" version="1.1" xmlns="http://www.w3.org/2000/svg" xmlns:xlink="http://www.w3.org/1999/xlink">
    <!-- Generator: Sketch 59 (86127) - https://sketch.com -->
    <title>deepkit_logo_dark</title>
    <desc>Created with Sketch.</desc>
    <g id="Symbols" stroke="none" stroke-width="1" fill="none" fill-rule="evenodd">
        <g id="deepkit_logo_dark" transform="translate(-92.000000, -75.000000)" fill="#171B1E">
            <g transform="translate(92.222222, 75.083247)">
                <path d="M223.308411,51.2291596 C239.558856,51.2291596 248.295744,61.8320104 248.295744,75.0176823 C248.295744,88.2037986 239.558856,98.8066494 223.308411,98.8066494 L208.791856,98.8066494 C208.179856,98.8066494 207.771967,98.3988004 207.771967,97.787027 L207.771967,52.2483377 C207.771967,51.6370085 208.179856,51.2291596 208.791856,51.2291596 L223.308411,51.2291596 Z M353.004133,51.2291374 C353.616133,51.2291374 354.024133,51.6369863 354.024133,52.2483154 L354.024133,59.8609404 C354.024133,60.4727138 353.616133,60.8805628 353.004133,60.8805628 L333.218133,60.8805628 L333.218133,70.022177 L351.338356,70.022177 C351.950356,70.022177 352.357911,70.4299148 352.357911,71.0416883 L352.357911,78.6538689 C352.357911,79.2656424 351.950356,79.6734913 351.338356,79.6734913 L333.218133,79.6734913 L333.218133,89.1552018 L353.0718,89.1552018 C353.6838,89.1552018 354.0918,89.5630507 354.0918,90.1748241 L354.0918,97.7870048 C354.0918,98.3987782 353.6838,98.8066272 353.0718,98.8066272 L323.257133,98.8066272 C322.645133,98.8066272 322.237244,98.3987782 322.237244,97.7870048 L322.237244,52.2483154 C322.237244,51.6369863 322.645133,51.2291374 323.257133,51.2291374 L353.004133,51.2291374 Z M460.160378,51.2291374 C460.772378,51.2291374 461.180378,51.6369863 461.180378,52.2483154 L461.180378,59.8609404 C461.180378,60.4727138 460.772378,60.8805628 460.160378,60.8805628 L440.374378,60.8805628 L440.374378,70.022177 L458.4946,70.022177 C459.1066,70.022177 459.514156,70.4299148 459.514156,71.0416883 L459.514156,78.6538689 C459.514156,79.2656424 459.1066,79.6734913 458.4946,79.6734913 L440.374378,79.6734913 L440.374378,89.1552018 L460.228044,89.1552018 C460.840044,89.1552018 461.248044,89.5630507 461.248044,90.1748241 L461.248044,97.7870048 C461.248044,98.3987782 460.840044,98.8066272 460.228044,98.8066272 L430.413378,98.8066272 C429.801378,98.8066272 429.393489,98.3987782 429.393489,97.7870048 L429.393489,52.2483154 C429.393489,51.6369863 429.801378,51.2291374 430.413378,51.2291374 L460.160378,51.2291374 Z M554.329678,51.2291929 C569.322233,51.2291929 573.809678,56.5644391 573.809678,67.2692521 C573.809678,78.0083858 569.322233,83.3440763 554.329678,83.3440763 L547.530567,83.3440763 L547.530567,97.7870603 C547.530567,98.3988338 547.122567,98.8065716 546.510678,98.8065716 L537.569678,98.8065716 C536.957678,98.8065716 536.549678,98.3988338 536.549678,97.7870603 L536.549678,52.248371 C536.549678,51.6370418 536.957678,51.2291929 537.569678,51.2291929 L554.329678,51.2291929 Z M656.863511,51.2292373 C657.475511,51.2292373 657.883511,51.6369752 657.883511,52.2483043 L657.883511,67.8471936 L670.699844,51.7728138 C671.040178,51.3649648 671.447733,51.2292373 671.923844,51.2292373 L682.564844,51.2292373 C683.448511,51.2292373 683.618733,51.8408997 683.108733,52.4522288 L667.062289,71.5514883 L684.298844,97.5830692 C684.774511,98.2629285 684.5024,98.8066161 683.686844,98.8066161 L673.249733,98.8066161 C672.705956,98.8066161 672.365622,98.6707775 672.025844,98.1948427 L659.991067,79.9793669 L657.883511,82.5283117 L657.883511,97.7869937 C657.883511,98.3987671 657.475511,98.8066161 656.863511,98.8066161 L647.922067,98.8066161 C647.310511,98.8066161 646.902511,98.3987671 646.902511,97.7869937 L646.902511,52.2483043 C646.902511,51.6369752 647.310511,51.2292373 647.922067,51.2292373 L656.863511,51.2292373 Z M790.333533,51.2291262 C790.945533,51.2291262 791.353533,51.6369752 791.353533,52.2483043 L791.353533,59.8609293 C791.353533,60.4727027 790.945533,60.8805516 790.333533,60.8805516 L779.556644,60.8805516 L779.556644,89.1551907 L790.333533,89.1551907 C790.945533,89.1551907 791.353533,89.5630396 791.353533,90.174813 L791.353533,97.7869937 C791.353533,98.3987671 790.945533,98.8066161 790.333533,98.8066161 L757.798867,98.8066161 C757.187311,98.8066161 756.779311,98.3987671 756.779311,97.7869937 L756.779311,90.174813 C756.779311,89.5630396 757.187311,89.1551907 757.798867,89.1551907 L768.575756,89.1551907 L768.575756,60.8805516 L757.798867,60.8805516 C757.187311,60.8805516 756.779311,60.4727027 756.779311,59.8609293 L756.779311,52.2483043 C756.779311,51.6369752 757.187311,51.2291262 757.798867,51.2291262 L790.333533,51.2291262 Z M901.059656,51.2291596 C901.671211,51.2291596 902.079211,51.6370085 902.079211,52.2483377 L902.079211,59.8609626 C902.079211,60.472736 901.671211,60.880585 901.059656,60.880585 L888.752767,60.880585 L888.752767,97.787027 C888.752767,98.3988004 888.344878,98.8066494 887.732878,98.8066494 L878.791878,98.8066494 C878.179878,98.8066494 877.771878,98.3988004 877.771878,97.787027 L877.771878,60.880585 L865.4651,60.880585 C864.8531,60.880585 864.4451,60.472736 864.4451,59.8609626 L864.4451,52.2483377 C864.4451,51.6370085 864.8531,51.2291596 865.4651,51.2291596 L901.059656,51.2291596 Z M223.308411,60.880585 L218.752856,60.880585 L218.752856,89.155224 L223.308411,89.155224 C232.521522,89.155224 237.144744,84.0577786 237.144744,75.0176823 C237.144744,65.9780304 232.521522,60.880585 223.308411,60.880585 Z M555.111789,60.8805072 L547.530567,60.8805072 L547.530567,73.6926509 L555.111789,73.6926509 C560.517122,73.6926509 563.3049,72.5368567 563.3049,67.2692521 C563.3049,62.0697334 560.517122,60.8805072 555.111789,60.8805072 Z" id="deepkit"></path>
                <path d="M36.1111111,37.4861163 L93.8888889,137.449093 L86.6666667,149.944465 L72.2222222,149.944465 L36.1111111,87.4676046 L28.8888889,99.9629767 L57.7777778,149.944465 L28.8888889,149.944465 L-2.48689958e-13,99.9629767 L36.1111111,37.4861163 Z M57.7777778,0 L115.555556,99.9629767 L101.111111,124.953721 L43.3333333,24.9907442 L57.7777778,0 Z" id="diamond"></path>
            </g>
        </g>
    </g>
</svg>