<?xml version="1.0" encoding="UTF-8"?>
<svg width="192px" height="32px" viewBox="0 0 192 32" version="1.1" xmlns="http://www.w3.org/2000/svg" xmlns:xlink="http://www.w3.org/1999/xlink">
    <!-- Generator: Sketch 57 (83077) - https://sketch.com -->
    <title>logo/deepkit_3</title>
    <desc>Created with Sketch.</desc>
    <g id="Website" stroke="none" stroke-width="1" fill="none" fill-rule="evenodd">
        <g id="Artboard" transform="translate(-112.000000, -27.000000)">
            <g id="logo/deepkit_3" transform="translate(112.000000, 27.000000)">
                <polygon id="bg" fill="#FFFFFF" opacity="0" points="0 0 0 32 53.0061546 32 106.01227 32 159.018405 32 192 32 192 0"></polygon>
                <path d="M47.5805735,10.8800072 C51.0381174,10.8800072 52.8970314,13.1620342 52.8970314,15.9999558 C52.8970314,18.837973 51.0381174,21.12 47.5805735,21.12 L44.4919424,21.12 C44.3617295,21.12 44.2749446,21.0322196 44.2749446,20.900549 L44.2749446,11.0993625 C44.2749446,10.9677876 44.3617295,10.8800072 44.4919424,10.8800072 L47.5805735,10.8800072 Z M191.783073,10.8800072 C191.913191,10.8800072 192,10.9677876 192,11.0993625 L192,12.7378101 C192,12.8694807 191.913191,12.9572611 191.783073,12.9572611 L189.164584,12.9572611 L189.164584,20.900549 C189.164584,21.0322196 189.077799,21.12 188.947586,21.12 L187.045245,21.12 C186.915032,21.12 186.828223,21.0322196 186.828223,20.900549 L186.828223,12.9572611 L184.209758,12.9572611 C184.079545,12.9572611 183.992736,12.8694807 183.992736,12.7378101 L183.992736,11.0993625 C183.992736,10.9677876 184.079545,10.8800072 184.209758,10.8800072 L191.783073,10.8800072 Z M75.1754285,10.8800024 C75.3056414,10.8800024 75.39245,10.9677828 75.39245,11.0993577 L75.39245,12.7378053 C75.39245,12.8694759 75.3056414,12.9572563 75.1754285,12.9572563 L70.9656382,12.9572563 L70.9656382,14.9247847 L74.8210075,14.9247847 C74.9512203,14.9247847 75.0379343,15.0125412 75.0379343,15.1442118 L75.0379343,16.7825638 C75.0379343,16.9142344 74.9512203,17.0020147 74.8210075,17.0020147 L70.9656382,17.0020147 L70.9656382,19.0427413 L75.1898257,19.0427413 C75.3200386,19.0427413 75.4068471,19.1305217 75.4068471,19.2621923 L75.4068471,20.9005443 C75.4068471,21.0322148 75.3200386,21.1199952 75.1898257,21.1199952 L68.8462749,21.1199952 C68.716062,21.1199952 68.6292771,21.0322148 68.6292771,20.9005443 L68.6292771,11.0993577 C68.6292771,10.9677828 68.716062,10.8800024 68.8462749,10.8800024 L75.1754285,10.8800024 Z M97.9746464,10.8800024 C98.1048593,10.8800024 98.1916679,10.9677828 98.1916679,11.0993577 L98.1916679,12.7378053 C98.1916679,12.8694759 98.1048593,12.9572563 97.9746464,12.9572563 L93.7648561,12.9572563 L93.7648561,14.9247847 L97.6202254,14.9247847 C97.7504382,14.9247847 97.8371522,15.0125412 97.8371522,15.1442118 L97.8371522,16.7825638 C97.8371522,16.9142344 97.7504382,17.0020147 97.6202254,17.0020147 L93.7648561,17.0020147 L93.7648561,19.0427413 L97.9890436,19.0427413 C98.1192565,19.0427413 98.206065,19.1305217 98.206065,19.2621923 L98.206065,20.9005443 C98.206065,21.0322148 98.1192565,21.1199952 97.9890436,21.1199952 L91.6454928,21.1199952 C91.5152799,21.1199952 91.428495,21.0322148 91.428495,20.9005443 L91.428495,11.0993577 C91.428495,10.9677828 91.5152799,10.8800024 91.6454928,10.8800024 L97.9746464,10.8800024 Z M118.010683,10.8800143 C121.20059,10.8800143 122.155367,12.028307 122.155367,14.3322791 C122.155367,16.6436379 121.20059,17.7920262 118.010683,17.7920262 L116.564062,17.7920262 L116.564062,20.9005562 C116.564062,21.0322268 116.477254,21.1199833 116.347064,21.1199833 L114.444722,21.1199833 C114.31451,21.1199833 114.227701,21.0322268 114.227701,20.9005562 L114.227701,11.0993697 C114.227701,10.9677947 114.31451,10.8800143 114.444722,10.8800143 L118.010683,10.8800143 Z M139.826408,10.8800239 C139.956621,10.8800239 140.043429,10.9677804 140.043429,11.0993553 L140.043429,14.4566681 L142.770311,10.9970166 C142.842722,10.9092362 142.929436,10.8800239 143.030737,10.8800239 L145.294781,10.8800239 C145.482795,10.8800239 145.519013,11.0116706 145.410502,11.1432455 L141.996362,15.2539349 L145.663717,20.8566517 C145.764923,21.0029762 145.707027,21.1199928 145.533504,21.1199928 L143.312841,21.1199928 C143.197143,21.1199928 143.124732,21.0907566 143.052439,20.9883223 L140.491846,17.0678476 L140.043429,17.6164511 L140.043429,20.9005419 C140.043429,21.0322124 139.956621,21.1199928 139.826408,21.1199928 L137.923972,21.1199928 C137.793853,21.1199928 137.707045,21.0322124 137.707045,20.9005419 L137.707045,11.0993553 C137.707045,10.9677804 137.793853,10.8800239 137.923972,10.8800239 L139.826408,10.8800239 Z M168.224306,10.88 C168.354519,10.88 168.441328,10.9677804 168.441328,11.0993553 L168.441328,12.737803 C168.441328,12.8694735 168.354519,12.9572539 168.224306,12.9572539 L165.931349,12.9572539 L165.931349,19.0427389 L168.224306,19.0427389 C168.354519,19.0427389 168.441328,19.1305193 168.441328,19.2621899 L168.441328,20.9005419 C168.441328,21.0322124 168.354519,21.1199928 168.224306,21.1199928 L161.302032,21.1199928 C161.171913,21.1199928 161.085105,21.0322124 161.085105,20.9005419 L161.085105,19.2621899 C161.085105,19.1305193 161.171913,19.0427389 161.302032,19.0427389 L163.594988,19.0427389 L163.594988,12.9572539 L161.302032,12.9572539 C161.171913,12.9572539 161.085105,12.8694735 161.085105,12.737803 L161.085105,11.0993553 C161.085105,10.9677804 161.171913,10.88 161.302032,10.88 L168.224306,10.88 Z M47.5805735,12.9572611 L46.6113056,12.9572611 L46.6113056,19.0427461 L47.5805735,19.0427461 C49.5408114,19.0427461 50.5244764,17.9456347 50.5244764,15.9999558 C50.5244764,14.0543724 49.5408114,12.9572611 47.5805735,12.9572611 Z M118.177089,12.9572444 L116.564062,12.9572444 L116.564062,15.7147723 L118.177089,15.7147723 C119.327161,15.7147723 119.920306,15.4660134 119.920306,14.3322791 C119.920306,13.2131988 119.327161,12.9572444 118.177089,12.9572444 Z" id="deepkit" fill="#F8ECDF"></path>
                <path d="M7.71618625,8 L20.0620843,29.3333333 L18.518847,32 L15.4323725,32 L7.71618625,18.6666667 L6.172949,21.3333333 L12.345898,32 L6.172949,32 L1.27897692e-13,21.3333333 L7.71618625,8 Z M12.345898,1.42108547e-14 L24.691796,21.3333333 L21.6053215,26.6666667 L9.2594235,5.33333333 L12.345898,1.42108547e-14 Z" id="diamond" fill="#F8ECDF"></path>
            </g>
        </g>
    </g>
</svg>