<?xml version="1.0" encoding="UTF-8"?>
<svg width="17px" height="17px" viewBox="0 0 17 17" version="1.1" xmlns="http://www.w3.org/2000/svg" xmlns:xlink="http://www.w3.org/1999/xlink">
    <title>picture</title>
    <g id="picture" stroke="none" stroke-width="1" fill="none" fill-rule="evenodd">
        <path d="M15,12.854194 C15,13.4843671 14.5125798,14 13.9167699,14 L3.08323006,14 C2.48742016,14 2,13.484468 2,12.854194 L2,4.1457052 C2,3.51553205 2.48742016,3 3.08323006,3 L13.9167699,3 C14.5125798,3 15,3.51553205 15,4.1457052 L15,12.854194 Z M3.21136664,4 C3.09902867,4 3,4.10572862 3,4.22482181 L3,12.7751782 C3,12.8946674 3.09912174,13 3.21136664,13 L13.7883541,13 C13.9003198,13 14,12.8946674 14,12.7751782 L14,4.22482181 C14,4.10572862 13.9003198,4 13.7883541,4 L3.21136664,4 Z M5.500495,8 C4.67231328,8 4,7.32812672 4,6.500165 C4,5.67220328 4.67231328,5 5.500495,5 C6.32834672,5 7,5.67220328 7,6.500165 C7,7.32812672 6.32845672,8 5.500495,8 Z M13,12 L4,12 L4,10.6663407 L6.04559772,8.4444879 L7.06821659,9.55521877 L10.340903,6 L13,8.8889758 L13,12 Z" id="Shape" fill="#000000" fill-rule="nonzero"></path>
    </g>
</svg>