<?xml version="1.0" encoding="UTF-8"?>
<svg width="151px" height="26px" viewBox="0 0 151 26" version="1.1" xmlns="http://www.w3.org/2000/svg">
    <title>SUPERHORNET</title>
    <g id="new-startpage" stroke="none" stroke-width="1" fill="none" fill-rule="evenodd">
        <g id="super-hornet-new" transform="translate(-100.000000, -46.000000)" fill="#000000" fill-rule="nonzero">
            <path d="M107.690394,72 C109.548906,72 110.785513,71.283208 111.448959,69.3283208 L114.533983,60.2380952 C115.186372,58.3157895 114.803213,57.273183 112.848571,57.273183 L109.195634,57.273183 L111.716729,49.8446115 L117.452482,49.8446115 L118.757259,46 L111.707731,46 C109.817175,46 108.558454,46.7819549 107.883951,48.7694236 L104.710467,58.1203008 C104.058078,60.0426065 104.452294,61.0526316 106.406936,61.0526316 L110.059873,61.0526316 L107.649353,68.1553885 L101.304777,68.1553885 L100,72 L107.690394,72 Z M120.732022,72 C122.622577,72 123.870241,71.2506266 124.544744,69.2631579 L132.439752,46 L128.242079,46 L120.723023,68.1553885 L117.903212,68.1553885 L125.422267,46 L121.224594,46 L113.329586,69.2631579 C112.655082,71.2506266 113.394104,72 115.284659,72 L120.732022,72 Z M129.672105,72 L132.922991,62.4210526 L137.056578,62.4210526 C138.947133,62.4210526 140.194797,61.6716792 140.8693,59.6842105 L144.573541,48.7694236 C145.248044,46.7819549 144.52008,46 142.629525,46 L134.298264,46 L125.474432,72 L129.672105,72 Z M137.04758,58.5764411 L134.227768,58.5764411 L137.191161,49.8446115 L140.010972,49.8446115 L137.04758,58.5764411 Z M147.456142,72 L148.76092,68.1553885 L143.92238,68.1553885 L146.332901,61.0526316 L150.851007,61.0526316 L152.13367,57.273183 L147.615563,57.273183 L150.136658,49.8446115 L154.975198,49.8446115 L156.279975,46 L147.243762,46 L138.419929,72 L147.456142,72 Z M153.127808,72 L156.378694,62.4210526 L159.198505,62.4210526 L155.94762,72 L160.145293,72 L163.351949,62.5513784 C163.783189,61.2807018 163.3734,60.6942356 162.477316,60.5964912 L162.510489,60.4987469 C163.571305,60.2055138 164.347118,59.6190476 164.778358,58.3483709 L168.029244,48.7694236 C168.703747,46.7819549 167.975783,46 166.085228,46 L157.753967,46 L148.930135,72 L153.127808,72 Z M160.492225,58.6090226 L157.672414,58.6090226 L160.646864,49.8446115 L163.466675,49.8446115 L160.492225,58.6090226 Z M172.353794,72 L176.069092,61.0526316 L178.920947,61.0526316 L175.205649,72 L179.403323,72 L188.227155,46 L184.029482,46 L180.203609,57.273183 L177.351755,57.273183 L181.177627,46 L176.979953,46 L168.156121,72 L172.353794,72 Z M189.689225,72 C191.579781,72 192.753429,71.1854637 193.383703,69.3283208 L200.394116,48.6716792 C201.046505,46.7493734 200.339527,46 198.513058,46 L192.905479,46 C191.014923,46 189.787117,46.8796992 189.178958,48.6716792 L182.168544,69.3283208 C181.516156,71.2506266 182.287221,72 184.081646,72 L189.689225,72 Z M189.584097,68.1553885 L186.764286,68.1553885 L192.978564,49.8446115 L195.798375,49.8446115 L189.584097,68.1553885 Z M198.533179,72 L201.784065,62.4210526 L204.603876,62.4210526 L201.35299,72 L205.550664,72 L208.75732,62.5513784 C209.18856,61.2807018 208.778771,60.6942356 207.882687,60.5964912 L207.915859,60.4987469 C208.976675,60.2055138 209.752489,59.6190476 210.183729,58.3483709 L213.434615,48.7694236 C214.109118,46.7819549 213.381154,46 211.490599,46 L203.159338,46 L194.335505,72 L198.533179,72 Z M205.897596,58.6090226 L203.077784,58.6090226 L206.052234,49.8446115 L208.872046,49.8446115 L205.897596,58.6090226 Z M211.606849,72 L217.400945,54.9273183 L217.561162,54.9273183 L218.782161,59.2606516 L214.458704,72 L218.656378,72 L227.48021,46 L223.282537,46 L221.402773,51.5388471 L221.210513,51.5388471 L219.725729,46 L216.233008,46 L207.409176,72 L211.606849,72 Z M229.551103,72 L230.85588,68.1553885 L226.017341,68.1553885 L228.427861,61.0526316 L232.945968,61.0526316 L234.22863,57.273183 L229.710524,57.273183 L232.231619,49.8446115 L237.070159,49.8446115 L238.374936,46 L229.338722,46 L220.51489,72 L229.551103,72 Z M238.491187,72 L246.010242,49.8446115 L249.695223,49.8446115 L251,46 L239.464408,46 L238.159631,49.8446115 L241.812568,49.8446115 L234.293513,72 L238.491187,72 Z" id="SUPERHORNET"></path>
        </g>
    </g>
</svg>
